<svg xmlns="http://www.w3.org/2000/svg" width="136.603" height="288.318" viewBox="0 0 136.603 288.318"><g opacity="0.5"><path d="M1568.823,805.1l.01,1.889s-.514,5.908,6.76,6.77,12.786-2.3,12.589-6.862c-.655-3.53-1.374-5.954-1.423-8.875a20.565,20.565,0,0,1,.259-3.538l-14.1-.281-4.151.678Z" transform="translate(-1482.067 -763.484)" fill="#777"/><path d="M1568.77,794.882l.053,10.218a11.926,11.926,0,0,0,5.082,1.121c6.478,0,10.666-4.751,12.854-8.2a20.565,20.565,0,0,1,.259-3.538l-14.1-.281Z" transform="translate(-1482.067 -763.484)" fill="#777"/><path d="M1557.638,736.689s18.054,3.647,20.152-7.631,5.841-18.4-5.6-21.208-14.485,1.081-16.1,4.674S1553,735.449,1557.638,736.689Z" transform="translate(-1471.759 -700.326)" fill="#777"/><path d="M1482.766,843.688s-4.3,23.032-9,47.09c-5.1,26.151-17.513,51.144-18.59,52.123-1.495,1.361-7.519-.387-5.066-1.872,3.269-1.978,3.078-25.162,4.278-38.814a67.465,67.465,0,0,1,1.008-7.762c1.917-8.629,2.5-39.154,8.252-43.947S1482.766,843.688,1482.766,843.688Z" transform="translate(-1395.818 -799.279)" fill="#777"/><path d="M1495.468,843.688s-2.48,13.274-5.727,30.193c-1.029,5.369-2.137,11.1-3.268,16.9-4.6,9.012-8.544,15.14-9.762,13.987-2.487-2.348-6.852-2.637-9.615-2.55a67.41,67.41,0,0,1,1.008-7.762c.151-.681.294-1.5.433-2.431,1.608-10.857,2.52-37.1,7.819-41.516C1482.107,845.712,1495.468,843.688,1495.468,843.688Z" transform="translate(-1408.521 -799.279)" fill="#09f" opacity="0.5"/><path d="M1489.741,913.25c-1.029,5.369-2.137,11.1-3.268,16.9-4.6,9.012-8.544,15.14-9.762,13.987-2.487-2.348-6.852-2.637-9.615-2.551a67.4,67.4,0,0,1,1.008-7.761c.151-.682.294-1.5.433-2.431l13.785-33.278Z" transform="translate(-1408.521 -838.648)" fill="#93b3f4"/><path d="M1613.905,1698.307a32.689,32.689,0,0,1,2.237-8.381c1.562-3.125,11.505-1.136,11.505-1.136s1.988,1.7,2.415,9.659Z" transform="translate(-1514.716 -1410.132)" fill="#0d0d38"/><path d="M1408.734,1681.112c2.336-1.426,1.007-12.064,1.007-12.064s-10.887-8.709-12.383-2.042-10.342,9.662-15.377,10.478c-3.476.563-4.552,2.489-4.885,3.627Z" transform="translate(-1343.419 -1393.008)" fill="#0d0d38"/><path d="M1475.992,1232.583a50.236,50.236,0,0,0-.8,5.881c-1.012,19.74-16.616,64.874-19.408,65.926-4.319,1.63-11.12-1.834-14.678-2.968a3.052,3.052,0,0,1-2.141-3.467c7.728-35.526,10.568-86.681,11.6-116.967a137.412,137.412,0,0,1,3.141-25.793s38.058-10.154,38.284,2.691C1492.193,1169.253,1479.386,1213.832,1475.992,1232.583Z" transform="translate(-1388.129 -1021.852)" fill="#09f" opacity="0.5"/><path d="M1506.489,1232.583l-25.424-51.594a137.4,137.4,0,0,1,3.141-25.793s38.058-10.154,38.284,2.691C1522.69,1169.253,1509.883,1213.832,1506.489,1232.583Z" transform="translate(-1418.626 -1021.852)" fill="#00008b"/><path d="M1542.357,1162.918l20.119,145.819s8.835,2.131,15.707.426c0,0,5.89-77.553,5.4-96.3s4.227-50.169-1.077-53.634S1542.357,1162.918,1542.357,1162.918Z" transform="translate(-1462.962 -1026.838)" fill="#09f" opacity="0.5"/><path d="M1545.853,931.656a3.006,3.006,0,0,1-2.959,3.123l-31.705.484-23.287.356c-1.091.019,2.357-8.705,2.427-65.592.017-12.694,19.67-26.353,20.032-26.353l0,0c0,1.828,2.88,5.2,7.319,5.493,5.266.345,11.729-2.276,11.729-5.309a14.065,14.065,0,0,1,1.6,2.06c2.629,3.831,7.926,13.172,11.307,29.432,2.67,12.842,1.643,30.009,3.564,52.161C1546.019,929.114,1545.812,930.535,1545.853,931.656Z" transform="translate(-1423.417 -799.268)" fill="#dde8fd"/><path d="M1544.683,934.956a64.565,64.565,0,0,1-12.1,3.521,119.2,119.2,0,0,1-23.439,2.354c-15.41.1-21.246-5.214-21.246-5.214-1.091.019,2.357-8.705,2.427-65.592.017-12.694,19.67-26.353,20.032-26.353l0,0s-.505,16.9,4.609,21.875c0,0,7.171-5.54,16.475-21.306,2.629,3.83,7.485,14.846,10.866,31.106a88.011,88.011,0,0,1,1.44,10.8c.9,11.22.7,24.919,2.124,41.365.14,1.6-.066,3.021-.026,4.142C1545.919,933.345,1546.373,934.93,1544.683,934.956Z" transform="translate(-1423.417 -799.268)" fill="#09f" opacity="0.5"/><path d="M1646.229,1018.159a64.566,64.566,0,0,1-12.1,3.522c-2.48-3.782-5.606-10.608-6.038-21.365-.733-18.191,16.548-41.617,16.548-41.617l.659,10.653c.9,11.22.7,24.919,2.124,41.365.141,1.6-.066,3.021-.026,4.142C1647.465,1016.548,1647.919,1018.133,1646.229,1018.159Z" transform="translate(-1524.963 -882.471)" fill="#93b3f4"/><path d="M1570.438,962.34,1551.015,928.7a3.9,3.9,0,0,0-5.333-1.429l-22.693,13.1a3.905,3.905,0,0,0-1.429,5.333l19.423,33.642a3.9,3.9,0,0,0,5.334,1.429l22.692-13.1A3.905,3.905,0,0,0,1570.438,962.34Z" transform="translate(-1447.539 -859.358)" fill="#09f"/><path d="M1623.746,911.637a90.9,90.9,0,0,1-16.344-.471,157.216,157.216,0,0,1-28.345-5.708l3.285-5.61s13.431-.592,23.268-2.032a58.777,58.777,0,0,0,6.417-1.236c2.139-.573-8.478-27.48-13.834-43.3-1.278-3.775-2.256-6.92-2.691-8.925,0,0,.936.151,2.405.441,4.17.822,12.643,2.757,16.25,5.484C1619.038,853.965,1631.216,895.561,1623.746,911.637Z" transform="translate(-1489.508 -799.759)" fill="#777"/><path d="M1553.641,1033.811s-4.55-4.261-6.309-4.261-7.189.323-7.79,1.709c-1.417,3.269,2.117,6.246,3.565,6.814a34.756,34.756,0,0,0,6.6,1.419C1551.263,1039.635,1555.089,1038.783,1553.641,1033.811Z" transform="translate(-1460.688 -933.722)" fill="#777"/><path d="M1672.072,912.645a90.9,90.9,0,0,1-16.344-.471,19.527,19.527,0,0,0-1.792-13.35,58.838,58.838,0,0,0,6.417-1.236c2.139-.573-8.478-27.48-13.834-43.3-.428-5.116-.654-8.539-.654-8.539l.369.055c4.17.822,12.643,2.757,16.25,5.484C1667.364,854.973,1679.542,896.568,1672.072,912.645Z" transform="translate(-1537.835 -800.767)" fill="#09f" opacity="0.5"/><path d="M1586.309,861.108s14.346-6.321,14.559-6.818a11.358,11.358,0,0,0-1.7-5.468s6.889.639,7.315-.214.569-7.954.569-7.954a10.989,10.989,0,0,0-6.25-3.125s-3.109,7.709-4.261,10.014C1593.482,853.651,1586.309,861.108,1586.309,861.108Z" transform="translate(-1494.754 -794.824)" fill="#93b3f4"/><path d="M1554.382,848.683s.923,7.386,3.409,12.5c0,0-7.492-5.22-8.131-6.924s1.811-5.007,1.811-5.007-4.474-.106-4.581-1.6,1.385-7.351,1.385-7.351,3.658-2.774,4.724-2.667Z" transform="translate(-1466.236 -794.899)" fill="#93b3f4"/><path d="M1547.221,686.983a37.844,37.844,0,0,0,10.973-2.969c4.819-2.1,10.9.212,12.873,1.252a2.935,2.935,0,0,0-.481-1.187,2.649,2.649,0,0,1,1.017,1.507c.091.067.132.114.109.129a3.4,3.4,0,0,1,1.65.107s-.452-.064-.613.226a.268.268,0,0,1-.072.08c7.518,3.632,8.212,15.515,5.793,18.264-2.911,3.308-6.4,10.757-6.4,10.757a6.384,6.384,0,0,1-.744-4.671c.529-2.911-1.984-2.911-5.16-4.234s-.529-5.028-3.308-7.276-12.966-.927-12.834-2.646C1546.242,694.942,1547.221,687.37,1547.221,686.983Z" transform="translate(-1466.398 -683.163)" fill="#0d0d38"/><path d="M1606.5,1016.288a1.893,1.893,0,1,0,1.893,1.894A1.893,1.893,0,0,0,1606.5,1016.288Z" transform="translate(-1507.986 -924.129)" fill="#ed6966"/><g transform="translate(0 145.656)"><g transform="translate(46.4 132.482)"><path d="M1432.576,1691.536a4.942,4.942,0,1,1-6.489-2.6A4.943,4.943,0,0,1,1432.576,1691.536Z" transform="translate(-1423.088 -1688.537)" fill="#09f" opacity="0.5"/><path d="M1435.742,1691.536a4.943,4.943,0,1,1-6.489-2.6A4.942,4.942,0,0,1,1435.742,1691.536Z" transform="translate(-1425.378 -1688.537)" fill="#f8f8f8"/></g><g transform="translate(18.213 132.482)"><path d="M1330.693,1691.536a4.943,4.943,0,1,1-6.489-2.6A4.943,4.943,0,0,1,1330.693,1691.536Z" transform="translate(-1321.205 -1688.537)" fill="#09f" opacity="0.5"/><path d="M1333.859,1691.536a4.943,4.943,0,1,1-6.489-2.6A4.943,4.943,0,0,1,1333.859,1691.536Z" transform="translate(-1323.495 -1688.537)" fill="#f8f8f8"/></g><g transform="translate(29.651)" opacity="0.5"><path d="M1392.669,1263.266l-2.089-.424c2.825-13.918,8.118-41.223,7.927-44.934-.12-2.339-.837-4.03-2.132-5.023a6.984,6.984,0,0,0-5.094-.971l-.115.019-8.511.894c-10.078.254-10.868,8.588-10.9,8.943l-.014.109-7.1,38.954-2.1-.383,7.093-38.906a12.651,12.651,0,0,1,1.923-5.292c1.579-2.442,4.768-5.384,11-5.554l8.333-.879a9.008,9.008,0,0,1,6.765,1.363c1.823,1.39,2.825,3.616,2.979,6.616C1400.887,1222.7,1393,1261.612,1392.669,1263.266Z" transform="translate(-1362.546 -1209.659)" fill="#09f"/></g><path d="M1357.823,1383.646l-21.522-4.3-4.209,84.41-39.817,3.52,7.029,2.525a6.367,6.367,0,0,0,2.216.374l37.917-.388q.987.01,1.9-.019h.063c14.835-.506,15.554-8.592,15.554-8.592s4.8-54.3,5.9-63.975C1364.1,1386.2,1357.823,1383.646,1357.823,1383.646Z" transform="translate(-1282.065 -1332.4)" fill="#09f" opacity="0.5"/><path d="M1321.537,1394l-5.788,60.808a13.738,13.738,0,0,1-13.594,12.438l-19.961.124-.494,0-12.5.078a13.821,13.821,0,0,1-3.622-.457c-.27-.071-.535-.15-.8-.236a13.729,13.729,0,0,1-9.244-15.161l9.065-58.181a13.745,13.745,0,0,1,12.27-11.562l3.526-.337.841-.079h0l.707-.067,11.785-1.127,1.446-.138,11.373-1.086a13.732,13.732,0,0,1,5.119.47c.1.031.21.062.316.1l.657.225A13.745,13.745,0,0,1,1321.537,1394Z" transform="translate(-1255.369 -1332.116)" fill="#09f" opacity="0.5"/><path d="M1313.362,1658.722a13.733,13.733,0,0,1-11.145,5.822l-19.961.124-.493,0-12.5.077a13.827,13.827,0,0,1-3.622-.457q-.4-.107-.8-.237c-4.327-1.435-9.316-6.674-9.387-12.232,0,0,42.225-.552,51.05.811C1311.058,1653.337,1312.42,1656.521,1313.362,1658.722Z" transform="translate(-1255.431 -1529.419)" fill="#09f" opacity="0.5"/><g transform="translate(5.531 47.368)" opacity="0.5"><g transform="translate(0 1.88)"><path d="M1296.408,1387.676c-.088.054-9.346,5.7-10.563,10.652-1.251,5.094-9.609,64.466-9.693,65.065a13.766,13.766,0,0,0,4.521,10.06l-.634-.152q-.4-.106-.8-.236a12.353,12.353,0,0,1-3.836-9.774c.344-2.451,8.449-60.011,9.708-65.142,1.1-4.495,7.631-8.975,9.745-10.327l.841-.079h0Z" transform="translate(-1275.362 -1387.676)" fill="#09f"/></g><g transform="translate(19.486 0.616)"><path d="M1360.588,1383.1a18.022,18.022,0,0,0-7.5,11.9c-1.272,8.366-6.241,69.13-6.291,69.741l0,.045-.013.041c-.01.031-.719,3.311,1.326,5.538l-.5,0-.494,0a6.5,6.5,0,0,1-1.063-5.733c.155-1.879,5.033-61.453,6.295-69.751a18.743,18.743,0,0,1,6.8-11.648Z" transform="translate(-1345.796 -1383.105)" fill="#09f"/></g><g transform="translate(37.978)"><path d="M1426.4,1381.2a15.625,15.625,0,0,0-3.619,2.99,17.156,17.156,0,0,0-4.078,8.862c-1.272,8.361-5.212,68.923-5.252,69.532l0,.048-.014.043c-.009.031-.183,3.736,1.862,5.964l-1.257.008c-1.563-2.036-1.466-5.718-1.336-6.154.126-1.936,3.993-61.256,5.255-69.554a17.176,17.176,0,0,1,7.47-12.06c.105.03.21.061.316.1Z" transform="translate(-1412.64 -1380.88)" fill="#09f"/></g></g></g><path d="M1433.515,1193.83s-6.712,2.453-6.906,7.423c-.1,2.593.016,5.635,3.1,5.293,2.324-.258,1.291-2.84,3.228-4.131s5.938-5.938,6.067-8.133S1433.515,1193.83,1433.515,1193.83Z" transform="translate(-1379.219 -1052.079)" fill="#777"/></g></svg>