<svg xmlns="http://www.w3.org/2000/svg" width="118.962" height="340.75" viewBox="0 0 118.962 340.75"><g transform="translate(0)" opacity="0.5"><g transform="translate(36.379 251.094)"><path d="M3701.188,1504.918a10.061,10.061,0,0,1,4.6-8.7,39.1,39.1,0,0,1,24.113-6.079c18.9,1.2,23.094,11.7,23.694,19.8s6.9,19.8,8.4,28.794,4.006,31.888-9.379,33.685-58.243,0-58.243,0-10.451-12.251,0-35.785C3700.571,1522.665,3701.347,1511.048,3701.188,1504.918Z" transform="translate(-3680.633 -1483.628)" fill="#00008b"/><g transform="translate(0)"><g transform="translate(0 6.418)"><path d="M3727.123,1504.918a10.06,10.06,0,0,1,4.6-8.7,39.1,39.1,0,0,1,24.113-6.079c18.9,1.2,23.095,11.7,23.695,19.8s6.9,19.8,8.4,28.794,4.006,31.888-9.379,33.685-58.109.267-58.109.267-10.587-12.518-.135-36.052C3726.507,1522.665,3727.282,1511.048,3727.123,1504.918Z" transform="translate(-3715.697 -1490.046)" fill="#09f"/><path d="M3765.312,1637.928h-26.795s-1.8,19.6,11,20.2S3765.711,1650.526,3765.312,1637.928Z" transform="translate(-3699.878 -1585.95)" fill="#777"/><path d="M3765.312,1637.928s-4.6,7-13,6.8-13.8-6.8-13.8-6.8Z" transform="translate(-3699.878 -1585.95)" fill="#00008b"/><path d="M3857.016,1637.928h-26.794s-1.8,19.6,11,20.2S3857.416,1650.526,3857.016,1637.928Z" transform="translate(-3823.815 -1585.95)" fill="#777"/><path d="M3857.017,1637.928s-4.6,7-13,6.8-13.8-6.8-13.8-6.8Z" transform="translate(-3823.815 -1585.95)" fill="#00008b"/><path d="M12,0H26.244a12,12,0,0,1,12,12v0a12,12,0,0,1-12,12H12A12,12,0,0,1,0,12v0A12,12,0,0,1,12,0Z" transform="translate(17.194 12.837)" fill="#777"/><path d="M3807.234,1523.787s-6.375,9.7-18.017,9.424-19.124-9.424-19.124-9.424Z" transform="translate(-3752.898 -1511.928)" fill="#00008b"/></g><g transform="translate(26.33)"><path d="M3794.292,1480.974l3.58-.365a5.055,5.055,0,0,1,1.12-3.379c.974-1.111,2.591-1.734,4.8-1.837a6.4,6.4,0,0,1,4.832,1.373,5.591,5.591,0,0,1,1.551,3.627l3.6.015a9.224,9.224,0,0,0-2.634-6.214c-1.809-1.744-4.344-2.488-7.522-2.4-3.257.159-5.74,1.209-7.385,3.121A8.664,8.664,0,0,0,3794.292,1480.974Z" transform="translate(-3794.271 -1471.787)" fill="#09f"/></g></g></g><g transform="translate(0)"><path d="M3927.134,1676.42s.867,13.98,3.571,14.181c.361.026,13.719.026,13.719.026h17.244s-.3-4.208-5.288-5.076-13.328-4.372-16.347-10.96C3936.857,1667.66,3927.134,1676.42,3927.134,1676.42Z" transform="translate(-3926.151 -1350.484)" fill="#060632"/><path d="M3863.586,1369.024a35.548,35.548,0,0,0,9.231,1.735,33.888,33.888,0,0,0,8.618-1.23s.976-9.438,6.346-30.234c2.817-10.9,6.836-24.915,12.558-42.33,15.818-48.13,20.628-76.286,21.067-78.952.023-.14.033-.21.033-.21l-.052-.023-48.629-21.352s6.01,66.333-1.658,91.795a107.236,107.236,0,0,0-2.783,12.2C3863.474,1328.077,3863.586,1369.024,3863.586,1369.024Z" transform="translate(-3863.585 -1042.117)" fill="#00008b"/><path d="M3863.681,1300.421l19.465,38.874c2.817-10.9,6.836-24.915,12.557-42.33,15.818-48.13,20.627-76.286,21.066-78.952,0-.079-.008-.154-.018-.233l-48.63-21.352s6.01,66.333-1.657,91.795A107.126,107.126,0,0,0,3863.681,1300.421Z" transform="translate(-3858.95 -1042.117)" fill="#00008b"/><path d="M3818.655,1676.42s.866,13.98,3.571,14.181c.36.026,31.109.557,31.109.557a6.517,6.517,0,0,0-5.434-5.607c-4.985-.869-13.327-4.372-16.347-10.96C3828.377,1667.66,3818.655,1676.42,3818.655,1676.42Z" transform="translate(-3779.689 -1350.484)" fill="#060632"/><path d="M3890.548,1200.875a692.275,692.275,0,0,1-6.8,95.762c-7.437,52.778-4.917,75.182-4.917,75.182a50.672,50.672,0,0,1-7.171,1.823,32.549,32.549,0,0,1-10.641-1.231s-10.645-52.8-7.593-79.214-14.577-90.646-14.577-90.646Z" transform="translate(-3824.012 -1045.001)" fill="#00008b"/><path d="M3975.753,909.889s-25.113,25.5-26.336,35.415,12.12,25.43,12.12,25.43Z" transform="translate(-3948.039 -856.292)" fill="#00008b"/><path d="M3870.962,875.477l9.49,6.223,13.716-2.556c-.19-1.107-1.1-5.7-1.92-9.853-.049-.245-.1-.49-.146-.73-.707-3.537-1.317-6.575-1.317-6.575l-12.81-5.652-4.776-2.107c.012.074.37,3.925.42,4.487A32.656,32.656,0,0,1,3870.962,875.477Z" transform="translate(-3838.908 -820.194)" fill="#777"/><path d="M3888.649,897.775c-.267-.112-18.731-5-20.5-4.414s-2.811,4-2.811,4l26.581,6.009S3892.044,899.2,3888.649,897.775Z" transform="translate(-3834.687 -845.542)" fill="#00008b"/><path d="M3830.851,1013.93c2.755,12.566,48.6,14.056,60.415,2.649,1.344-1.3,1.41-7.349.9-15.5-.991-15.934-4.176-39.9-4.3-52.151a97.14,97.14,0,0,0-1.956-17.455,141.794,141.794,0,0,0-5.815-20.893s-22.391-7.238-26.58-6.007C3833.333,910.5,3828.1,1001.364,3830.851,1013.93Z" transform="translate(-3822.863 -852.75)" fill="#09f"/><path d="M3853.331,1046.582c-.991-15.935-4.176-39.9-4.3-52.151a97.1,97.1,0,0,0-1.956-17.455l-13.469-2.377S3820.437,1028.389,3853.331,1046.582Z" transform="translate(-3784.025 -898.257)" fill="#00008b"/><path d="M3847.922,1112.342a3.171,3.171,0,0,0,1.01,3.669c1.928,1.473,3.179,3.86,2.737,5.6s-4.672,4.59-6.137,4.132-4.122-1.645-4.129-3.678c0-.974-2.007-8.075,1.567-10.83S3847.922,1112.342,3847.922,1112.342Z" transform="translate(-3785.909 -986.228)" fill="#777"/><path d="M3784.17,914.478s13.18,1.85,23.647,17.275,17.353,26.894,15.425,32.453-19.5,24.841-22.534,24.841-7.92-2.2-8.2-7.161c0,0,11.724-18.595,9.287-21.372-1.042-1.187-15.415-13.335-17.56-7.826C3780.692,961.8,3784.17,914.478,3784.17,914.478Z" transform="translate(-3737.262 -859.268)" fill="#09f"/><path d="M3876.792,862.775c2.813,4.765,13.3,8.885,17.667,10.4-.05-.245-.1-.49-.146-.73-.707-3.537-1.316-6.575-1.316-6.575l-12.811-5.652C3877.355,860.18,3875.631,860.814,3876.792,862.775Z" transform="translate(-3841.118 -824.079)" fill="#777"/><path d="M3888.286,811.421s-20.635,6.437-24.446-6.475-9.041-20.778,3.973-25.433,17.04-.488,19.36,3.513S3893.555,809.414,3888.286,811.421Z" transform="translate(-3831.579 -770.408)" fill="#777"/><path d="M3902.547,768.773s-1.316,15.026-4.422,14.373-5.926-1.135-5.471,3.394,4.764,9.76-4.813,10.561-23.343-23.9-20.712-28.572C3874.719,755.037,3913.519,752.314,3902.547,768.773Z" transform="translate(-3847.764 -757.401)" fill="#0b0754"/></g></g></svg>