<svg xmlns="http://www.w3.org/2000/svg" width="113.467" height="351.176" viewBox="0 0 113.467 351.176"><g opacity="0.5"><path d="M4192.983,998.687s13.74-35.47,14.955-38.6,8.132-51.873,8.132-51.873l29.42-11.757s-16.575,62.641-19.809,70.514c-5.345,13.01-25.57,33.112-25.57,33.112,1.3,2.613-.078,6.005-3.163,8.232s-1.937,1.9-4.075,3.527-4.126-1.805-4.126-1.805C4184.64,1001.558,4192.983,998.687,4192.983,998.687Z" transform="translate(-4187.61 -843.869)" fill="#777"/><path d="M4336.914,887.29a92.9,92.9,0,0,1,33.379-8.668,23.066,23.066,0,0,1,23.591,15.772q.286.87.546,1.8c4.618,16.61,2.1,66.891-13.434,80.007s-44.082,7.582-44.082,7.582Z" transform="translate(-4283.037 -832.43)" fill="#0d0d38"/><path d="M4218.234,1222.4s1.666,20.785,3.624,45.769c2.661,33.94,12.792,118.506,12.792,118.506s-2.147,3.371,8.276,1.175c0,0,12.774-28.8,15.426-61.938.042-.543.083-1.09.124-1.637,2.468-33.729,6.306-104.755,6.306-104.755Z" transform="translate(-4207.183 -1050.353)" fill="#09f" opacity="0.5"/><path d="M4216.659,1207.595s2.234,27.967,4.191,52.951l36.494,57.743c.041-.543.083-1.09.124-1.637,2.467-33.729,6.306-104.755,6.306-104.755Z" transform="translate(-4206.177 -1042.731)" fill="#00008b"/><path d="M4239.215,1183.913l62.727,180.475s6.56-1.236,8.031-4.135c0,0,1.8-76.325-8.821-94.739-6-10.4-10.194-39.59-9.479-49.445,1.4-19.313-4.354-37.293-4.354-37.293Z" transform="translate(-4220.593 -1024.313)" fill="#09f" opacity="0.5"/><g transform="translate(1.294 332.59)" opacity="0.5"><path d="M4227.138,1690.909h-5.107c-1.71-.27-2.974-.765-4.728-.994-2.665-.349-3.891.743-4.135.994a.63.63,0,0,0-.047.051h-21.694c-.546-.779-.022-2.585.491-3.913a3.089,3.089,0,0,1,2.032-1.857c2.3-.666,6.836-1.259,10.989-5.02,2.337-2.111,11.284-7.764,11.284-7.764l.048-.011c.2,0,1.131.291,5.2,3.727,2.1,1.773,5.688-2.5,5.688-2.5a5.105,5.105,0,0,1,1.177,1.594,5.392,5.392,0,0,1,.465,3.331c-.324,1.955.721,5.587,1.555,8.044.506,1.489.931,2.544.931,2.544S4231.531,1690.359,4227.138,1690.909Z" transform="translate(-4191.195 -1672.396)" fill="#09f"/><path d="M4227.128,1716.118h-5.085c-1.711-.27-2.987-.838-4.741-1.067-2.665-.349-3.891.743-4.135.994a.615.615,0,0,0-.047.051h-21.694c-.546-.779-.022-2.585.491-3.913.659-.586.845,2.544,1.209,3.043s17.7.182,18.7-.546,4-2,8.19-1c3.643.87,9.012-1.361,10.341-1.955.506,1.489.931,2.545.931,2.545S4231.522,1715.569,4227.128,1716.118Z" transform="translate(-4191.195 -1697.533)" fill="#09f"/></g><g transform="translate(53.44 332.59)" opacity="0.5"><path d="M4371.646,1690.909h-5.107c-1.71-.27-2.974-.765-4.728-.994-2.665-.349-3.891.743-4.135.994a.63.63,0,0,0-.047.051h-21.694c-.546-.779-.021-2.585.492-3.913a3.09,3.09,0,0,1,2.031-1.857c2.3-.666,6.835-1.259,10.989-5.02,2.338-2.111,11.284-7.764,11.284-7.764l.047-.011c.2,0,1.132.291,5.2,3.727,2.1,1.773,5.689-2.5,5.689-2.5a5.1,5.1,0,0,1,1.175,1.594,5.392,5.392,0,0,1,.467,3.331c-.325,1.955.72,5.587,1.554,8.044.505,1.489.932,2.544.932,2.544S4376.039,1690.359,4371.646,1690.909Z" transform="translate(-4335.703 -1672.396)" fill="#09f"/><path d="M4371.637,1716.118h-5.085c-1.711-.27-2.986-.838-4.741-1.067-2.665-.349-3.891.743-4.135.994a.615.615,0,0,0-.047.051h-21.694c-.546-.779-.021-2.585.492-3.913.659-.586.844,2.544,1.209,3.043s17.7.182,18.7-.546,4-2,8.189-1c3.645.87,9.013-1.361,10.342-1.955.505,1.489.932,2.545.932,2.545S4376.031,1715.569,4371.637,1716.118Z" transform="translate(-4335.703 -1697.533)" fill="#09f"/></g><path d="M4289.239,850.394s-20.326,10-32.075,6.3a28.185,28.185,0,0,1,7.933-6.468c-.287-1.71-.518-3.273-.7-4.664a73.033,73.033,0,0,1-.677-7.9l12.458-10.042,2.793-2.252a35.581,35.581,0,0,0,.381,6.625c.024.161.047.321.074.478C4281.453,844.553,4289.239,850.394,4289.239,850.394Z" transform="translate(-4232.065 -798.43)" fill="#777"/><path d="M4272.687,992.867c.06,1.295-2.606,2.717-3.764,3.236a98.844,98.844,0,0,1-15.13,5.537,66.851,66.851,0,0,1-10.892,1.974c-10.884,1.118-23.746-1.335-28.159-1.275a1.917,1.917,0,0,1-1.235-.468c-.294-.237-.529-13.531-.294-30.3,0-.646,0-1.355.057-2v-.234c.06-6.532.3-13.414.592-20.237.646-15.06,1.821-29.592,3.824-37.653,2.352-9.469,7.763-15.706,12.7-20.293l3.512-3.494a.945.945,0,0,1,.84-.256,19.436,19.436,0,0,0,12.355-1.369c4.647-2.292,9.707-4.764,10.529-4.175,9.647,7.207,14.448,28.5,14.357,52.715,0,.763-.01,1.533-.02,2.3-.043,2.5-.134,5.029-.278,7.572a324.437,324.437,0,0,0,.643,42.353C4272.506,989.395,4272.646,991.449,4272.687,992.867Z" transform="translate(-4203.912 -834.484)" fill="#fff"/><g transform="translate(10.571 121.495)"><path d="M2.26,0h.68A2.261,2.261,0,0,1,5.2,2.261v0A2.259,2.259,0,0,1,2.942,4.521H2.259A2.259,2.259,0,0,1,0,2.261v0A2.26,2.26,0,0,1,2.26,0Z" transform="translate(2.748 1.481) rotate(-16.543)" fill="#3a49cd"/><path d="M4230.238,1094.422l6.277,21.137a2.721,2.721,0,0,1-1.828,3.374l-8.021,2.382a2.722,2.722,0,0,1-3.375-1.829l-6.277-21.137a2.721,2.721,0,0,1,1.829-3.374l8.021-2.382A2.721,2.721,0,0,1,4230.238,1094.422Z" transform="translate(-4216.902 -1090.652)" fill="#dde8fd"/><path d="M4231.361,1100.233l6.022,20.281a2.721,2.721,0,0,1-1.829,3.374l-8.021,2.382a2.723,2.723,0,0,1-3.375-1.829l-5.9-19.865a17.778,17.778,0,0,1,5.871-1.083C4226.043,1103.626,4229.641,1101.39,4231.361,1100.233Z" transform="translate(-4217.77 -1095.607)" fill="#fff"/><rect width="13.802" height="13.826" transform="translate(0.928 10.446) rotate(-16.54)" fill="#3a49cd"/></g><path d="M4334.825,1047c.06,1.295-2.606,2.717-3.764,3.236a98.839,98.839,0,0,1-15.131,5.537c-14.036-45.348,2.771-89.3,2.771-89.3l15.4,24.542c-.043,2.5-.134,5.029-.277,7.572a324.351,324.351,0,0,0,.643,42.353C4334.644,1043.527,4334.785,1045.581,4334.825,1047Z" transform="translate(-4266.051 -888.617)" fill="#09f" opacity="0.5"/><path d="M4306.142,919.124c5.033-2.982,15.137-8.393,23.484-9.248a2.717,2.717,0,0,0,2.211-3.789c-2.639-6.027-10.09-18.642-19.165-24.5-.852-.551-1.494-.072-2.378.424-3.351,1.879-10.561,7.437-11,13.99-.394,5.828,1.6,15.937,2.813,21.376A2.718,2.718,0,0,0,4306.142,919.124Z" transform="translate(-4258.958 -834.206)" fill="#fff"/><path d="M4291.146,836.271s-.034.064-.1.184c-.785,1.409-6.156,10.49-15.029,13.093a72.927,72.927,0,0,1-.676-7.9L4287.8,831.6a34.926,34.926,0,0,1,3.175,4.374Z" transform="translate(-4243.682 -802.418)" fill="#777"/><path d="M4258.673,801.8s19.4,3.223,21.226-8.892,5.553-19.858-6.759-22.428-15.42,1.69-17.012,5.585S4253.672,800.646,4258.673,801.8Z" transform="translate(-4230.609 -762.85)" fill="#777"/><path d="M4276.878,756.366a3,3,0,0,1,1.589-2.128,3.63,3.63,0,0,0-2.141,1.051,11.218,11.218,0,0,0-1.006-3.891,23.844,23.844,0,0,1-.128,2.846c-8.411-8.494-28.025.819-32.053,2.675-7.079,3.263-3.109,9.317,1.419,10.8s15.8-3.283,15.953-.159,2.265,6.559,3.436,6.637,2.029-2.421,3.513-.781-1.093,4.243-1.093,4.243c-1.541,2.815,1.628,7.1,1.628,7.1s1.026.6,2.822-1.431C4272.556,781.367,4285.209,768.758,4276.878,756.366Z" transform="translate(-4220.632 -750.726)" fill="#12123c"/><g transform="translate(35.452 50.362)"><path d="M4318.877,953.238l.6-3.7a32.853,32.853,0,0,1-21.63-12.846,41.849,41.849,0,0,1-7.814-19.165c-1.784-13.267,1.708-20.819,10.675-23.088,8.032-2.033,17.315,4.244,17.407,4.308l2.125-3.087c-.435-.3-10.758-7.306-20.45-4.854-7.558,1.911-16.03,8.186-13.47,27.221a45.269,45.269,0,0,0,8.542,20.93A36.5,36.5,0,0,0,4318.877,953.238Z" transform="translate(-4285.854 -890.288)" fill="#0d0d38"/></g><path d="M4234.829,1019.215c3.6-.9,10.47.262,11.852.512,0,0,24.822-17.411,29.171-21.762,3.149-3.148-9.484-17.345-16.064-28.373a2.778,2.778,0,0,0,1-.353c5.031-2.983,15.137-8.4,23.482-9.251a2.722,2.722,0,0,0,.884-.244c5.7,12.308,11.573,28.457,12.8,44.606,0,0-20.964,20.464-47.46,24.06,0,0-15.831,4.02-18.34,3.852s-3.514-3.513-3.847-5.354S4230.813,1020.218,4234.829,1019.215Z" transform="translate(-4213.603 -884.319)" fill="#777"/></g></svg>