<svg xmlns="http://www.w3.org/2000/svg" width="40" height="40" viewBox="0 0 40 40"><g transform="translate(-61 -773)"><path d="M20,0a20,20,0,0,1,0,40H0V20A20,20,0,0,1,20,0Z" transform="translate(61 773)" fill="#09f"/><path d="M6.875,10.625A3.125,3.125,0,1,0,3.75,7.5,3.129,3.129,0,0,0,6.875,10.625Zm13.75-5h-8.75a.625.625,0,0,0-.625.625v5.625H2.5V3.75a.625.625,0,0,0-.625-.625H.625A.625.625,0,0,0,0,3.75V17.5a.625.625,0,0,0,.625.625h1.25A.625.625,0,0,0,2.5,17.5V15.625h20V17.5a.625.625,0,0,0,.625.625h1.25A.625.625,0,0,0,25,17.5V10A4.375,4.375,0,0,0,20.625,5.625Z" transform="translate(69 782.875)" fill="#fff"/></g></svg>