<svg xmlns="http://www.w3.org/2000/svg" width="363.231" height="286.849" viewBox="0 0 363.231 286.849"><g transform="translate(-926.599 -2461.898)"><g transform="translate(1125 2482.524)" opacity="0.5"><g transform="translate(80.497 141.941)"><path d="M5079.44,1692.136a4.776,4.776,0,0,0,2.708,6.394,5.262,5.262,0,0,0,6.759-2.562,4.777,4.777,0,0,0-2.708-6.394A5.263,5.263,0,0,0,5079.44,1692.136Z" transform="translate(-5016.391 -1574.642)" fill="#09f" opacity="0.5"/><path d="M4951.276,1692.118a4.775,4.775,0,0,0,2.708,6.394,5.262,5.262,0,0,0,6.759-2.561,4.776,4.776,0,0,0-2.708-6.395A5.264,5.264,0,0,0,4951.276,1692.118Z" transform="translate(-4925.164 -1574.629)" fill="#09f" opacity="0.5"/><path d="M4979.815,1685.618l-7.321,2.488a6.994,6.994,0,0,1-2.31.369l-41.546-.4-4.536-7.114Z" transform="translate(-4906.118 -1568.728)" fill="#2b276a"/><g transform="translate(9.082)"><path d="M4934.236,1319.375l-11.605-27.291-.014-.052c-.071-.244-1.877-6.105-12.335-7.416l-.048-.007-8.6-1.534c-1.11-.277-4.322-.742-5.792.432a2.634,2.634,0,0,0-.807,2.492c.215,2.289,7.939,19.984,13.078,31.32l-1.645.667c-1.32-2.912-12.907-28.544-13.216-31.837a4.2,4.2,0,0,1,1.439-3.939c2.4-1.914,6.894-.9,7.371-.78l8.482,1.51c11.261,1.42,13.563,7.864,13.791,8.6l11.566,27.2Z" transform="translate(-4893.218 -1281.056)" fill="#2b276a"/></g><path d="M4889.536,1388.8l-22.42,4.24s-6.538,2.516-5.241,13.353c1.141,9.536,6.144,63.045,6.144,63.045s1.044,11.135,26.186,7.905Z" transform="translate(-4861.704 -1358.563)" fill="#2b276a"/><path d="M4914.983,1403.245l6.03,59.924a13.061,13.061,0,0,0,2.551,6.52,14.557,14.557,0,0,0,11.61,5.736l20.794.122.514,0,13.024.076a15.129,15.129,0,0,0,3.772-.451c.281-.069.557-.147.831-.233a13.957,13.957,0,0,0,9.261-9.154,12.784,12.784,0,0,0,.369-5.786l-9.444-57.335a14.01,14.01,0,0,0-12.782-11.394l-3.672-.332-.876-.078h0l-.735-.066-12.278-1.111-1.507-.136-11.847-1.07a15.1,15.1,0,0,0-5.333.463c-.109.03-.219.061-.329.1l-.685.221A13.524,13.524,0,0,0,4914.983,1403.245Z" transform="translate(-4899.582 -1358.288)" fill="#09f" opacity="0.5"/><path d="M4944.92,1660.3a14.558,14.558,0,0,0,11.611,5.737l20.794.122.514,0,13.024.076a15.128,15.128,0,0,0,3.772-.451c.281-.069.557-.147.831-.233,4.507-1.414,9.706-6.577,9.779-12.054,0,0-43.988-.544-53.183.8C4947.321,1654.992,4945.9,1658.129,4944.92,1660.3Z" transform="translate(-4920.937 -1548.897)" fill="#010117"/><g transform="translate(24.669 30.657)"><g transform="translate(31.978 1.853)"><path d="M5058.256,1396.9c.091.053,9.736,5.612,11,10.5,1.3,5.02,10.01,63.529,10.1,64.12a13.182,13.182,0,0,1-4.711,9.913l.661-.15c.281-.069.557-.147.831-.233a11.769,11.769,0,0,0,4-9.632c-.358-2.416-8.8-59.139-10.113-64.194-1.15-4.429-7.949-8.844-10.153-10.176l-.876-.078h0Z" transform="translate(-5058.256 -1396.896)" fill="#2b276a"/></g><g transform="translate(18.193 0.607)"><path d="M5010.425,1392.455a17.767,17.767,0,0,1,7.814,11.724c1.324,8.244,6.5,68.125,6.553,68.727l0,.044.013.04a6.368,6.368,0,0,1-1.381,5.458l.522,0,.515,0a6.121,6.121,0,0,0,1.106-5.649c-.161-1.852-5.243-60.56-6.558-68.738a18.348,18.348,0,0,0-7.083-11.479Z" transform="translate(-5010.425 -1392.455)" fill="#2b276a"/></g><path d="M4947.3,1390.609a16.162,16.162,0,0,1,3.77,2.946,16.535,16.535,0,0,1,4.249,8.733c1.324,8.24,5.429,67.922,5.471,68.522l0,.047.015.042c.009.03.19,3.682-1.94,5.878l1.31.008c1.629-2.006,1.527-5.634,1.392-6.065-.131-1.908-4.161-60.366-5.475-68.543a16.945,16.945,0,0,0-7.782-11.885c-.109.03-.219.061-.329.1Z" transform="translate(-4947.299 -1390.292)" fill="#2b276a"/></g></g><path d="M4743.019,776.761c-2.622-1.563-6.811.305-6.811.305,1.449-1.982,6.733-1.334,6.733-1.334-10.525-2.181-12.723,4.372-12.9,4.985-7.634-6.709-19.858,7.593-19.858,7.593l17.542,22.641s1.6-3.6,3.713-2.477c3.295,1.753,9.67-5.342,7.633-14.675a24.233,24.233,0,0,0-.779-2.776,5.8,5.8,0,0,0,2.188.528c1.918,0,4.815-4.764,5.207-6.366S4745.642,778.324,4743.019,776.761Z" transform="translate(-4673.35 -775.289)" fill="#0b0754"/><path d="M4799.6,1000.174c-.387.917-2.074,1.731-4.5,2.318-5.444,1.32-14.623,1.493-21.317-.922-7.179-2.588-12.385-39.535-14.6-58.47-.772-6.605-1.181-11.021-1.181-11.021s4.123-6.286,20.083-4.19,17.57,7.333,19,16.762S4800.852,997.2,4799.6,1000.174Z" transform="translate(-4707.39 -884.754)" fill="#0b0754"/><path d="M4798.013,1013.692c-5.445,1.32-14.625,1.493-21.318-.922-7.179-2.588-12.386-39.535-14.6-58.47,1.891-6.516,3.392-10.8,3.392-10.8s20.037-2.357,23.938,3.536C4792.913,952.3,4797.155,1003.035,4798.013,1013.692Z" transform="translate(-4710.306 -895.955)" fill="#09f" opacity="0.5"/><path d="M4640.66,1006.99c-11.834.351-28.87-12.92-28.87-12.92l2.332-3.491c4.3,2.792,19.545,5.411,19.545,5.411-1.068-3.358-1.885-6.464-2.494-9.33-4.137-19.473,1.37-27.885,2.972-29.841a4.87,4.87,0,0,1,.417-.463s.048.136.137.395c.2.558.586,1.684,1.1,3.235C4639.652,971.535,4650.55,1006.7,4640.66,1006.99Z" transform="translate(-4603.318 -905.541)" fill="#777"/><path d="M4725.508,981.3c-5.488-11.986-8.115-15.375-8.206-19.146-.073-2.982,1.437-6.2,4.371-14.09a28.726,28.726,0,0,0,1.46-5.7c2.32-15.211-6.712-31.654-12.326-32.774-1.562-.4-4.21-5.9-4.178-14.749l-.7.135-11.822,2.279s.269,3.623.278,7.036c.008,2.844-.168,5.54-.831,5.88-.851.075-1.354.124-1.354.124s-9.857,13.33-10.685,25.728,7.893,17.784-.066,42.558C4673.32,1003.876,4728.54,987.92,4725.508,981.3Z" transform="translate(-4652.317 -861.284)" fill="#777"/><path d="M4727.384,897.593s.27,3.623.278,7.036c6.615-.182,10.111-6.058,11.544-9.315Z" transform="translate(-4685.598 -861.63)" fill="#f8f8f8"/><path d="M4722.042,830.221s3.466-5.334,4.3-9.9c.595-3.256-1.108-15.326-13.564-13.588a17.219,17.219,0,0,0-7.018,2.584c-2.7,1.779-6.607,5.618-2.243,16.151l1.133,3.558Z" transform="translate(-4667.212 -797.789)" fill="#0d0d38"/><path d="M4706.846,849.031s15.651.252,15.662-9.242,2.038-15.855-7.955-16.417-11.938,3.059-12.733,6.227S4702.775,848.721,4706.846,849.031Z" transform="translate(-4667.269 -809.835)" fill="#777"/><path d="M4721.73,817.746s4.285,11.138,10.862,12.785,9.43-.069,9.43-.069a18.067,18.067,0,0,1-6.092-10.714S4724.963,812.445,4721.73,817.746Z" transform="translate(-4681.573 -804.443)" fill="#0b0754"/><path d="M4705.844,821.259s-3.2,2.486-3.98,4.9-1.132,7.394-2.621,7.225c0,0-3.229-7.57.4-11.853C4703.489,816.994,4705.844,821.259,4705.844,821.259Z" transform="translate(-4664.625 -807.051)" fill="#0b0754"/><path d="M4709.87,1326.074a148.126,148.126,0,0,1-9.865,26.947l-5.162-.349a138.555,138.555,0,0,0,2.386-27.568c-.1-11.076-1.508-24.165-6-36.664-15.443-42.95-12.948-74.208-12.948-74.208l29.042,3.308,1.353.154c.121,12.988.466,30.622.767,44.411.266,12.4.5,21.691.5,21.691C4715.523,1295.507,4713.5,1312.036,4709.87,1326.074Z" transform="translate(-4650.539 -1091.045)" fill="#00008b"/><path d="M4818.445,1031.1l-4.7,1.372s-15.5-25.043-16.909-31.56c-.46-2.121-1.587-6.367-2.9-11.123-2.722-9.85-6.234-21.9-6.234-21.9l-1.157-4.879-3.946-16.639s7.555.752,11.974,2.551a5.474,5.474,0,0,1,2.97,2.137c3.247,6.951,6.488,24.493,8.764,37.007,1.271,6.974,2.239,12.388,2.745,13.535C4810.458,1004.8,4814.765,1022.41,4818.445,1031.1Z" transform="translate(-4724.898 -898.356)" fill="#777"/><path d="M4761.5,1308.372c-1.67,17.354-9.023,28.576-9.023,28.576l-2.465,1.746s-2.333-12.226-3.985-26.773c-1.573-13.826-3.73-28.456-6.169-32.922-9.687-17.71-12.6-84.566-12.6-84.566l29.446-1.422c2.96,4.848,4.252,12.8,4.558,21.841.774,22.817-4.733,52.57-5.556,56.872a.015.015,0,0,1,0,.01,1.467,1.467,0,0,0,.194.962C4761.755,1283.989,4762.6,1296.909,4761.5,1308.372Z" transform="translate(-4685.509 -1075.78)" fill="#09f"/><path d="M4723.352,819.482s3.052,11.664,11.352,15.4c0,0-8.3-7.166-9-14.866S4723.352,819.482,4723.352,819.482Z" transform="translate(-4682.728 -804.898)" fill="#0d0d38"/><path d="M4895.043,1245.572s1.429,3.278,2.917,4.193a8.086,8.086,0,0,1,3.209,4.879,4.335,4.335,0,0,1-3.867,5.26c-1.879,0-3.675-2.495-4.779-8.452-.061-.328-1.844-3.745-1.844-3.745Z" transform="translate(-4801.832 -1113.59)" fill="#777"/><path d="M4715.911,1028.123a6.627,6.627,0,0,1-.182,2.292c-.626,1.92-2.779,2.795-7.98,2.271-3.179-.322-4.6-5.511-5.229-9.937q-2.865,9.5-8.039,10.633c-5.043,1.092-30.48,4.1-32.146-7.671-1.832-12.951,3.653-35.883,3.954-48.248a59.715,59.715,0,0,1-.922-11.458c.212-8.808,2.868-13.745,4.908-15.732.578-.432,1.157-.7,3.478-1.09,1.186-.2,2.829-.424,5.159-.723a9,9,0,0,1,.929-.071c-.431.749-6.192,9.244-5.744,11.429.471,2.287,20.9.228,22.313-1.029s3.639-10.89,3.639-10.89,7.235.77,10.774,3.277l-.038.044a2.931,2.931,0,0,1,.931.953c3.776,7,7.547,24.669,10.2,37.272a19.3,19.3,0,0,1-13.786,1.967C4710.406,1005.927,4715.572,1021.51,4715.911,1028.123Z" transform="translate(-4639.03 -899.457)" fill="#f8f8f8"/><path d="M4593.258,1054.389c-.179-.437-2.421-6.9-4.125-7.771s-4.841-1.834-5.559-1.484-2.062,5.238,0,7.77,7.351,4.976,7.351,4.976Z" transform="translate(-4582.454 -969.35)" fill="#777"/><path d="M4687.285,949.9l-.032.052c-.694,1.069-11.549,17.965-12.59,28.951a59.632,59.632,0,0,1-.922-11.458c1.4-4.151,4.785-13.373,8.386-16.822C4682.578,950.185,4687.285,949.9,4687.285,949.9Z" transform="translate(-4647.405 -900.894)" fill="#0b0754"/><g transform="translate(0 70.846)"><path d="M4599.716,1041.917l-7.176,2.327a.458.458,0,0,1-.575-.28l-4.556-13.324a.44.44,0,0,1,.287-.56l7.177-2.327a.457.457,0,0,1,.574.28l4.556,13.324A.44.44,0,0,1,4599.716,1041.917Z" transform="translate(-4585.947 -1027.73)" fill="#f8f8f8"/><path d="M4594.3,1044.027l-6.509,2.111a.811.811,0,0,1-1.02-.5l-4.334-12.675a.782.782,0,0,1,.51-.993l6.51-2.11a.811.811,0,0,1,1.019.5l4.334,12.675A.781.781,0,0,1,4594.3,1044.027Z" transform="translate(-4582.396 -1029.235)" fill="#09f" opacity="0.5"/></g><path d="M4807.861,1604.069c-1.669,17.354-9.022,28.576-9.022,28.576l-2.51,2.226s-2.29-12.707-3.94-27.253C4794.129,1607.741,4801.8,1608.013,4807.861,1604.069Z" transform="translate(-4731.868 -1371.476)" fill="#777"/><path d="M4751.151,1610.264a148.073,148.073,0,0,1-9.866,26.948l-5.161-.349a138.49,138.49,0,0,0,2.385-27.568C4740.261,1610.154,4743.875,1611.027,4751.151,1610.264Z" transform="translate(-4691.819 -1375.236)" fill="#777"/><g transform="translate(29.247 254.559)"><path d="M4707.069,1693.971h-3.3c-1.1-.169-1.919-.48-3.051-.624a3.109,3.109,0,0,0-2.668.624.425.425,0,0,0-.03.032h-14c-.352-.49-.014-1.624.317-2.459a1.975,1.975,0,0,1,1.311-1.166c1.485-.418,4.41-.791,7.09-3.154,1.507-1.326,7.28-4.878,7.28-4.878l.031-.006c.127,0,.73.182,3.356,2.342,1.357,1.114,3.67-1.573,3.67-1.573a3.218,3.218,0,0,1,.759,1,3.308,3.308,0,0,1,.3,2.093c-.208,1.228.465,3.51,1,5.054.326.935.6,1.6.6,1.6S4709.9,1693.626,4707.069,1693.971Z" transform="translate(-4683.877 -1682.34)" fill="#0d0d38"/><path d="M4747.722,1684.11a10.551,10.551,0,0,1-3.548,1.743c-1.487.19-4.268-3.506-4.268-3.506l.031-.006c.127,0,.73.182,3.356,2.342,1.357,1.114,3.67-1.573,3.67-1.573A3.218,3.218,0,0,1,4747.722,1684.11Z" transform="translate(-4723.758 -1682.34)" fill="#0b0754"/><path d="M4707.069,1716.827h-3.3c-1.1-.169-1.919-.48-3.051-.624a3.109,3.109,0,0,0-2.668.624c-.021.021-.03.032-.03.032h-14c-.352-.49-.014-1.624.317-2.458.426-.368.545,1.6.78,1.912s11.418.114,12.065-.343a6.908,6.908,0,0,1,5.284-.629c2.352.546,5.815-.855,6.672-1.228.326.935.6,1.6.6,1.6S4709.9,1716.482,4707.069,1716.827Z" transform="translate(-4683.877 -1705.195)" fill="#0b0754"/></g><g transform="translate(46.831 254.559)"><path d="M4768.081,1693.971h-3.295c-1.1-.169-1.919-.48-3.051-.624a3.11,3.11,0,0,0-2.668.624c-.021.021-.031.032-.031.032h-14c-.352-.49-.014-1.624.317-2.459a1.975,1.975,0,0,1,1.311-1.166c1.485-.418,4.41-.791,7.091-3.154,1.509-1.326,7.281-4.878,7.281-4.878l.03-.006c.126,0,.73.182,3.356,2.342,1.358,1.114,3.671-1.573,3.671-1.573a3.221,3.221,0,0,1,.758,1,3.31,3.31,0,0,1,.3,2.093c-.209,1.228.464,3.51,1,5.054.327.935.6,1.6.6,1.6S4770.915,1693.626,4768.081,1693.971Z" transform="translate(-4744.89 -1682.34)" fill="#0d0d38"/><path d="M4808.735,1684.11a10.556,10.556,0,0,1-3.548,1.743c-1.487.19-4.268-3.506-4.268-3.506l.03-.006c.127,0,.73.182,3.356,2.342,1.358,1.114,3.672-1.573,3.672-1.573A3.23,3.23,0,0,1,4808.735,1684.11Z" transform="translate(-4784.772 -1682.34)" fill="#0b0754"/><path d="M4768.081,1716.827h-3.295c-1.1-.169-1.919-.48-3.051-.624a3.11,3.11,0,0,0-2.668.624c-.021.021-.031.032-.031.032h-14c-.352-.49-.014-1.624.317-2.458.425-.368.545,1.6.78,1.912s11.419.114,12.065-.343a6.908,6.908,0,0,1,5.284-.629c2.351.546,5.815-.855,6.672-1.228.327.935.6,1.6.6,1.6S4770.915,1716.482,4768.081,1716.827Z" transform="translate(-4744.89 -1705.195)" fill="#0b0754"/></g><path d="M4799.878,1104.674c-3.494-1.136-7.978-4.159-13.363-10.934-14.254-17.941-1.21-39.024.539-39.417s5.04,13.64,5.04,13.64C4794.373,1082.478,4799.54,1098.061,4799.878,1104.674Z" transform="translate(-4722.997 -976.008)" fill="#777"/><path d="M4783.263,943.29a39.278,39.278,0,0,0-15.419,29.683c-1.076,20.166,17.572,24.27,17.572,24.27l-1.21-6.373s-15.106-5.326-11.162-21.389,17.382-25.327,17.382-25.327Z" transform="translate(-4714.365 -896.141)" fill="#0b0754"/><path d="M4584.887,1042.851s1.344-2.706,3.81-1.615,1.39,5.194-.044,6.635a14.224,14.224,0,0,0-1.838,2.1Z" transform="translate(-4584.169 -966.413)" fill="#777"/></g><g transform="translate(926.599 2461.898)" opacity="0.5"><path d="M3181.5,956.356s5.374,2.9,6.41,6.292,1.295,42.772,2.979,46.269,3.282,23.575.692,33.246c0,0,1.994,8.593,1.364,10.277s-5.753,3.757-7.6,3.627-2.784-10.837-.759-13.9Z" transform="translate(-3065.818 -902.523)" fill="#777"/><path d="M3241.506,817.639c3.33-2.905,4.125-7.754,4.293-10.57-.659,5-5.156,9.405-5.156,9.405,5.354-6.346-3.281-29.577,10.239-35.449,8.851-3.844,15.372-1.324,18.822.876,7.72-1.046,16.981,10.081,16.981,10.081l-18.478,24.492s-1.32-3.047-3.166-2.908c1.005,3.88,1.6,7.047-.343,9.038-9.619,9.884-5.693,14.679-11.189,16.373C3246.787,841.05,3233.389,824.72,3241.506,817.639Z" transform="translate(-3176.883 -779.033)" fill="#09f"/><path d="M3190.756,952.473s5.923.373,8.969,3.87,3.451,32,3.451,32a4.107,4.107,0,0,1-4.377,2.932C3195.259,991.015,3190.756,952.473,3190.756,952.473Z" transform="translate(-3078.737 -899.819)" fill="#09f" opacity="0.5"/><path d="M3287.169,1006.118c.408.992,2.185,1.873,4.742,2.508,5.735,1.428,15.4,1.615,22.456-1,7.563-2.8,13.047-42.766,15.378-63.25.813-7.145,1.244-11.922,1.244-11.922s-4.344-6.8-21.156-4.533-18.509,7.932-20.019,18.132S3285.849,1002.9,3287.169,1006.118Z" transform="translate(-3235.706 -882.4)" fill="#00008b"/><path d="M3290.889,1019.469c5.735,1.428,15.4,1.615,22.456-1,7.563-2.8,13.047-42.767,15.379-63.25-1.992-7.049-3.573-11.687-3.573-11.687s-21.107-2.55-25.215,3.825C3296.261,953.06,3291.794,1007.94,3290.889,1019.469Z" transform="translate(-3234.684 -893.243)" fill="#3a49cd"/><path d="M3209.552,988.365c5.782-12.966,8.548-16.632,8.644-20.712.077-3.226-1.513-6.707-4.6-15.242a31.824,31.824,0,0,1-1.539-6.17c-2.444-16.454,7.071-34.242,12.986-35.453,1.645-.435,4.435-6.378,4.4-15.955l.741.146,12.452,2.465s-.283,3.919-.292,7.611c-.008,3.077.178,5.993.875,6.36.9.081,1.426.135,1.426.135s10.383,14.42,11.257,27.831-8.315,19.237.068,46.037C3264.526,1012.79,3206.358,995.529,3209.552,988.365Z" transform="translate(-3138.055 -859.678)" fill="#777"/><path d="M3268.633,897.78s-.283,3.919-.292,7.611c-6.968-.2-10.652-6.553-12.161-10.076Z" transform="translate(-3164.055 -860.013)" fill="#777"/><path d="M3234.983,832.154s-3.652-5.77-4.528-10.7c-.625-3.523,1.168-16.579,14.289-14.7a17.822,17.822,0,0,1,7.393,2.795c2.849,1.924,6.96,6.078,2.363,17.471l-1.194,3.849Z" transform="translate(-3144.145 -798.208)" fill="#09f"/><path d="M3247.11,851.133s-16.486.272-16.5-10-2.147-17.151,8.379-17.759,12.575,3.309,13.413,6.736S3251.4,850.8,3247.11,851.133Z" transform="translate(-3140.206 -809.87)" fill="#777"/><path d="M3271.9,817.9s-4.514,12.049-11.441,13.83-9.933-.074-9.933-.074a19.622,19.622,0,0,0,6.417-11.59S3268.494,812.169,3271.9,817.9Z" transform="translate(-3165.604 -804.649)" fill="#09f"/><path d="M3226.712,821.407s3.372,2.69,4.194,5.306,1.191,8,2.761,7.815c0,0,3.4-8.189-.421-12.822C3229.193,816.794,3226.712,821.407,3226.712,821.407Z" transform="translate(-3121.537 -807.175)" fill="#09f"/><path d="M3210.645,1335.216a162.943,162.943,0,0,0,10.392,29.15l5.437-.377a153.772,153.772,0,0,1-2.513-29.822c.109-11.981,1.59-26.141,6.324-39.661,16.269-46.461,13.639-80.274,13.639-80.274l-30.593,3.579-1.425.167c-.127,14.05-.49,33.125-.807,48.042-.281,13.415-.527,23.464-.527,23.464C3204.689,1302.15,3206.826,1320.031,3210.645,1335.216Z" transform="translate(-3124.55 -1082.112)" fill="#00008b"/><path d="M3247.17,1070.339c3.09,8.535,4.681,12.016,4.6,15.242,9.849-15.249,27.639-17.55,27.639-17.55l-33.782-3.862A31.831,31.831,0,0,0,3247.17,1070.339Z" transform="translate(-3171.632 -977.606)" fill="#de8181"/><path d="M3311.394,1038.028l4.95,1.484s16.327-27.09,17.812-34.14c.485-2.295,1.672-6.887,3.057-12.032,2.868-10.656,6.568-23.694,6.568-23.694l1.218-5.278,4.156-18s-7.958.813-12.613,2.76a5.778,5.778,0,0,0-3.127,2.312c-3.421,7.52-6.834,26.5-9.234,40.032-1.338,7.545-2.358,13.4-2.89,14.642C3319.806,1009.576,3315.271,1028.627,3311.394,1038.028Z" transform="translate(-3261.339 -895.568)" fill="#777"/><path d="M3256.488,1317.8c1.76,18.773,9.5,30.912,9.5,30.912l2.6,1.888s2.458-13.226,4.2-28.961c1.657-14.956,3.93-30.782,6.5-35.613,10.2-19.158,13.272-91.479,13.272-91.479l-31.017-1.539c-3.12,5.244-4.479,13.845-4.8,23.626-.816,24.682,4.986,56.867,5.853,61.521a.021.021,0,0,0,0,.011,1.624,1.624,0,0,1-.2,1.04C3256.222,1291.426,3255.33,1305.4,3256.488,1317.8Z" transform="translate(-3187.944 -1067.333)" fill="#00008b"/><path d="M3264.1,819.73s-3.216,12.617-11.957,16.658c0,0,8.741-7.752,9.482-16.081S3264.1,819.73,3264.1,819.73Z" transform="translate(-3158.302 -805.09)" fill="#09f"/><path d="M3197.081,1034.681a7.353,7.353,0,0,0,.193,2.479c.66,2.077,2.927,3.023,8.406,2.456,3.348-.349,4.842-5.961,5.508-10.749q3.018,10.276,8.468,11.5c5.312,1.182,32.109,4.439,33.862-8.3,1.929-14.01-3.848-38.817-4.166-52.192a66.141,66.141,0,0,0,.973-12.395c-.224-9.528-3.02-14.868-5.171-17.018-.607-.468-1.217-.76-3.662-1.179-1.249-.213-2.98-.459-5.434-.782a9.207,9.207,0,0,0-.979-.076c.453.81,6.523,10,6.049,12.363-.5,2.474-22.019.246-23.5-1.113s-3.833-11.781-3.833-11.781-8.337.208-12.065,2.919c0,0-1.075,1.357-1.268,1.723-3.979,7.573-6.908,26.667-9.7,40.3a19.854,19.854,0,0,0,14.523,2.128C3202.88,1010.67,3197.438,1027.527,3197.081,1034.681Z" transform="translate(-3129.472 -896.633)" fill="#09f" opacity="0.5"/><path d="M3202.521,949.9s.011.02.033.057c.731,1.156,12.166,19.433,13.261,31.317a66.158,66.158,0,0,0,.973-12.395c-1.47-4.49-5.04-14.466-8.834-18.2C3207.479,950.208,3202.521,949.9,3202.521,949.9Z" transform="translate(-3095.935 -898.025)" fill="#3a49cd"/><path d="M3321.184,1604.069c1.759,18.773,9.5,30.912,9.5,30.912l2.644,2.408s2.411-13.745,4.151-29.481C3335.649,1608.041,3327.569,1608.336,3321.184,1604.069Z" transform="translate(-3252.639 -1353.599)" fill="#777"/><path d="M3264.918,1610.344a162.894,162.894,0,0,0,10.393,29.15l5.437-.377a153.666,153.666,0,0,1-2.513-29.822C3276.39,1610.225,3272.582,1611.168,3264.918,1610.344Z" transform="translate(-3178.823 -1357.239)" fill="#777"/><g transform="translate(90.535 274.232)"><path d="M3215.494,1694.922h3.471c1.164-.183,2.021-.52,3.214-.675a3.217,3.217,0,0,1,2.81.675.365.365,0,0,1,.032.035h14.744c.371-.53.015-1.756-.333-2.66a2.1,2.1,0,0,0-1.381-1.261c-1.563-.452-4.646-.856-7.469-3.412-1.588-1.434-7.669-5.277-7.669-5.277l-.032-.007c-.133,0-.769.2-3.535,2.533-1.43,1.2-3.867-1.7-3.867-1.7a3.469,3.469,0,0,0-.8,1.083,3.663,3.663,0,0,0-.317,2.263c.22,1.328-.49,3.8-1.056,5.467-.344,1.011-.633,1.73-.633,1.73S3212.508,1694.549,3215.494,1694.922Z" transform="translate(-3212.672 -1682.34)" fill="#0d0d38"/><path d="M3268.7,1684.255a11,11,0,0,0,3.739,1.885c1.566.205,4.5-3.793,4.5-3.793l-.033-.007c-.133,0-.769.2-3.535,2.533-1.43,1.2-3.867-1.7-3.867-1.7A3.469,3.469,0,0,0,3268.7,1684.255Z" transform="translate(-3266.693 -1682.34)" fill="#0b0754"/><path d="M3215.494,1717.049h3.471c1.164-.182,2.021-.52,3.214-.675a3.218,3.218,0,0,1,2.81.675.381.381,0,0,1,.032.035h14.744c.371-.53.015-1.757-.333-2.66-.449-.4-.574,1.729-.823,2.068s-12.027.124-12.708-.371a7.115,7.115,0,0,0-5.566-.68c-2.476.591-6.125-.925-7.028-1.329-.344,1.012-.633,1.73-.633,1.73S3212.508,1716.676,3215.494,1717.049Z" transform="translate(-3212.672 -1704.466)" fill="#0b0754"/></g><g transform="translate(72.013 274.232)"><path d="M3276.505,1694.922h3.471c1.163-.183,2.021-.52,3.214-.675a3.22,3.22,0,0,1,2.811.675.282.282,0,0,1,.031.035h14.745c.371-.53.015-1.756-.334-2.66a2.1,2.1,0,0,0-1.381-1.261c-1.563-.452-4.646-.856-7.469-3.412-1.588-1.434-7.669-5.277-7.669-5.277l-.033-.007c-.133,0-.769.2-3.535,2.533-1.43,1.2-3.866-1.7-3.866-1.7a3.468,3.468,0,0,0-.8,1.083,3.663,3.663,0,0,0-.317,2.263c.22,1.328-.49,3.8-1.056,5.467-.344,1.011-.633,1.73-.633,1.73S3273.519,1694.549,3276.505,1694.922Z" transform="translate(-3273.684 -1682.34)" fill="#0d0d38"/><path d="M3329.715,1684.255a11,11,0,0,0,3.738,1.885c1.566.205,4.495-3.793,4.495-3.793l-.032-.007c-.134,0-.769.2-3.535,2.533-1.43,1.2-3.866-1.7-3.866-1.7A3.472,3.472,0,0,0,3329.715,1684.255Z" transform="translate(-3327.707 -1682.34)" fill="#0b0754"/><path d="M3276.505,1717.049h3.471c1.163-.182,2.021-.52,3.214-.675a3.222,3.222,0,0,1,2.811.675.292.292,0,0,1,.031.035h14.745c.371-.53.015-1.757-.334-2.66-.448-.4-.574,1.729-.822,2.068s-12.028.124-12.709-.371a7.114,7.114,0,0,0-5.566-.68c-2.476.591-6.126-.925-7.029-1.329-.344,1.012-.633,1.73-.633,1.73S3273.519,1716.676,3276.505,1717.049Z" transform="translate(-3273.684 -1704.466)" fill="#0b0754"/></g><path d="M3308.72,1108.791c3.68-1.23,8.4-4.5,14.075-11.828,15.016-19.407,1.275-42.214-.567-42.639s-5.309,14.755-5.309,14.755C3314.52,1084.78,3309.077,1101.637,3308.72,1108.791Z" transform="translate(-3241.111 -970.743)" fill="#00008b"/><path d="M3303.863,946.369s13.191,9.359,14.324,31.174-18.511,26.254-18.511,26.254l1.276-6.894s15.912-5.761,11.757-23.137a49.1,49.1,0,0,0-16.116-26.326Z" transform="translate(-3225.925 -895.568)" fill="#3a49cd"/><path d="M3310.029,1311.271l13.867,2.365s2.961,1.017,2.636,10.461c-.177,5.166,0,12.614.188,18.3a6.7,6.7,0,0,1-7.825,6.82l-8.758-1.493a1.7,1.7,0,0,1-1.417-1.745Z" transform="translate(-3238.097 -1149.691)" fill="#00008b"/><path d="M3342.131,1304.371a49.21,49.21,0,0,1,2.307-7.138,14.553,14.553,0,0,0,.6-1.959c.816-3.377.9-7.557,1.673-10.8,0,0,.853-10.662,14.715-7.4,3.194.751,7.009,1.565,11.107,2.381,3.236-1.93,10.775-5.723,17.785-4.09,6.054,1.41,9.769,6.024,11.635,9.1,3.471.47,6.462.805,8.661.95,9.8.642,10.715,8.5,9.475,13.133a23.807,23.807,0,0,0-.514,3.285c-.767,7.315,2.186,16.709-1.808,21.233-.929,1.052-55.663-9.528-71.109-12.125A5.511,5.511,0,0,1,3342.131,1304.371Zm47.628-26.6c-4.7-1.1-9.9.736-13.381,2.43,7.466,1.427,15.493,2.8,22.255,3.792A15.854,15.854,0,0,0,3389.759,1277.773Z" transform="translate(-3342.002 -1124.407)" fill="#09f" opacity="0.5"/><path d="M3426.118,1245.572s-1.506,3.546-3.073,4.536-4.124,5.063-3.463,6.889c.34.939,3.063,3.8,6.184,3.5,1.97-.188,3.3-8.988,3.876-10.638s1.072-1.979,1.072-1.979Z" transform="translate(-3375.711 -1103.937)" fill="#777"/></g></g></svg>