<svg xmlns="http://www.w3.org/2000/svg" width="408.042" height="290.229" viewBox="0 0 408.042 290.229"><g transform="translate(-66 -2458.515)"><g transform="translate(66 2458.515)" opacity="0.5"><path d="M2090.632,851.654a12.631,12.631,0,0,0,5.721-1.26c20.58-10.217,1.475-80.413,1.475-80.413a8.713,8.713,0,0,0-4.714-4.858,14.526,14.526,0,0,0-8.383-.72c-10.83,1.8-12.917,6.3-13.349,8.816C2070.916,775.774,2061.129,851.51,2090.632,851.654Z" transform="translate(-1992.07 -727.603)" fill="#09f" opacity="0.5"/><path d="M2084.635,853.184c20.58-10.217,1.475-80.413,1.475-80.413a8.713,8.713,0,0,0-4.714-4.858c-7.951,2.087-9.606,5.864-10.038,8.1C2070.963,778.384,2062.543,843.4,2084.635,853.184Z" transform="translate(-1980.352 -730.392)" fill="#0d0d38"/><g transform="translate(58.038 130.33)"><path d="M2205.83,1634.725s-4.689,4.346-3.774,7.434,5.147,5.147,5.719,8.921,2.859,5.833,4.917,5.833h9.815s1.515-2.656-2.145-3.457-5.04-5.236-4.811-9.353a73.725,73.725,0,0,0-.343-9.607l-7.777-1.83Z" transform="translate(-2201.937 -1497.596)" fill="#0d0d38"/><path d="M1943.817,1674.747s-1.144,9.15.915,10.179,26.648.687,26.648.687,0-3.088-4.232-3.775-11.666-3.2-12.924-8.806S1943.817,1674.747,1943.817,1674.747Z" transform="translate(-1882.396 -1525.768)" fill="#0d0d38"/><path d="M2002.513,1148.545s-1.39,17.338-3.023,38.178c-2.22,28.31-4.89,63.084-5.154,69.672-.456,11.44-2.288,29.738-2.288,29.738s-4.344,4.347-13.038,2.515c0,0-7.747-26.121-9.96-53.758-.034-.453-.069-.909-.1-1.366-2.059-28.135-5.259-87.379-5.259-87.379Z" transform="translate(-1918.849 -1139.282)" fill="#09f" opacity="0.5"/><path d="M2002.513,1148.545s-1.39,17.338-3.023,38.178l-30.44,48.166c-.034-.453-.069-.909-.1-1.366-2.059-28.135-5.259-87.379-5.259-87.379Z" transform="translate(-1918.849 -1139.282)" fill="#00008b"/><path d="M2061.193,1131.426s-25.047,62.789-41.516,92.3-21.616,37.742-21.616,37.742-9.436-3.774-10.294-6.347c0,0,6.3-56.966,17.328-70.852,6.232-7.847,13.552-31.394,13.9-39.629s2.23-24.532,2.23-24.532Z" transform="translate(-1983.875 -1120.103)" fill="#09f" opacity="0.5"/></g><path d="M1872.8,1087.783l3.392,4.041a5.884,5.884,0,0,0,2.5,1.7c2.006.739,5.311,2.807,3.88,8.228,0,0-1.08,3.123-3.087,2.135s-1.019-.9-3.9-2.234a6.629,6.629,0,0,1-3.966-4.453,5.845,5.845,0,0,0-2.64-3.6l-4.113-2.776Z" transform="translate(-1715.177 -965.97)" fill="#777"/><path d="M2031.541,737.384a73.546,73.546,0,0,0,1.148-10.473l-12.708-10.242c.472,14.082-8.552,20.854-8.552,20.854s16.935,8.336,26.724,5.248A23.461,23.461,0,0,0,2031.541,737.384Z" transform="translate(-1909.031 -692.653)" fill="#777"/><path d="M2028.168,679.9s-16.167,2.686-17.685-7.408-4.626-16.545,5.631-18.687,12.847,1.408,14.174,4.653S2032.334,678.943,2028.168,679.9Z" transform="translate(-1901.517 -645.876)" fill="#777"/><path d="M1940.751,899a27.648,27.648,0,0,0,3.766-5.1s-18.369-22.822-19.862-25.189-12.649-40.328-12.649-40.328l-28.211-5.715s23.547,48.581,27.448,54.5c6.446,9.787,25.732,24.353,25.732,24.353A11.614,11.614,0,0,0,1940.751,899Z" transform="translate(-1781.762 -770.718)" fill="#00008b"/><path d="M1958.376,873.584c-.036.576.612,1.223,1.367,1.727a13.163,13.163,0,0,0,1.763.972q3.239,1.457,6.368,2.591a58.6,58.6,0,0,0,15.292,3.633c5.721.577,12.09,0,16.947-.467,2.734-.325,4.966-.576,6.332-.576h.18a1.57,1.57,0,0,0,1.044-.4c.216-.144.4-8.707.288-20.221,0-1.62-.035-3.275-.035-5a13.187,13.187,0,0,0-.073-1.69v-.181c-.036-5.4-.216-11.117-.469-16.765V837.1c-.539-12.556-1.51-24.646-3.2-31.373-1.943-7.881-6.477-13.062-10.578-16.911l-3.383-2.987a6.826,6.826,0,0,1-.863.144,15.76,15.76,0,0,1-9.679-1.4c-3.85-1.906-8.095-3.993-8.779-3.489-.072.072-.18.144-.252.216a16.118,16.118,0,0,0-3.238,3.526c-.072.035-.072.035-.072.072h-.036a28.138,28.138,0,0,0-2.231,3.886,46.692,46.692,0,0,0-2.878,7.807c-2.2,7.88-3.275,17.809-3.239,28.424,0,2.7.072,5.432.252,8.2.036.793.072,1.548.109,2.3.323,6.872.287,13.241.107,18.817v.179c-.179,5.65-.5,10.435-.756,14C1958.52,870.669,1958.412,872.4,1958.376,873.584Z" transform="translate(-1864.886 -740.034)" fill="#09f"/><path d="M2086.133,952.33a270.218,270.218,0,0,0,.537-35.286c-.157-2.771-.24-5.521-.25-8.227,3.348-8.123,6.085-14.013,6.085-14.013h8.44S2107.133,937.067,2086.133,952.33Z" transform="translate(-1992.361 -823.845)" fill="#00008b"/><path d="M1996.811,651.177s1.659-.277,1.391-2.563-.264-5.272,1.594-4.715,1.95,2.044,2.714,1.176.777-4.529,6.306-4.783,7.775,1.669,10.345.539,2.706-5.021,2.706-5.021a4.421,4.421,0,0,1-1.835,1.831s4.289-5.866-.677-9.889-10.028-1.389-12.9-1.215c-6.331.383-10.421.763-12.49,4.924S1992.748,647.172,1996.811,651.177Z" transform="translate(-1887.857 -625.53)" fill="#0b0754"/><g transform="translate(0 137.192)"><path d="M2416.594,1681.991a5.944,5.944,0,0,1-3.19,7.83,6.064,6.064,0,0,1-7.92-3.155,5.945,5.945,0,0,1,3.19-7.83A6.063,6.063,0,0,1,2416.594,1681.991Z" transform="translate(-2391.671 -1538.109)" fill="#09f" opacity="0.5"/><path d="M2252.252,1682.291a5.944,5.944,0,0,1-3.19,7.83,6.064,6.064,0,0,1-7.919-3.155,5.945,5.945,0,0,1,3.19-7.831A6.062,6.062,0,0,1,2252.252,1682.291Z" transform="translate(-2184.022 -1538.329)" fill="#09f" opacity="0.5"/><path d="M2206.282,1673.646l8.579,3.066a7.855,7.855,0,0,0,2.706.457l48.713-.4,5.334-8.707Z" transform="translate(-2193.842 -1530.528)" fill="#2b276a"/><g transform="translate(38.342)"><path d="M2167.677,1193.022l13.671-33.42.017-.064c.083-.3,2.215-7.478,14.48-9.06l.056-.009,10.089-1.86c1.3-.337,5.069-.9,6.791.542a3.314,3.314,0,0,1,.941,3.056c-.259,2.8-9.355,24.473-15.406,38.354l1.927.822c1.554-3.566,15.2-34.952,15.569-38.987a5.28,5.28,0,0,0-1.678-4.832c-2.813-2.352-8.081-1.113-8.64-.973l-9.949,1.831c-13.207,1.714-15.92,9.607-16.19,10.513l-13.624,33.307Z" transform="translate(-2165.731 -1146.142)" fill="#2b276a"/></g><path d="M2131.357,1286.655l26.278,5.248s7.659,3.1,6.114,16.377c-1.36,11.684-7.35,77.25-7.35,77.25s-1.25,13.644-30.719,9.628Z" transform="translate(-2064.941 -1249.627)" fill="#2b276a"/><path d="M2274.858,1304.345l-7.209,73.426a16.426,16.426,0,0,1-3.006,7.985,16.828,16.828,0,0,1-13.626,7l-24.381.1-.6,0-15.269.063a17.008,17.008,0,0,1-4.423-.561c-.329-.086-.653-.182-.973-.287a16.749,16.749,0,0,1-10.838-11.24,16.341,16.341,0,0,1-.418-7.092l11.2-70.246a16.71,16.71,0,0,1,15.014-13.935l4.308-.4,1.027-.094h0l.863-.079,14.4-1.333,1.767-.162,13.894-1.284a16.956,16.956,0,0,1,6.251.58c.128.037.257.074.385.117l.8.273A16.592,16.592,0,0,1,2274.858,1304.345Z" transform="translate(-2193.903 -1249.249)" fill="#09f" opacity="0.5"/><path d="M2303.686,1640.222a16.828,16.828,0,0,1-13.626,7l-24.38.1-.6,0-15.269.063a17.006,17.006,0,0,1-4.423-.561q-.494-.129-.974-.287c-5.282-1.744-11.363-8.083-11.437-14.8,0,0,51.575-.566,62.352,1.1C2300.884,1633.713,2302.54,1637.561,2303.686,1640.222Z" transform="translate(-2232.945 -1503.716)" fill="#010117"/><g transform="translate(6.746 37.546)"><g transform="translate(0 2.2)"><path d="M2403.483,1296.97c-.107.065-11.428,6.855-12.926,12.84-1.539,6.149-11.885,77.834-11.988,78.558a16.525,16.525,0,0,0,5.5,12.161l-.774-.185q-.494-.129-.974-.287a14.818,14.818,0,0,1-4.664-11.814c.426-2.959,10.458-72.457,12.006-78.65,1.358-5.426,9.341-10.821,11.927-12.448l1.027-.094h0Z" transform="translate(-2377.603 -1296.97)" fill="#2b276a"/></g><g transform="translate(23.787 0.704)"><path d="M2334.52,1291.294a21.762,21.762,0,0,0-9.188,14.351c-1.573,10.1-7.781,83.476-7.844,84.214l0,.053-.016.049c-.011.037-.886,4,1.607,6.692l-.612,0-.6,0a7.78,7.78,0,0,1-1.284-6.926c.193-2.268,6.287-74.207,7.848-84.225a22.6,22.6,0,0,1,8.33-14.051Z" transform="translate(-2316.262 -1291.294)" fill="#2b276a"/></g><g transform="translate(46.378)"><path d="M2252.312,1289.013a19.069,19.069,0,0,0-4.427,3.6,20.625,20.625,0,0,0-5,10.694c-1.573,10.1-6.523,83.228-6.574,83.964l0,.057-.017.052c-.012.037-.233,4.512,2.26,7.207l-1.536.006c-1.9-2.462-1.779-6.909-1.617-7.436.158-2.338,5.017-73.971,6.577-83.99a20.74,20.74,0,0,1,9.151-14.548c.128.037.258.074.385.117Z" transform="translate(-2235.312 -1288.622)" fill="#2b276a"/></g></g></g><path d="M2209.576,1097.809l-3.144,7.4a3.709,3.709,0,0,0,0,2.8c.773,1.993,1.408,5.84-3.6,8.353,0,0-3.056,1.256-3.643-.9s0-1.362-.9-4.4c-.793-2.658-.269-5.24,1.337-6.56a2.847,2.847,0,0,0,.906-1.935l.5-4.716Z" transform="translate(-2129.6 -973.354)" fill="#777"/><path d="M2063.8,875.875a27.64,27.64,0,0,0,6.333.352s9.023-27.871,10.184-30.418,26.8-32.681,26.8-32.681l-10.68-26.729s-27.731,46.321-30.546,52.83c-4.653,10.756-6.268,34.87-6.268,34.87A11.616,11.616,0,0,0,2063.8,875.875Z" transform="translate(-1990.692 -744.007)" fill="#09f"/><path d="M2033.225,865.161v.179a28.693,28.693,0,0,0,11.909-6.009c6.3-5.144,10.578-12.665,13.277-20.544,4.173-12.268,4.5-25.437,2.374-31.914a11.081,11.081,0,0,0-.971-2.157,15.852,15.852,0,0,0-2.951-3.67,20.646,20.646,0,0,0-11.333-5.109,24.943,24.943,0,0,0-2.555-.216c-1.007-.037-1.655,0-1.834,0h-.036a28.126,28.126,0,0,0-2.231,3.886,16.238,16.238,0,0,1,1.835-.072,18.212,18.212,0,0,1,6.585.9,13.253,13.253,0,0,1,6.944,5.109c4.461,6.259,3.49,15.219,3.49,15.219a74.763,74.763,0,0,1-2.015,12.628,47.577,47.577,0,0,1-8.923,18.782c-6.44,7.986-13.472,9.72-13.472,9.72Z" transform="translate(-1938.693 -750.861)" fill="#0d0d38"/></g><g transform="translate(233.225 2565.53)" opacity="0.5"><path d="M2514.444,1205.543s-11.489-5.229-20.18-.654-3.378,42.333,9.051,45.993h0S2530,1283.314,2514.444,1205.543Z" transform="translate(-2489.984 -1157.848)" fill="#0d0d38"/><path d="M2399.546,1194.488c.566-4.417-.535-12.425-.535-12.425s3.9-.2,6.087,4.943c4.529,10.66,2.563,33.67,2.288,36.964,0,0,1.556,6.542-.755,17.856a19.43,19.43,0,0,0,1.076,2.263,1.38,1.38,0,0,1,.112.146h0a1.335,1.335,0,0,1,.02,1.449l-1.5,2.371a1.321,1.321,0,0,1-.566.495h0a1.343,1.343,0,0,1-.232.082l-1.853.438-.183-6.315s.011,0,.021,0C2402.892,1236.541,2399.026,1198.542,2399.546,1194.488Zm4.787,48.727.039-.051-.079.047C2404.313,1243.218,2404.329,1243.22,2404.333,1243.215Z" transform="translate(-2354.744 -1142.419)" fill="#777"/><path d="M2502.634,1703.085l1.477,5.329h12.474S2520.3,1701.6,2502.634,1703.085Z" transform="translate(-2490.915 -1525.986)" fill="#0d0d38"/><path d="M2401.125,1703.085l1.477,5.329h12.475S2418.79,1701.6,2401.125,1703.085Z" transform="translate(-2362.656 -1525.986)" fill="#0d0d38"/><path d="M2425.795,1048.021a10.513,10.513,0,0,1,1.812-8.655c1.555-2.409,3.741-2.514,5.841-4.554a13.52,13.52,0,0,1,8.6-3.184c9.386,0,17.514,5.746,15.662,15.49-.589,3.1-.092,5.536-2.6,9.155-3.132,4.517-6.941,8.143-13.06,8.143a11.706,11.706,0,0,1-8.6-3.115c-1.364-1.289-3.319-1.447-4.519-2.85C2426.5,1055.615,2426.685,1051.88,2425.795,1048.021Z" transform="translate(-2411.65 -1031.627)" fill="#0b0754"/><path d="M2464.384,1123.99s-2.059,7.96,2.1,11.346l-11.7,5.98-1.54-7.739a38.118,38.118,0,0,0,1.6-14.466Z" transform="translate(-2427.479 -1096.057)" fill="#777"/><path d="M2454.156,1094.665s-11.975,1.459-12.23-6.977,4.736-13.9,8.067-13.838c6.643.124,7.739,2.808,8.509,5.6S2459.668,1094.071,2454.156,1094.665Z" transform="translate(-2416.95 -1062.723)" fill="#777"/><path d="M2431.621,1394.791l-23.664,1.956s-2.779,41.5,12.77,79.979l13.259-.252Z" transform="translate(-2382.99 -1299.09)" fill="#00008b"/><path d="M2458.987,1403.84s-7.281,28.285-1.376,79.9l16.062,0,7.7-67.018c.294-1.985,4.026-4.749,4.026-4.749l.145-7.658Z" transform="translate(-2447.078 -1305.754)" fill="#09f" opacity="0.5"/><path d="M2394.9,1192.624l-1.548-12.709c.235-.328.423-.61.657-.891,2.72-3.33,13.179-4.783,15.289-5.018a2.384,2.384,0,0,0,.391.5c1.922,1.735,4.533,3.584,8,3.114,2.954-.375,3.437-1.922,3.343-3.611a32.953,32.953,0,0,1,9.711,2.979c6.307,2.364,7.574,23.318,7.574,23.318-.837-.25-5.024.484-6.966.846l.783,31.06c-15.055,6.566-36.723,2.345-36.723,2.345l.047-.187,1.454-24.857-1.36-11.35Z" transform="translate(-2383.529 -1136.485)" fill="#008"/><path d="M2453.249,1132.4s.261,1.052,2.883.858c0,0,2.2-.162,2.121-1.321A7.09,7.09,0,0,0,2453.249,1132.4Z" transform="translate(-2419.246 -1105.318)" fill="#fff"/><path d="M2529.626,1283.087c-1.024,1.281-6.069,1.732-9.1.8l1.477-24.822-2.031-16.884,1.962-.911s8.616,6.911,7.609,12.421S2530.944,1281.44,2529.626,1283.087Z" transform="translate(-2508.605 -1186.028)" fill="#f8f8f8"/><path d="M2503.491,1193.891a75,75,0,0,1,9.521,4.267,4.416,4.416,0,0,1,1.172.891l9.1-18.1,1.735-3.423,1.595-3.236.141-.282s-.126.008-.375.047a53.551,53.551,0,0,0-5.627.938,36.166,36.166,0,0,0-4.878,1.407h-.046a10.987,10.987,0,0,0-4.362,2.626c-.235.281-.422.563-.657.891C2507.76,1184.276,2503.491,1193.891,2503.491,1193.891Z" transform="translate(-2500.985 -1136.485)" fill="#777"/><path d="M2483.892,1230.269s32.408-34.659,11.725-49.995a21.855,21.855,0,0,0-4.267-2.533,36.137,36.137,0,0,0-4.878,1.407,15.638,15.638,0,0,1,7.41,4.549c5.018,5.58,7.363,17.447-9.708,42.162Z" transform="translate(-2471.583 -1139.237)" fill="#09f" opacity="0.5"/><path d="M2478.342,1072.777s-10.233-.006-7.882,7.019c1.482,4.428-3.446,5.117-3.446,5.117l-2.372-7.1,1.485-5.529Z" transform="translate(-2442.335 -1061.571)" fill="#0b0754"/><path d="M2484.3,1249.717c3.162.977,7.938,3.1,9.392,4.531-1.608,3.7-2.513,6.144-2.513,6.144,1.209-.537,7.461-1.045,10.7-1.277.367-.027,3.332-1,3.332-1s.024-5.061,5.813-5.461c0,0,2.411.014,1.917,1.661s-.547.931-1.192,3.269-2.327,4.116-4.117,4.224c-8.594,7.226-20.428,7.284-24,7.119a1.423,1.423,0,0,1-1.323-1.094C2480.961,1261.961,2481.888,1255.87,2484.3,1249.717Z" transform="translate(-2481.494 -1192.246)" fill="#777"/></g><g transform="translate(384.177 2469.621)" opacity="0.5"><path d="M4191.865,977.422s10.882-28.092,11.844-30.571,6.44-41.082,6.44-41.082l23.3-9.311s-13.127,49.611-15.688,55.846c-4.233,10.3-20.251,26.224-20.251,26.224,1.026,2.069-.062,4.756-2.5,6.52s-1.534,1.507-3.228,2.794-3.268-1.43-3.268-1.43C4185.258,979.7,4191.865,977.422,4191.865,977.422Z" transform="translate(-4187.61 -854.808)" fill="#777"/><path d="M4336.914,885.474a73.571,73.571,0,0,1,26.436-6.865,18.268,18.268,0,0,1,18.684,12.491q.227.689.433,1.428c3.657,13.155,1.663,52.977-10.64,63.365s-34.912,6.005-34.912,6.005Z" transform="translate(-4294.244 -842.025)" fill="#0d0d38"/><path d="M4218.234,1221.8s1.319,16.461,2.87,36.249c2.107,26.88,10.131,93.855,10.131,93.855s-1.7,2.67,6.555.931c0,0,10.117-22.813,12.217-49.054.033-.43.065-.864.1-1.3,1.955-26.713,4.995-82.964,4.995-82.964Z" transform="translate(-4209.482 -1085.542)" fill="#09f" opacity="0.5"/><path d="M4216.659,1207.595s1.77,22.149,3.319,41.937l28.9,45.732c.033-.43.065-.864.1-1.3,1.954-26.713,4.994-82.964,4.994-82.964Z" transform="translate(-4208.357 -1077.025)" fill="#00008b"/><path d="M4239.215,1182.845l49.679,142.934s5.2-.979,6.36-3.275c0,0,1.429-60.448-6.986-75.032-4.756-8.24-8.073-31.355-7.507-39.159,1.109-15.3-3.449-29.536-3.449-29.536Z" transform="translate(-4224.466 -1056.443)" fill="#09f" opacity="0.5"/><g transform="translate(1.025 263.406)" opacity="0.5"><path d="M4219.661,1687.058h-4.045c-1.354-.214-2.355-.606-3.744-.787a3.75,3.75,0,0,0-3.275.787.5.5,0,0,0-.038.041h-17.181c-.432-.617-.017-2.047.389-3.1a2.447,2.447,0,0,1,1.609-1.47c1.821-.528,5.414-1,8.7-3.976,1.851-1.671,8.937-6.149,8.937-6.149l.038-.008c.155,0,.9.231,4.12,2.952,1.666,1.4,4.5-1.983,4.5-1.983a4.04,4.04,0,0,1,.932,1.263,4.266,4.266,0,0,1,.369,2.638c-.256,1.548.571,4.425,1.231,6.371.4,1.179.737,2.015.737,2.015S4223.141,1686.622,4219.661,1687.058Z" transform="translate(-4191.195 -1672.396)" fill="#09f"/><path d="M4219.654,1715.2h-4.027c-1.355-.214-2.365-.663-3.754-.845a3.75,3.75,0,0,0-3.275.787.512.512,0,0,0-.038.041h-17.181c-.432-.617-.017-2.047.389-3.1.522-.464.669,2.015.958,2.41s14.016.144,14.809-.433a8.293,8.293,0,0,1,6.486-.792c2.885.689,7.138-1.078,8.19-1.548.4,1.179.737,2.015.737,2.015S4223.133,1714.77,4219.654,1715.2Z" transform="translate(-4191.195 -1700.485)" fill="#09f"/></g><g transform="translate(42.324 263.406)" opacity="0.5"><path d="M4364.169,1687.058h-4.045c-1.354-.214-2.355-.606-3.745-.787a3.751,3.751,0,0,0-3.275.787.5.5,0,0,0-.038.041h-17.181c-.432-.617-.017-2.047.39-3.1a2.446,2.446,0,0,1,1.608-1.47c1.822-.528,5.414-1,8.7-3.976,1.852-1.671,8.937-6.149,8.937-6.149l.038-.008c.155,0,.9.231,4.12,2.952,1.666,1.4,4.506-1.983,4.506-1.983a4.047,4.047,0,0,1,.931,1.263,4.272,4.272,0,0,1,.37,2.638c-.257,1.548.57,4.425,1.231,6.371.4,1.179.738,2.015.738,2.015S4367.648,1686.622,4364.169,1687.058Z" transform="translate(-4335.703 -1672.396)" fill="#09f"/><path d="M4364.162,1715.2h-4.027c-1.355-.214-2.365-.663-3.755-.845a3.751,3.751,0,0,0-3.275.787.512.512,0,0,0-.038.041h-17.181c-.432-.617-.017-2.047.39-3.1.521-.464.668,2.015.958,2.41s14.016.144,14.808-.433a8.292,8.292,0,0,1,6.486-.792c2.887.689,7.138-1.078,8.191-1.548.4,1.179.738,2.015.738,2.015S4367.642,1714.77,4364.162,1715.2Z" transform="translate(-4335.703 -1700.485)" fill="#09f"/></g><path d="M4282.567,845.188s-16.1,7.923-25.4,4.987a22.322,22.322,0,0,1,6.283-5.122c-.227-1.354-.41-2.592-.553-3.694a57.822,57.822,0,0,1-.536-6.259l9.866-7.953,2.212-1.783a28.194,28.194,0,0,0,.3,5.247c.019.127.038.254.059.379A23.3,23.3,0,0,0,4282.567,845.188Z" transform="translate(-4237.286 -804.032)" fill="#777"/><path d="M4260.295,969.758c.048,1.025-2.063,2.152-2.98,2.563a78.276,78.276,0,0,1-11.983,4.385,52.926,52.926,0,0,1-8.626,1.564c-8.62.885-18.807-1.057-22.3-1.01a1.516,1.516,0,0,1-.978-.371c-.233-.188-.419-10.716-.233-24,0-.512,0-1.073.045-1.584v-.186c.048-5.173.236-10.624.469-16.027.512-11.927,1.442-23.436,3.029-29.82,1.862-7.5,6.148-12.439,10.062-16.072l2.781-2.767a.748.748,0,0,1,.665-.2,15.392,15.392,0,0,0,9.785-1.085c3.681-1.815,7.688-3.773,8.339-3.307,7.64,5.708,11.442,22.575,11.371,41.75,0,.6-.007,1.214-.016,1.823-.034,1.98-.106,3.983-.22,6a256.89,256.89,0,0,0,.509,33.543C4260.152,967.008,4260.264,968.635,4260.295,969.758Z" transform="translate(-4205.827 -844.321)" fill="#fff"/><g transform="translate(8.372 96.222)"><path d="M1.79,0h.539A1.791,1.791,0,0,1,4.12,1.791v0A1.789,1.789,0,0,1,2.33,3.58H1.789A1.789,1.789,0,0,1,0,1.791v0A1.79,1.79,0,0,1,1.79,0Z" transform="translate(2.176 1.173) rotate(-16.543)" fill="#3a49cd"/><path d="M4227.464,1094.019l4.971,16.74a2.155,2.155,0,0,1-1.448,2.672l-6.353,1.887a2.156,2.156,0,0,1-2.672-1.449l-4.972-16.74a2.155,2.155,0,0,1,1.449-2.672l6.353-1.887A2.155,2.155,0,0,1,4227.464,1094.019Z" transform="translate(-4216.902 -1091.033)" fill="#dde8fd"/><path d="M4228.636,1100.233l4.769,16.062a2.155,2.155,0,0,1-1.448,2.672l-6.353,1.887a2.156,2.156,0,0,1-2.673-1.449l-4.671-15.732a14.078,14.078,0,0,1,4.65-.858C4224.424,1102.92,4227.273,1101.149,4228.636,1100.233Z" transform="translate(-4217.872 -1096.569)" fill="#fff"/><rect width="10.931" height="10.95" transform="translate(0.735 8.273) rotate(-16.54)" fill="#3a49cd"/></g><path d="M4329.731,1030.248c.047,1.025-2.064,2.152-2.981,2.563a78.279,78.279,0,0,1-11.983,4.386c-11.116-35.915,2.195-70.728,2.195-70.728l12.2,19.437c-.034,1.98-.106,3.983-.22,6a256.978,256.978,0,0,0,.509,33.543C4329.588,1027.5,4329.7,1029.125,4329.731,1030.248Z" transform="translate(-4275.263 -904.811)" fill="#09f" opacity="0.5"/><path d="M4304.706,911.264c3.986-2.362,11.988-6.647,18.6-7.325a2.151,2.151,0,0,0,1.751-3c-2.09-4.774-7.992-14.764-15.178-19.406-.675-.436-1.183-.057-1.884.336-2.654,1.488-8.364,5.89-8.715,11.08-.312,4.616,1.271,12.622,2.228,16.93A2.153,2.153,0,0,0,4304.706,911.264Z" transform="translate(-4267.336 -844.01)" fill="#fff"/><path d="M4287.858,835.3s-.027.05-.081.145c-.622,1.116-4.876,8.308-11.9,10.369a57.715,57.715,0,0,1-.536-6.259l9.866-7.953a27.673,27.673,0,0,1,2.514,3.464Z" transform="translate(-4250.267 -808.489)" fill="#777"/><path d="M4257.885,795.119s15.367,2.553,16.81-7.042,4.4-15.727-5.353-17.763-12.213,1.338-13.473,4.423S4253.924,794.207,4257.885,795.119Z" transform="translate(-4235.659 -764.274)" fill="#777"/><path d="M4269.057,755.193a2.376,2.376,0,0,1,1.258-1.685,2.876,2.876,0,0,0-1.7.833,8.891,8.891,0,0,0-.8-3.081,18.957,18.957,0,0,1-.1,2.254c-6.661-6.727-22.2.648-25.385,2.118-5.606,2.584-2.462,7.379,1.124,8.553s12.511-2.6,12.635-.126,1.793,5.194,2.721,5.256,1.607-1.917,2.782-.619-.866,3.36-.866,3.36c-1.22,2.229,1.29,5.626,1.29,5.626s.813.475,2.235-1.133C4265.633,774.993,4275.654,765.007,4269.057,755.193Z" transform="translate(-4224.51 -750.726)" fill="#12123c"/><g transform="translate(28.078 39.886)"><path d="M4312.008,940.144l.477-2.93a26.021,26.021,0,0,1-17.131-10.174,33.15,33.15,0,0,1-6.188-15.178c-1.413-10.507,1.353-16.488,8.455-18.285,6.361-1.61,13.713,3.361,13.786,3.412l1.683-2.445c-.345-.237-8.52-5.786-16.2-3.844-5.986,1.514-12.7,6.483-10.668,21.558a35.855,35.855,0,0,0,6.765,16.576A28.9,28.9,0,0,0,4312.008,940.144Z" transform="translate(-4285.854 -890.288)" fill="#0d0d38"/></g><path d="M4233.466,1006.844c2.851-.713,8.292.207,9.386.405,0,0,19.659-13.789,23.1-17.235,2.494-2.493-7.511-13.737-12.723-22.471a2.2,2.2,0,0,0,.792-.279c3.984-2.362,11.988-6.649,18.6-7.327a2.156,2.156,0,0,0,.7-.193c4.513,9.748,9.166,22.538,10.136,35.328,0,0-16.6,16.207-37.587,19.056,0,0-12.538,3.183-14.525,3.051s-2.783-2.782-3.047-4.24S4230.285,1007.639,4233.466,1006.844Z" transform="translate(-4216.655 -900.009)" fill="#777"/></g></g></svg>