<svg xmlns="http://www.w3.org/2000/svg" width="40" height="40" viewBox="0 0 40 40"><g transform="translate(-61 -714)"><path d="M20,0h0A20,20,0,0,1,40,20v0A20,20,0,0,1,20,40H0a0,0,0,0,1,0,0V20A20,20,0,0,1,20,0Z" transform="translate(61 714)" fill="#00008b"/><path d="M22.3,5.85h-.366V3.656C21.938,1.609,17.4,0,11.7,0S1.463,1.609,1.463,3.656V5.85H1.1A1.1,1.1,0,0,0,0,6.947V10.6a1.1,1.1,0,0,0,1.1,1.1h.366v7.313a1.463,1.463,0,0,0,1.463,1.463v1.463A1.463,1.463,0,0,0,4.388,23.4H5.85a1.463,1.463,0,0,0,1.463-1.463V20.475h8.775v1.463A1.463,1.463,0,0,0,17.55,23.4h1.463a1.463,1.463,0,0,0,1.463-1.463V20.475h.293a1.154,1.154,0,0,0,1.17-1.17V11.7H22.3a1.1,1.1,0,0,0,1.1-1.1V6.947A1.1,1.1,0,0,0,22.3,5.85ZM5.119,18.281a1.463,1.463,0,1,1,1.463-1.463A1.463,1.463,0,0,1,5.119,18.281Zm.731-5.119A1.463,1.463,0,0,1,4.388,11.7V5.85A1.463,1.463,0,0,1,5.85,4.388h11.7A1.463,1.463,0,0,1,19.013,5.85V11.7a1.463,1.463,0,0,1-1.463,1.463Zm12.431,5.119a1.463,1.463,0,1,1,1.463-1.463A1.463,1.463,0,0,1,18.281,18.281Z" transform="translate(69.3 722.3)" fill="#fff"/></g></svg>