<svg xmlns="http://www.w3.org/2000/svg" width="1366.149" height="538.708" viewBox="0 0 1366.149 538.708">
  <g id="Group_829" data-name="Group 829" transform="translate(-0.835 -762.884)">
    <path id="Path_580" data-name="Path 580" d="M1324.66,1062.7s.154-376.28.165-376.311c80.292-7.547,173.623,30.849,246.552-87.674,53.251-86.543,239.6-112.81,332.787,5.342s173.294,117.555,237.59,95.7c73.736-25.064,106.129-100.505,221.551-84.552,133.4,18.439,115.538,130.221,213.839,110.756,40.756-8.07,79.544.356,113.666,19.43-.006.012,0,317.311,0,317.311Z" transform="translate(-1323.824 238.891)" fill="#dde8fd"/>
    <g id="Group_781" data-name="Group 781" transform="translate(105.754 762.884)" opacity="0.5">
      <g id="Group_776" data-name="Group 776" transform="translate(0 172.208)">
        <path id="Path_697" data-name="Path 697" d="M5090.7,1692.766a5.848,5.848,0,0,1-3.2,7.757,6.15,6.15,0,0,1-7.985-3.108,5.846,5.846,0,0,1,3.2-7.757A6.151,6.151,0,0,1,5090.7,1692.766Z" transform="translate(-5065.556 -1550.218)" fill="#09f" opacity="0.5"/>
        <path id="Path_698" data-name="Path 698" d="M4962.538,1692.748a5.848,5.848,0,0,1-3.2,7.758,6.151,6.151,0,0,1-7.986-3.107,5.848,5.848,0,0,1,3.2-7.758A6.152,6.152,0,0,1,4962.538,1692.748Z" transform="translate(-4893.754 -1550.207)" fill="#09f" opacity="0.5"/>
        <path id="Path_699" data-name="Path 699" d="M4924.1,1686.612l8.65,3.018a8.05,8.05,0,0,0,2.729.447l49.083-.487,5.358-8.631Z" transform="translate(-4911.534 -1544.797)" fill="#2b276a"/>
        <g id="Group_771" data-name="Group 771" transform="translate(38.48)">
          <path id="Path_700" data-name="Path 700" d="M4895.181,1327.546l13.71-33.111.018-.064c.083-.3,2.218-7.407,14.573-9l.057-.008,10.162-1.861c1.313-.336,5.107-.9,6.845.523a3.247,3.247,0,0,1,.953,3.024c-.255,2.777-9.379,24.245-15.45,38l1.943.809c1.559-3.532,15.249-34.63,15.614-38.626a5.176,5.176,0,0,0-1.7-4.779c-2.839-2.322-8.144-1.086-8.708-.946l-10.021,1.832c-13.3,1.722-16.022,9.541-16.292,10.44l-13.665,33Z" transform="translate(-4893.218 -1281.056)" fill="#2b276a"/>
        </g>
        <path id="Path_701" data-name="Path 701" d="M4867.219,1388.8l26.488,5.144s7.725,3.052,6.192,16.2c-1.348,11.57-7.259,76.489-7.259,76.489s-1.234,13.509-30.936,9.591Z" transform="translate(-4800.468 -1352.115)" fill="#2b276a"/>
        <path id="Path_702" data-name="Path 702" d="M4996.354,1406.407l-7.124,72.7a16.092,16.092,0,0,1-3.014,7.911,17.048,17.048,0,0,1-13.716,6.96l-24.566.148-.608.005-15.386.093a17.431,17.431,0,0,1-4.458-.547q-.5-.126-.981-.283a16.716,16.716,0,0,1-10.941-11.106,15.918,15.918,0,0,1-.436-7.02l11.156-69.562a16.719,16.719,0,0,1,15.1-13.824l4.34-.4,1.036-.095h0l.87-.08,14.506-1.347,1.78-.165,14-1.3a17.389,17.389,0,0,1,6.3.562c.13.037.26.074.388.115l.81.269A16.415,16.415,0,0,1,4996.354,1406.407Z" transform="translate(-4914.918 -1351.863)" fill="#09f" opacity="0.5"/>
        <path id="Path_703" data-name="Path 703" d="M5016.191,1661.771a17.05,17.05,0,0,1-13.717,6.96l-24.566.148-.608.005-15.385.093a17.437,17.437,0,0,1-4.458-.547q-.5-.126-.981-.283c-5.325-1.716-11.466-7.979-11.553-14.624,0,0,51.968-.66,62.83.969C5013.355,1655.333,5015.031,1659.139,5016.191,1661.771Z" transform="translate(-4944.893 -1526.615)" fill="#010117"/>
        <g id="Group_775" data-name="Group 775" transform="translate(6.807 37.194)">
          <g id="Group_772" data-name="Group 772" transform="translate(0 2.249)">
            <path id="Path_704" data-name="Path 704" d="M5084.158,1396.9c-.108.064-11.5,6.809-13,12.736-1.539,6.091-11.826,77.075-11.93,77.792a16.2,16.2,0,0,0,5.566,12.027l-.781-.182q-.5-.127-.982-.283a14.51,14.51,0,0,1-4.721-11.686c.423-2.931,10.4-71.75,11.947-77.883,1.359-5.374,9.392-10.731,11.995-12.346l1.035-.095h0Z" transform="translate(-5058.256 -1396.896)" fill="#2b276a"/>
          </g>
          <g id="Group_773" data-name="Group 773" transform="translate(23.982 0.736)">
            <path id="Path_705" data-name="Path 705" d="M5028.632,1392.455a21.539,21.539,0,0,0-9.231,14.225c-1.565,10-7.683,82.652-7.743,83.383l0,.053-.016.048c-.013.037-.886,3.958,1.631,6.621l-.617,0-.608.005a7.594,7.594,0,0,1-1.307-6.854c.19-2.246,6.194-73.473,7.748-83.395a22.325,22.325,0,0,1,8.366-13.926Z" transform="translate(-5010.426 -1392.455)" fill="#2b276a"/>
          </g>
          <g id="Group_774" data-name="Group 774" transform="translate(46.741)">
            <path id="Path_706" data-name="Path 706" d="M4964.239,1390.677a19.141,19.141,0,0,0-4.454,3.575,20.275,20.275,0,0,0-5.02,10.6c-1.565,10-6.414,82.4-6.464,83.133l0,.057-.019.052c-.011.036-.226,4.467,2.291,7.131l-1.547.009c-1.924-2.434-1.8-6.836-1.645-7.358.155-2.315,4.914-73.238,6.469-83.159a20.534,20.534,0,0,1,9.193-14.419c.128.037.259.074.387.115Z" transform="translate(-4947.3 -1390.292)" fill="#2b276a"/>
          </g>
        </g>
      </g>
      <g id="Group_780" data-name="Group 780" transform="translate(77.278 0)">
        <path id="Path_707" data-name="Path 707" d="M4713.472,777.075c3.1-1.9,8.045.37,8.045.37-1.71-2.4-7.953-1.618-7.953-1.618,12.434-2.646,15.03,5.3,15.245,6.048,9.02-8.14,23.461,9.212,23.461,9.212l-20.723,27.469s-1.891-4.37-4.387-3.006c-3.894,2.127-11.424-6.48-9.019-17.8a30.246,30.246,0,0,1,.92-3.369,6.7,6.7,0,0,1-2.584.64c-2.266,0-5.688-5.781-6.151-7.723S4710.374,778.971,4713.472,777.075Z" transform="translate(-4678.324 -775.289)" fill="#0b0754"/>
        <path id="Path_708" data-name="Path 708" d="M4758.422,1015.679c.457,1.112,2.449,2.1,5.319,2.813,6.431,1.6,17.276,1.811,25.185-1.119,8.481-3.139,14.632-47.965,17.247-70.938.913-8.014,1.4-13.37,1.4-13.37s-4.872-7.626-23.727-5.084-20.758,8.9-22.452,20.336S4756.94,1012.075,4758.422,1015.679Z" transform="translate(-4749.904 -875.648)" fill="#0b0754"/>
        <path id="Path_709" data-name="Path 709" d="M4762.1,1028.76c6.432,1.6,17.277,1.811,25.186-1.119,8.481-3.139,14.633-47.965,17.247-70.938-2.233-7.906-4.007-13.107-4.007-13.107s-23.673-2.86-28.279,4.29C4768.121,954.279,4763.11,1015.83,4762.1,1028.76Z" transform="translate(-4748.26 -885.917)" fill="#09f" opacity="0.5"/>
        <path id="Path_710" data-name="Path 710" d="M4616.564,1017.786c13.98.426,34.107-15.675,34.107-15.675l-2.756-4.235c-5.084,3.387-23.091,6.565-23.091,6.565,1.262-4.074,2.228-7.843,2.946-11.319,4.888-23.625-1.618-33.831-3.512-36.2a5.843,5.843,0,0,0-.492-.562s-.057.165-.162.479c-.232.677-.692,2.044-1.3,3.925C4617.756,974.772,4604.881,1017.434,4616.564,1017.786Z" transform="translate(-4543.226 -894.705)" fill="#777"/>
        <path id="Path_711" data-name="Path 711" d="M4680.772,999.734c6.483-14.542,9.586-18.654,9.694-23.229.086-3.618-1.7-7.522-5.163-17.095a35.714,35.714,0,0,1-1.727-6.92c-2.74-18.454,7.931-38.4,14.564-39.763,1.845-.488,4.973-7.154,4.934-17.894l.832.164,13.967,2.765s-.318,4.4-.328,8.536c-.011,3.451.2,6.721.979,7.133,1.006.091,1.6.151,1.6.151s11.646,16.172,12.625,31.214-9.326,21.576.078,51.633C4742.428,1027.128,4677.191,1007.769,4680.772,999.734Z" transform="translate(-4649.786 -854.13)" fill="#777"/>
        <path id="Path_712" data-name="Path 712" d="M4741.351,898.079s-.318,4.4-.328,8.536c-7.815-.22-11.947-7.349-13.639-11.3Z" transform="translate(-4673.262 -854.447)" fill="#f8f8f8"/>
        <path id="Path_713" data-name="Path 713" d="M4706.752,835.264s-4.095-6.472-5.079-12c-.7-3.951,1.31-18.594,16.026-16.486a19.979,19.979,0,0,1,8.291,3.135c3.2,2.158,7.806,6.817,2.651,19.595l-1.339,4.317Z" transform="translate(-4654.073 -795.918)" fill="#0d0d38"/>
        <path id="Path_714" data-name="Path 714" d="M4720.345,854.515s-18.491.305-18.5-11.213-2.408-19.236,9.4-19.918,14.1,3.711,15.043,7.555S4725.155,854.138,4720.345,854.515Z" transform="translate(-4649.647 -806.962)" fill="#777"/>
        <path id="Path_715" data-name="Path 715" d="M4745.7,818.157s-5.062,13.513-12.831,15.511-11.142-.083-11.142-.083a22.006,22.006,0,0,0,7.2-13S4741.885,811.726,4745.7,818.157Z" transform="translate(-4675.69 -802.017)" fill="#0b0754"/>
        <path id="Path_716" data-name="Path 716" d="M4697.919,821.646s3.782,3.017,4.7,5.95,1.336,8.971,3.1,8.765c0,0,3.813-9.184-.473-14.38C4700.7,816.472,4697.919,821.646,4697.919,821.646Z" transform="translate(-4629.161 -804.409)" fill="#0b0754"/>
        <path id="Path_717" data-name="Path 717" d="M4682.3,1349.923a182.654,182.654,0,0,0,11.654,32.693l6.1-.423a172.345,172.345,0,0,1-2.819-33.447c.121-13.437,1.782-29.319,7.091-44.482,18.248-52.108,15.3-90.032,15.3-90.032l-34.311,4.014-1.6.187c-.143,15.758-.551,37.152-.906,53.881-.314,15.045-.591,26.316-.591,26.316C4675.624,1312.837,4678.019,1332.891,4682.3,1349.923Z" transform="translate(-4634.943 -1064.777)" fill="#00008b"/>
        <path id="Path_718" data-name="Path 718" d="M4782.6,1049.169l5.552,1.665s18.312-30.383,19.977-38.289c.544-2.574,1.875-7.724,3.429-13.495,3.215-11.951,7.366-26.574,7.366-26.574l1.366-5.919,4.662-20.187s-8.925.912-14.146,3.095c-1.729.721-3.047,1.582-3.508,2.593-3.834,8.434-7.663,29.717-10.354,44.9-1.5,8.462-2.645,15.03-3.243,16.421C4792.034,1017.259,4786.947,1038.625,4782.6,1049.169Z" transform="translate(-4775.662 -888.118)" fill="#777"/>
        <path id="Path_719" data-name="Path 719" d="M4727.749,1332.971c1.973,21.055,10.659,34.67,10.659,34.67l2.913,2.118s2.757-14.833,4.708-32.481c1.858-16.775,4.407-34.524,7.289-39.942,11.443-21.486,14.887-102.6,14.887-102.6l-34.789-1.726c-3.5,5.881-5.023,15.528-5.384,26.5-.916,27.683,5.591,63.779,6.563,69a.022.022,0,0,0,0,.013,1.822,1.822,0,0,1-.229,1.166C4727.449,1303.389,4726.448,1319.064,4727.749,1332.971Z" transform="translate(-4700.073 -1050.781)" fill="#09f"/>
        <path id="Path_720" data-name="Path 720" d="M4736.764,820.129s-3.607,14.151-13.412,18.683c0,0,9.8-8.694,10.637-18.036S4736.764,820.129,4736.764,820.129Z" transform="translate(-4667.302 -802.435)" fill="#0d0d38"/>
        <path id="Path_721" data-name="Path 721" d="M4898.013,1245.572s-1.688,3.977-3.446,5.087a9.833,9.833,0,0,0-3.791,5.919,5.23,5.23,0,0,0,4.568,6.381c2.22,0,4.341-3.026,5.646-10.254.071-.4,2.179-4.544,2.179-4.544Z" transform="translate(-4890.681 -1085.446)" fill="#777"/>
        <path id="Path_722" data-name="Path 722" d="M4669.054,1045.23a8.257,8.257,0,0,0,.216,2.78c.74,2.329,3.283,3.391,9.427,2.755,3.757-.391,5.432-6.686,6.178-12.056q3.385,11.525,9.5,12.9c5.958,1.325,36.012,4.979,37.978-9.307,2.165-15.713-4.314-43.535-4.67-58.536a74.284,74.284,0,0,0,1.089-13.9c-.25-10.686-3.388-16.676-5.8-19.087-.683-.524-1.366-.852-4.108-1.322-1.4-.238-3.344-.515-6.094-.877a10.351,10.351,0,0,0-1.1-.085c.509.909,7.315,11.216,6.785,13.866-.556,2.774-24.7.276-26.361-1.249s-4.3-13.213-4.3-13.213-8.547.934-12.729,3.976l.046.054a3.522,3.522,0,0,0-1.1,1.157c-4.46,8.494-8.916,29.929-12.05,45.22a22.269,22.269,0,0,0,16.289,2.386C4675.558,1018.3,4669.454,1037.207,4669.054,1045.23Z" transform="translate(-4642.427 -889.127)" fill="#f8f8f8"/>
        <path id="Path_723" data-name="Path 723" d="M4582.478,1056.378c.212-.531,2.86-8.369,4.873-9.428s5.72-2.224,6.567-1.8,2.436,6.355,0,9.427-8.685,6.037-8.685,6.037Z" transform="translate(-4477.786 -953.206)" fill="#777"/>
        <path id="Path_724" data-name="Path 724" d="M4673.728,949.9s.012.022.037.063c.819,1.3,13.645,21.8,14.874,35.124a74.071,74.071,0,0,0,1.089-13.9c-1.648-5.036-5.651-16.224-9.906-20.409C4679.287,950.246,4673.728,949.9,4673.728,949.9Z" transform="translate(-4603.387 -890.445)" fill="#0b0754"/>
        <g id="Group_777" data-name="Group 777" transform="translate(100.822 85.953)">
          <path id="Path_725" data-name="Path 725" d="M4587.753,1044.943l8.478,2.823a.537.537,0,0,0,.679-.34l5.383-16.165a.538.538,0,0,0-.34-.679l-8.478-2.823a.536.536,0,0,0-.678.34l-5.383,16.166A.537.537,0,0,0,4587.753,1044.943Z" transform="translate(-4587.386 -1027.73)" fill="#f8f8f8"/>
          <path id="Path_726" data-name="Path 726" d="M4583.047,1047.056l7.69,2.561a.952.952,0,0,0,1.2-.6l5.121-15.378a.954.954,0,0,0-.6-1.2l-7.691-2.56a.951.951,0,0,0-1.2.6l-5.121,15.377A.952.952,0,0,0,4583.047,1047.056Z" transform="translate(-4580.479 -1029.11)" fill="#09f" opacity="0.5"/>
        </g>
        <path id="Path_727" data-name="Path 727" d="M4792.389,1604.069c1.973,21.055,10.658,34.669,10.658,34.669l2.966,2.7s2.7-15.416,4.656-33.064C4808.613,1608.524,4799.55,1608.854,4792.389,1604.069Z" transform="translate(-4764.714 -1321.879)" fill="#777"/>
        <path id="Path_728" data-name="Path 728" d="M4736.124,1610.471a182.7,182.7,0,0,0,11.656,32.693l6.1-.423a172.322,172.322,0,0,1-2.818-33.446C4748.99,1610.337,4744.72,1611.4,4736.124,1610.471Z" transform="translate(-4688.764 -1325.326)" fill="#777"/>
        <g id="Group_778" data-name="Group 778" transform="translate(52.338 308.84)">
          <path id="Path_729" data-name="Path 729" d="M4687.044,1696.451h3.893c1.3-.2,2.267-.582,3.6-.757a3.61,3.61,0,0,1,3.152.757.487.487,0,0,1,.035.039h16.538c.415-.594.017-1.97-.375-2.983a2.351,2.351,0,0,0-1.548-1.415c-1.754-.507-5.211-.96-8.377-3.826-1.781-1.609-8.6-5.918-8.6-5.918l-.037-.008c-.149,0-.862.222-3.965,2.842-1.6,1.351-4.337-1.909-4.337-1.909a3.882,3.882,0,0,0-.9,1.215,4.11,4.11,0,0,0-.354,2.539c.247,1.49-.551,4.259-1.185,6.132-.386,1.135-.712,1.94-.712,1.94S4683.693,1696.033,4687.044,1696.451Z" transform="translate(-4683.877 -1682.34)" fill="#0d0d38"/>
          <path id="Path_730" data-name="Path 730" d="M4739.906,1684.487a12.34,12.34,0,0,0,4.192,2.114c1.756.23,5.043-4.254,5.043-4.254l-.037-.008c-.15,0-.863.222-3.965,2.842-1.6,1.351-4.336-1.909-4.336-1.909A3.877,3.877,0,0,0,4739.906,1684.487Z" transform="translate(-4737.653 -1682.34)" fill="#0b0754"/>
          <path id="Path_731" data-name="Path 731" d="M4687.044,1717.406h3.893c1.3-.2,2.267-.583,3.6-.757a3.607,3.607,0,0,1,3.152.757.422.422,0,0,1,.035.039h16.538c.415-.594.017-1.97-.375-2.983-.5-.446-.644,1.939-.92,2.32s-13.49.138-14.254-.416a7.98,7.98,0,0,0-6.243-.763c-2.778.663-6.87-1.037-7.883-1.49-.386,1.135-.712,1.94-.712,1.94S4683.693,1716.987,4687.044,1717.406Z" transform="translate(-4683.877 -1703.294)" fill="#0b0754"/>
        </g>
        <g id="Group_779" data-name="Group 779" transform="translate(31.565 308.84)">
          <path id="Path_732" data-name="Path 732" d="M4748.055,1696.451h3.892c1.3-.2,2.268-.582,3.6-.757a3.611,3.611,0,0,1,3.152.757.453.453,0,0,1,.036.039h16.537c.417-.594.017-1.97-.375-2.983a2.352,2.352,0,0,0-1.548-1.415c-1.753-.507-5.21-.96-8.376-3.826-1.782-1.609-8.6-5.918-8.6-5.918l-.035-.008c-.149,0-.863.222-3.965,2.842-1.6,1.351-4.337-1.909-4.337-1.909a3.894,3.894,0,0,0-.9,1.215,4.106,4.106,0,0,0-.355,2.539c.247,1.49-.549,4.259-1.185,6.132-.386,1.135-.71,1.94-.71,1.94S4744.707,1696.033,4748.055,1696.451Z" transform="translate(-4744.89 -1682.34)" fill="#0d0d38"/>
          <path id="Path_733" data-name="Path 733" d="M4800.921,1684.487a12.329,12.329,0,0,0,4.191,2.114c1.757.23,5.042-4.254,5.042-4.254l-.036-.008c-.149,0-.862.222-3.965,2.842-1.6,1.351-4.337-1.909-4.337-1.909A3.871,3.871,0,0,0,4800.921,1684.487Z" transform="translate(-4798.668 -1682.34)" fill="#0b0754"/>
          <path id="Path_734" data-name="Path 734" d="M4748.055,1717.406h3.892c1.3-.2,2.268-.583,3.6-.757a3.608,3.608,0,0,1,3.152.757.4.4,0,0,1,.036.039h16.537c.417-.594.017-1.97-.375-2.983-.5-.446-.643,1.939-.92,2.32s-13.491.138-14.254-.416a7.981,7.981,0,0,0-6.243-.763c-2.777.663-6.87-1.037-7.883-1.49-.386,1.135-.71,1.94-.71,1.94S4744.707,1716.987,4748.055,1717.406Z" transform="translate(-4744.89 -1703.294)" fill="#0b0754"/>
        </g>
        <path id="Path_735" data-name="Path 735" d="M4779.925,1115.413c4.126-1.379,9.424-5.046,15.786-13.266,16.84-21.766,1.429-47.345-.637-47.822s-5.954,16.548-5.954,16.548C4786.429,1088.483,4780.325,1107.389,4779.925,1115.413Z" transform="translate(-4753.297 -959.31)" fill="#777"/>
        <path id="Path_736" data-name="Path 736" d="M4776.259,943.29s16.946,11.545,18.217,36.012-20.759,29.445-20.759,29.445l1.431-7.732s17.846-6.461,13.186-25.95-20.535-30.727-20.535-30.727Z" transform="translate(-4740.201 -886.087)" fill="#0b0754"/>
        <path id="Path_737" data-name="Path 737" d="M4591.125,1043.251s-1.588-3.283-4.5-1.959-1.643,6.3.052,8.049a17.153,17.153,0,0,1,2.172,2.542Z" transform="translate(-4474.519 -950.513)" fill="#777"/>
      </g>
    </g>
  </g>
</svg>
