<svg xmlns="http://www.w3.org/2000/svg" xmlns:xlink="http://www.w3.org/1999/xlink" width="766" height="608" viewBox="0 0 766 608">
  <defs>
    <clipPath id="clip-path">
      <path id="Rectangle_373" data-name="Rectangle 373" d="M25,0H741a25,25,0,0,1,25,25V583a25,25,0,0,1-25,25H0a0,0,0,0,1,0,0V25A25,25,0,0,1,25,0Z" transform="translate(300 100)" fill="#fff"/>
    </clipPath>
  </defs>
  <g id="Mask_Group_1" data-name="Mask Group 1" transform="translate(-300 -100)" clip-path="url(#clip-path)">
    <path id="Path_582" data-name="Path 582" d="M1213.607,525.151s-66.819,151.159,12.476,199.842c44.245,27.165,104.655-21.067,149.519,51.845,26.108,42.431,117.474,55.31,163.162-2.619s84.964-57.636,116.488-46.92c36.152,12.289,52.034,49.277,108.624,41.455,65.4-9.04,56.647-63.846,104.843-54.3,92.941,18.4,161.254-135.888,97.008-190.025Z" transform="translate(-905.902 -510.355)" fill="#dde8fd"/>
  </g>
</svg>
