<svg xmlns="http://www.w3.org/2000/svg" width="174.551" height="302.008" viewBox="0 0 174.551 302.008">
  <g id="Group_723" data-name="Group 723" opacity="0.5">
    <path id="Path_390" data-name="Path 390" d="M2085.345,855.207a13.143,13.143,0,0,1-5.953-1.311c-21.415-10.632-1.535-83.677-1.535-83.677a9.068,9.068,0,0,1,4.905-5.055,15.116,15.116,0,0,1,8.723-.749c11.269,1.872,13.441,6.552,13.891,9.173C2105.862,776.247,2116.045,855.057,2085.345,855.207Z" transform="translate(-2013.357 -726.121)" fill="#09f" opacity="0.5"/>
    <path id="Path_391" data-name="Path 391" d="M2079.392,856.644c-21.415-10.632-1.535-83.677-1.535-83.677a9.068,9.068,0,0,1,4.905-5.055c8.274,2.172,10,6.1,10.446,8.424C2093.619,778.809,2102.38,846.462,2079.392,856.644Z" transform="translate(-2013.357 -728.869)" fill="#0d0d38"/>
    <g id="Group_676" data-name="Group 676" transform="translate(21.562 135.619)">
      <path id="Path_392" data-name="Path 392" d="M2219.614,1634.809s4.879,4.523,3.927,7.736-5.356,5.356-5.951,9.283-2.975,6.07-5.117,6.07H2202.26s-1.577-2.763,2.231-3.6,5.244-5.448,5.007-9.732a76.736,76.736,0,0,1,.356-10l8.093-1.9Z" transform="translate(-2131.07 -1492.114)" fill="#0d0d38"/>
      <path id="Path_393" data-name="Path 393" d="M1972.181,1674.9s1.19,9.521-.952,10.592-27.729.715-27.729.715,0-3.214,4.4-3.928,12.139-3.332,13.448-9.164S1972.181,1674.9,1972.181,1674.9Z" transform="translate(-1943.5 -1519.877)" fill="#0d0d38"/>
      <path id="Path_394" data-name="Path 394" d="M1963.687,1148.643s1.446,18.041,3.146,39.728c2.31,29.459,5.088,65.644,5.363,72.5.475,11.9,2.381,30.944,2.381,30.944s4.521,4.524,13.568,2.617c0,0,8.061-27.181,10.365-55.94.035-.471.072-.946.107-1.421,2.142-29.277,5.472-90.926,5.472-90.926Z" transform="translate(-1958.151 -1139.003)" fill="#09f" opacity="0.5"/>
      <path id="Path_395" data-name="Path 395" d="M1963.687,1148.643s1.446,18.041,3.146,39.728l31.676,50.12c.035-.471.072-.946.107-1.421,2.142-29.277,5.472-90.926,5.472-90.926Z" transform="translate(-1958.151 -1139.003)" fill="#00008b"/>
      <path id="Path_396" data-name="Path 396" d="M1987.768,1131.885s26.064,65.337,43.2,96.042,22.493,39.274,22.493,39.274,9.819-3.927,10.711-6.6c0,0-6.553-59.278-18.031-73.728-6.485-8.165-14.1-32.669-14.46-41.238s-2.321-25.528-2.321-25.528Z" transform="translate(-1975.629 -1120.103)" fill="#09f" opacity="0.5"/>
    </g>
    <path id="Path_397" data-name="Path 397" d="M1875.4,1087.783l-3.53,4.2a6.123,6.123,0,0,1-2.6,1.766c-2.087.769-5.527,2.921-4.037,8.562,0,0,1.124,3.249,3.213,2.221s1.06-.941,4.054-2.325a6.9,6.9,0,0,0,4.126-4.633,6.083,6.083,0,0,1,2.747-3.747l4.28-2.889Z" transform="translate(-1864.869 -961.026)" fill="#777"/>
    <path id="Path_398" data-name="Path 398" d="M2018.309,738.225a76.5,76.5,0,0,1-1.195-10.9l13.224-10.657c-.491,14.654,8.9,21.7,8.9,21.7s-17.622,8.674-27.808,5.461A24.4,24.4,0,0,1,2018.309,738.225Z" transform="translate(-1971.24 -691.678)" fill="#777"/>
    <path id="Path_399" data-name="Path 399" d="M2012.113,680.988s16.823,2.795,18.4-7.709,4.814-17.217-5.86-19.445-13.369,1.465-14.749,4.842S2007.778,679.99,2012.113,680.988Z" transform="translate(-1969.354 -645.581)" fill="#777"/>
    <path id="Path_400" data-name="Path 400" d="M1887.714,902.1a28.767,28.767,0,0,1-3.919-5.312s19.115-23.749,20.668-26.211,13.162-41.964,13.162-41.964l29.356-5.947s-24.5,50.552-28.563,56.715c-6.708,10.184-26.776,25.341-26.776,25.341A12.08,12.08,0,0,1,1887.714,902.1Z" transform="translate(-1878.605 -768.61)" fill="#00008b"/>
    <path id="Path_401" data-name="Path 401" d="M2010,877.342c.037.6-.636,1.273-1.422,1.8a13.717,13.717,0,0,1-1.834,1.011q-3.371,1.516-6.627,2.7a60.989,60.989,0,0,1-15.912,3.78c-5.953.6-12.581,0-17.634-.486-2.845-.338-5.167-.6-6.589-.6h-.187a1.633,1.633,0,0,1-1.086-.411c-.225-.15-.412-9.06-.3-21.042,0-1.685.037-3.408.037-5.2a13.767,13.767,0,0,1,.075-1.759v-.188c.037-5.616.225-11.568.487-17.446v-.114c.561-13.065,1.573-25.646,3.332-32.646,2.022-8.2,6.739-13.592,11.008-17.6l3.519-3.108a7.133,7.133,0,0,0,.9.15,16.4,16.4,0,0,0,10.071-1.46c4.006-1.984,8.424-4.155,9.135-3.63.075.075.188.15.262.225a16.759,16.759,0,0,1,3.37,3.669c.075.036.075.036.075.075h.037a29.249,29.249,0,0,1,2.322,4.044,48.613,48.613,0,0,1,2.995,8.124c2.284,8.2,3.407,18.532,3.37,29.577,0,2.808-.075,5.652-.262,8.535-.038.825-.075,1.61-.113,2.4-.336,7.151-.3,13.778-.112,19.581v.187c.187,5.879.524,10.859.786,14.564C2009.851,874.309,2009.963,876.106,2010,877.342Z" transform="translate(-1932.734 -738.371)" fill="#09f"/>
    <path id="Path_402" data-name="Path 402" d="M2102.432,954.665a281.135,281.135,0,0,1-.559-36.719c.164-2.884.25-5.745.26-8.561-3.485-8.452-6.332-14.581-6.332-14.581h-8.783S2080.581,938.782,2102.432,954.665Z" transform="translate(-2025.459 -820.965)" fill="#00008b"/>
    <path id="Path_403" data-name="Path 403" d="M2018.95,652.218s-1.727-.288-1.448-2.667.275-5.486-1.658-4.906-2.03,2.127-2.824,1.223-.809-4.712-6.562-4.978-8.09,1.737-10.765.561-2.816-5.225-2.816-5.225a4.6,4.6,0,0,0,1.91,1.906s-4.463-6.1.7-10.29,10.436-1.446,13.426-1.265c6.589.4,10.844.794,13,5.124S2023.178,648.051,2018.95,652.218Z" transform="translate(-1957.775 -625.53)" fill="#0b0754"/>
    <g id="Group_682" data-name="Group 682" transform="translate(71.518 142.76)">
      <path id="Path_404" data-name="Path 404" d="M2405.5,1682.139a6.185,6.185,0,0,0,3.319,8.147,6.31,6.31,0,0,0,8.241-3.283,6.186,6.186,0,0,0-3.32-8.148A6.31,6.31,0,0,0,2405.5,1682.139Z" transform="translate(-2328.406 -1532.417)" fill="#09f" opacity="0.5"/>
      <path id="Path_405" data-name="Path 405" d="M2241.162,1682.439a6.186,6.186,0,0,0,3.32,8.148,6.309,6.309,0,0,0,8.24-3.283,6.186,6.186,0,0,0-3.32-8.148A6.309,6.309,0,0,0,2241.162,1682.439Z" transform="translate(-2209.13 -1532.634)" fill="#09f" opacity="0.5"/>
      <path id="Path_406" data-name="Path 406" d="M2274.267,1673.873l-8.928,3.19a8.161,8.161,0,0,1-2.816.476l-50.69-.413-5.551-9.061Z" transform="translate(-2184.179 -1524.946)" fill="#2b276a"/>
      <g id="Group_677" data-name="Group 677" transform="translate(10.983)">
        <path id="Path_407" data-name="Path 407" d="M2215.858,1194.925l-14.226-34.776-.018-.067c-.086-.312-2.3-7.781-15.067-9.428l-.058-.009-10.5-1.935c-1.357-.351-5.275-.936-7.066.565a3.448,3.448,0,0,0-.98,3.18c.269,2.919,9.735,25.466,16.032,39.911l-2.006.855c-1.617-3.71-15.814-36.37-16.2-40.569a5.493,5.493,0,0,1,1.746-5.027c2.927-2.448,8.409-1.159,8.99-1.013l10.353,1.905c13.742,1.784,16.566,10,16.846,10.94l14.177,34.659Z" transform="translate(-2165.731 -1146.142)" fill="#2b276a"/>
      </g>
      <path id="Path_408" data-name="Path 408" d="M2159.6,1286.655l-27.344,5.461s-7.97,3.224-6.363,17.042c1.416,12.158,7.649,80.385,7.649,80.385s1.3,14.2,31.966,10.019Z" transform="translate(-2125.679 -1248.124)" fill="#2b276a"/>
      <path id="Path_409" data-name="Path 409" d="M2193.986,1305.084l7.5,76.405a17.086,17.086,0,0,0,3.128,8.309,17.509,17.509,0,0,0,14.178,7.289l25.371.105.627,0,15.889.066a17.707,17.707,0,0,0,4.6-.583q.513-.134,1.013-.3a17.427,17.427,0,0,0,11.277-11.7,17,17,0,0,0,.436-7.38l-11.659-73.1a17.388,17.388,0,0,0-15.623-14.5l-4.483-.415-1.068-.1h0l-.9-.082-14.982-1.387-1.839-.169L2213,1286.219a17.648,17.648,0,0,0-6.5.6c-.134.039-.268.078-.4.122l-.835.284A17.264,17.264,0,0,0,2193.986,1305.084Z" transform="translate(-2175.195 -1247.752)" fill="#09f" opacity="0.5"/>
      <path id="Path_410" data-name="Path 410" d="M2232.972,1640.57a17.51,17.51,0,0,0,14.179,7.289l25.371.105.627,0,15.889.066a17.713,17.713,0,0,0,4.6-.583q.514-.134,1.013-.3c5.5-1.814,11.825-8.411,11.9-15.4,0,0-53.668-.589-64.882,1.146C2235.887,1633.8,2234.164,1637.8,2232.972,1640.57Z" transform="translate(-2203.551 -1498.523)" fill="#010117"/>
      <g id="Group_681" data-name="Group 681" transform="translate(30.063 39.07)">
        <g id="Group_678" data-name="Group 678" transform="translate(39.018 2.289)">
          <path id="Path_411" data-name="Path 411" d="M2377.6,1296.97c.112.068,11.892,7.134,13.45,13.361,1.6,6.4,12.367,80.993,12.475,81.746a17.2,17.2,0,0,1-5.724,12.654l.806-.193q.513-.134,1.013-.3a15.415,15.415,0,0,0,4.853-12.293c-.443-3.079-10.883-75.4-12.494-81.842-1.413-5.646-9.72-11.26-12.411-12.953l-1.069-.1h0Z" transform="translate(-2377.603 -1296.97)" fill="#2b276a"/>
        </g>
        <g id="Group_679" data-name="Group 679" transform="translate(22.198 0.733)">
          <path id="Path_412" data-name="Path 412" d="M2316.262,1291.294a22.644,22.644,0,0,1,9.561,14.933c1.636,10.511,8.1,86.864,8.162,87.631l.005.056.017.051c.012.038.921,4.159-1.672,6.963l.637,0,.627,0a8.1,8.1,0,0,0,1.337-7.207c-.2-2.36-6.543-77.219-8.167-87.644a23.513,23.513,0,0,0-8.668-14.621Z" transform="translate(-2316.262 -1291.294)" fill="#2b276a"/>
        </g>
        <g id="Group_680" data-name="Group 680">
          <path id="Path_413" data-name="Path 413" d="M2235.312,1289.029a19.833,19.833,0,0,1,4.606,3.748,21.459,21.459,0,0,1,5.2,11.128c1.636,10.505,6.788,86.606,6.841,87.372l0,.06.018.055c.012.038.241,4.695-2.352,7.5l1.6.007c1.981-2.562,1.85-7.189,1.683-7.738-.165-2.433-5.221-76.973-6.845-87.4a21.581,21.581,0,0,0-9.522-15.138c-.134.039-.268.077-.4.122Z" transform="translate(-2235.312 -1288.622)" fill="#2b276a"/>
        </g>
      </g>
    </g>
    <path id="Path_414" data-name="Path 414" d="M2197.922,1097.809l3.272,7.705a3.859,3.859,0,0,1,0,2.911c-.8,2.074-1.466,6.077,3.75,8.692,0,0,3.18,1.307,3.791-.94s0-1.417.939-4.578c.825-2.766.279-5.453-1.392-6.826a2.961,2.961,0,0,1-.942-2.014l-.516-4.907Z" transform="translate(-2106.594 -968.303)" fill="#777"/>
    <path id="Path_415" data-name="Path 415" d="M2104.694,879.506a28.752,28.752,0,0,1-6.59.367s-9.389-29-10.6-31.652-27.887-34.007-27.887-34.007l11.114-27.814s28.857,48.2,31.786,54.974c4.842,11.192,6.522,36.285,6.522,36.285A12.08,12.08,0,0,1,2104.694,879.506Z" transform="translate(-2006.216 -742.286)" fill="#09f"/>
    <path id="Path_416" data-name="Path 416" d="M2063.24,867.98v.187a29.858,29.858,0,0,1-12.392-6.252c-6.552-5.353-11.007-13.179-13.816-21.378-4.343-12.766-4.679-26.469-2.47-33.209a11.521,11.521,0,0,1,1.01-2.245,16.505,16.505,0,0,1,3.07-3.819,21.486,21.486,0,0,1,11.793-5.316,25.968,25.968,0,0,1,2.659-.225c1.048-.039,1.722,0,1.909,0h.037a29.291,29.291,0,0,1,2.322,4.044,16.882,16.882,0,0,0-1.909-.075,18.95,18.95,0,0,0-6.852.936,13.791,13.791,0,0,0-7.226,5.316c-4.642,6.513-3.631,15.837-3.631,15.837a77.768,77.768,0,0,0,2.1,13.141c2.208,8.837,5.69,15.126,9.285,19.544,6.7,8.31,14.019,10.115,14.019,10.115Z" transform="translate(-1987.06 -749.041)" fill="#0d0d38"/>
  </g>
</svg>
