<svg xmlns="http://www.w3.org/2000/svg" width="1366.149" height="538.274" viewBox="0 0 1366.149 538.274">
  <g id="Group_797" data-name="Group 797" transform="translate(0.165 -1916.318)">
    <path id="Path_580" data-name="Path 580" d="M1324.66,1062.7s.154-376.28.165-376.311c80.292-7.547,173.623,30.849,246.552-87.674,53.251-86.543,239.6-112.81,332.787,5.342s173.294,117.555,237.59,95.7c73.736-25.064,106.129-100.505,221.551-84.552,133.4,18.439,115.538,130.221,213.839,110.756,40.756-8.07,79.544.356,113.666,19.43-.006.012,0,317.311,0,317.311Z" transform="translate(-1324.824 1391.891)" fill="#dde8fd"/>
    <g id="man" transform="translate(1218.574 2029.572)" opacity="0.5">
      <path id="Path_445" data-name="Path 445" d="M4192.983,998.687s13.74-35.47,14.955-38.6,8.132-51.873,8.132-51.873l29.42-11.757s-16.575,62.641-19.809,70.514c-5.345,13.01-25.57,33.112-25.57,33.112,1.3,2.613-.078,6.005-3.163,8.232s-1.937,1.9-4.075,3.527-4.126-1.805-4.126-1.805C4184.64,1001.558,4192.983,998.687,4192.983,998.687Z" transform="translate(-4187.61 -843.869)" fill="#777"/>
      <path id="Path_446" data-name="Path 446" d="M4336.914,887.29a92.9,92.9,0,0,1,33.379-8.668,23.066,23.066,0,0,1,23.591,15.772q.286.87.546,1.8c4.618,16.61,2.1,66.891-13.434,80.007s-44.082,7.582-44.082,7.582Z" transform="translate(-4283.037 -832.43)" fill="#0d0d38"/>
      <path id="Path_447" data-name="Path 447" d="M4218.234,1222.4s1.666,20.785,3.624,45.769c2.661,33.94,12.792,118.506,12.792,118.506s-2.147,3.371,8.276,1.175c0,0,12.774-28.8,15.426-61.938.042-.543.083-1.09.124-1.637,2.468-33.729,6.306-104.755,6.306-104.755Z" transform="translate(-4207.183 -1050.353)" fill="#09f" opacity="0.5"/>
      <path id="Path_448" data-name="Path 448" d="M4216.659,1207.595s2.234,27.967,4.191,52.951l36.494,57.743c.041-.543.083-1.09.124-1.637,2.467-33.729,6.306-104.755,6.306-104.755Z" transform="translate(-4206.177 -1042.731)" fill="#00008b"/>
      <path id="Path_449" data-name="Path 449" d="M4239.215,1183.913l62.727,180.475s6.56-1.236,8.031-4.135c0,0,1.8-76.325-8.821-94.739-6-10.4-10.194-39.59-9.479-49.445,1.4-19.313-4.354-37.293-4.354-37.293Z" transform="translate(-4220.593 -1024.313)" fill="#09f" opacity="0.5"/>
      <g id="Group_690" data-name="Group 690" transform="translate(1.294 332.59)" opacity="0.5">
        <path id="Path_450" data-name="Path 450" d="M4227.138,1690.909h-5.107c-1.71-.27-2.974-.765-4.728-.994-2.665-.349-3.891.743-4.135.994a.63.63,0,0,0-.047.051h-21.694c-.546-.779-.022-2.585.491-3.913a3.089,3.089,0,0,1,2.032-1.857c2.3-.666,6.836-1.259,10.989-5.02,2.337-2.111,11.284-7.764,11.284-7.764l.048-.011c.2,0,1.131.291,5.2,3.727,2.1,1.773,5.688-2.5,5.688-2.5a5.105,5.105,0,0,1,1.177,1.594,5.392,5.392,0,0,1,.465,3.331c-.324,1.955.721,5.587,1.555,8.044.506,1.489.931,2.544.931,2.544S4231.531,1690.359,4227.138,1690.909Z" transform="translate(-4191.195 -1672.396)" fill="#09f"/>
        <path id="Path_451" data-name="Path 451" d="M4227.128,1716.118h-5.085c-1.711-.27-2.987-.838-4.741-1.067-2.665-.349-3.891.743-4.135.994a.615.615,0,0,0-.047.051h-21.694c-.546-.779-.022-2.585.491-3.913.659-.586.845,2.544,1.209,3.043s17.7.182,18.7-.546,4-2,8.19-1c3.643.87,9.012-1.361,10.341-1.955.506,1.489.931,2.545.931,2.545S4231.522,1715.569,4227.128,1716.118Z" transform="translate(-4191.195 -1697.533)" fill="#09f"/>
      </g>
      <g id="Group_691" data-name="Group 691" transform="translate(53.44 332.59)" opacity="0.5">
        <path id="Path_452" data-name="Path 452" d="M4371.646,1690.909h-5.107c-1.71-.27-2.974-.765-4.728-.994-2.665-.349-3.891.743-4.135.994a.63.63,0,0,0-.047.051h-21.694c-.546-.779-.021-2.585.492-3.913a3.09,3.09,0,0,1,2.031-1.857c2.3-.666,6.835-1.259,10.989-5.02,2.338-2.111,11.284-7.764,11.284-7.764l.047-.011c.2,0,1.132.291,5.2,3.727,2.1,1.773,5.689-2.5,5.689-2.5a5.1,5.1,0,0,1,1.175,1.594,5.392,5.392,0,0,1,.467,3.331c-.325,1.955.72,5.587,1.554,8.044.505,1.489.932,2.544.932,2.544S4376.039,1690.359,4371.646,1690.909Z" transform="translate(-4335.703 -1672.396)" fill="#09f"/>
        <path id="Path_453" data-name="Path 453" d="M4371.637,1716.118h-5.085c-1.711-.27-2.986-.838-4.741-1.067-2.665-.349-3.891.743-4.135.994a.615.615,0,0,0-.047.051h-21.694c-.546-.779-.021-2.585.492-3.913.659-.586.844,2.544,1.209,3.043s17.7.182,18.7-.546,4-2,8.189-1c3.645.87,9.013-1.361,10.342-1.955.505,1.489.932,2.545.932,2.545S4376.031,1715.569,4371.637,1716.118Z" transform="translate(-4335.703 -1697.533)" fill="#09f"/>
      </g>
      <path id="Path_454" data-name="Path 454" d="M4289.239,850.394s-20.326,10-32.075,6.3a28.185,28.185,0,0,1,7.933-6.468c-.287-1.71-.518-3.273-.7-4.664a73.033,73.033,0,0,1-.677-7.9l12.458-10.042,2.793-2.252a35.581,35.581,0,0,0,.381,6.625c.024.161.047.321.074.478C4281.453,844.553,4289.239,850.394,4289.239,850.394Z" transform="translate(-4232.065 -798.43)" fill="#777"/>
      <path id="Path_455" data-name="Path 455" d="M4272.687,992.867c.06,1.295-2.606,2.717-3.764,3.236a98.844,98.844,0,0,1-15.13,5.537,66.851,66.851,0,0,1-10.892,1.974c-10.884,1.118-23.746-1.335-28.159-1.275a1.917,1.917,0,0,1-1.235-.468c-.294-.237-.529-13.531-.294-30.3,0-.646,0-1.355.057-2v-.234c.06-6.532.3-13.414.592-20.237.646-15.06,1.821-29.592,3.824-37.653,2.352-9.469,7.763-15.706,12.7-20.293l3.512-3.494a.945.945,0,0,1,.84-.256,19.436,19.436,0,0,0,12.355-1.369c4.647-2.292,9.707-4.764,10.529-4.175,9.647,7.207,14.448,28.5,14.357,52.715,0,.763-.01,1.533-.02,2.3-.043,2.5-.134,5.029-.278,7.572a324.437,324.437,0,0,0,.643,42.353C4272.506,989.395,4272.646,991.449,4272.687,992.867Z" transform="translate(-4203.912 -834.484)" fill="#fff"/>
      <g id="Group_692" data-name="Group 692" transform="translate(10.571 121.495)">
        <path id="Rectangle_370" data-name="Rectangle 370" d="M2.26,0h.68A2.261,2.261,0,0,1,5.2,2.261v0A2.259,2.259,0,0,1,2.942,4.521H2.259A2.259,2.259,0,0,1,0,2.261v0A2.26,2.26,0,0,1,2.26,0Z" transform="translate(2.748 1.481) rotate(-16.543)" fill="#3a49cd"/>
        <path id="Path_456" data-name="Path 456" d="M4230.238,1094.422l6.277,21.137a2.721,2.721,0,0,1-1.828,3.374l-8.021,2.382a2.722,2.722,0,0,1-3.375-1.829l-6.277-21.137a2.721,2.721,0,0,1,1.829-3.374l8.021-2.382A2.721,2.721,0,0,1,4230.238,1094.422Z" transform="translate(-4216.902 -1090.652)" fill="#dde8fd"/>
        <path id="Path_457" data-name="Path 457" d="M4231.361,1100.233l6.022,20.281a2.721,2.721,0,0,1-1.829,3.374l-8.021,2.382a2.723,2.723,0,0,1-3.375-1.829l-5.9-19.865a17.778,17.778,0,0,1,5.871-1.083C4226.043,1103.626,4229.641,1101.39,4231.361,1100.233Z" transform="translate(-4217.77 -1095.607)" fill="#fff"/>
        <rect id="Rectangle_371" data-name="Rectangle 371" width="13.802" height="13.826" transform="translate(0.928 10.446) rotate(-16.54)" fill="#3a49cd"/>
      </g>
      <path id="Path_458" data-name="Path 458" d="M4334.825,1047c.06,1.295-2.606,2.717-3.764,3.236a98.839,98.839,0,0,1-15.131,5.537c-14.036-45.348,2.771-89.3,2.771-89.3l15.4,24.542c-.043,2.5-.134,5.029-.277,7.572a324.351,324.351,0,0,0,.643,42.353C4334.644,1043.527,4334.785,1045.581,4334.825,1047Z" transform="translate(-4266.051 -888.617)" fill="#09f" opacity="0.5"/>
      <path id="Path_459" data-name="Path 459" d="M4306.142,919.124c5.033-2.982,15.137-8.393,23.484-9.248a2.717,2.717,0,0,0,2.211-3.789c-2.639-6.027-10.09-18.642-19.165-24.5-.852-.551-1.494-.072-2.378.424-3.351,1.879-10.561,7.437-11,13.99-.394,5.828,1.6,15.937,2.813,21.376A2.718,2.718,0,0,0,4306.142,919.124Z" transform="translate(-4258.958 -834.206)" fill="#fff"/>
      <path id="Path_460" data-name="Path 460" d="M4291.146,836.271s-.034.064-.1.184c-.785,1.409-6.156,10.49-15.029,13.093a72.927,72.927,0,0,1-.676-7.9L4287.8,831.6a34.926,34.926,0,0,1,3.175,4.374Z" transform="translate(-4243.682 -802.418)" fill="#777"/>
      <path id="Path_461" data-name="Path 461" d="M4258.673,801.8s19.4,3.223,21.226-8.892,5.553-19.858-6.759-22.428-15.42,1.69-17.012,5.585S4253.672,800.646,4258.673,801.8Z" transform="translate(-4230.609 -762.85)" fill="#777"/>
      <path id="Path_462" data-name="Path 462" d="M4276.878,756.366a3,3,0,0,1,1.589-2.128,3.63,3.63,0,0,0-2.141,1.051,11.218,11.218,0,0,0-1.006-3.891,23.844,23.844,0,0,1-.128,2.846c-8.411-8.494-28.025.819-32.053,2.675-7.079,3.263-3.109,9.317,1.419,10.8s15.8-3.283,15.953-.159,2.265,6.559,3.436,6.637,2.029-2.421,3.513-.781-1.093,4.243-1.093,4.243c-1.541,2.815,1.628,7.1,1.628,7.1s1.026.6,2.822-1.431C4272.556,781.367,4285.209,768.758,4276.878,756.366Z" transform="translate(-4220.632 -750.726)" fill="#12123c"/>
      <g id="Group_693" data-name="Group 693" transform="translate(35.452 50.362)">
        <path id="Path_463" data-name="Path 463" d="M4318.877,953.238l.6-3.7a32.853,32.853,0,0,1-21.63-12.846,41.849,41.849,0,0,1-7.814-19.165c-1.784-13.267,1.708-20.819,10.675-23.088,8.032-2.033,17.315,4.244,17.407,4.308l2.125-3.087c-.435-.3-10.758-7.306-20.45-4.854-7.558,1.911-16.03,8.186-13.47,27.221a45.269,45.269,0,0,0,8.542,20.93A36.5,36.5,0,0,0,4318.877,953.238Z" transform="translate(-4285.854 -890.288)" fill="#0d0d38"/>
      </g>
      <path id="Path_464" data-name="Path 464" d="M4234.829,1019.215c3.6-.9,10.47.262,11.852.512,0,0,24.822-17.411,29.171-21.762,3.149-3.148-9.484-17.345-16.064-28.373a2.778,2.778,0,0,0,1-.353c5.031-2.983,15.137-8.4,23.482-9.251a2.722,2.722,0,0,0,.884-.244c5.7,12.308,11.573,28.457,12.8,44.606,0,0-20.964,20.464-47.46,24.06,0,0-15.831,4.02-18.34,3.852s-3.514-3.513-3.847-5.354S4230.813,1020.218,4234.829,1019.215Z" transform="translate(-4213.603 -884.319)" fill="#777"/>
    </g>
    <g id="Group_724" data-name="Group 724" transform="translate(39.867 2040.318)" opacity="0.5">
      <g id="Group_714" data-name="Group 714" transform="translate(36.379 251.094)">
        <path id="Path_540" data-name="Path 540" d="M3701.188,1504.918a10.061,10.061,0,0,1,4.6-8.7,39.1,39.1,0,0,1,24.113-6.079c18.9,1.2,23.094,11.7,23.694,19.8s6.9,19.8,8.4,28.794,4.006,31.888-9.379,33.685-58.243,0-58.243,0-10.451-12.251,0-35.785C3700.571,1522.665,3701.347,1511.048,3701.188,1504.918Z" transform="translate(-3680.633 -1483.628)" fill="#00008b"/>
        <g id="Group_713" data-name="Group 713" transform="translate(0)">
          <g id="Group_711" data-name="Group 711" transform="translate(0 6.418)">
            <path id="Path_541" data-name="Path 541" d="M3727.123,1504.918a10.06,10.06,0,0,1,4.6-8.7,39.1,39.1,0,0,1,24.113-6.079c18.9,1.2,23.095,11.7,23.695,19.8s6.9,19.8,8.4,28.794,4.006,31.888-9.379,33.685-58.109.267-58.109.267-10.587-12.518-.135-36.052C3726.507,1522.665,3727.282,1511.048,3727.123,1504.918Z" transform="translate(-3715.697 -1490.046)" fill="#09f"/>
            <path id="Path_542" data-name="Path 542" d="M3765.312,1637.928h-26.795s-1.8,19.6,11,20.2S3765.711,1650.526,3765.312,1637.928Z" transform="translate(-3699.878 -1585.95)" fill="#777"/>
            <path id="Path_543" data-name="Path 543" d="M3765.312,1637.928s-4.6,7-13,6.8-13.8-6.8-13.8-6.8Z" transform="translate(-3699.878 -1585.95)" fill="#00008b"/>
            <path id="Path_544" data-name="Path 544" d="M3857.016,1637.928h-26.794s-1.8,19.6,11,20.2S3857.416,1650.526,3857.016,1637.928Z" transform="translate(-3823.815 -1585.95)" fill="#777"/>
            <path id="Path_545" data-name="Path 545" d="M3857.017,1637.928s-4.6,7-13,6.8-13.8-6.8-13.8-6.8Z" transform="translate(-3823.815 -1585.95)" fill="#00008b"/>
            <path id="Rectangle_372" data-name="Rectangle 372" d="M12,0H26.244a12,12,0,0,1,12,12v0a12,12,0,0,1-12,12H12A12,12,0,0,1,0,12v0A12,12,0,0,1,12,0Z" transform="translate(17.194 12.837)" fill="#777"/>
            <path id="Path_546" data-name="Path 546" d="M3807.234,1523.787s-6.375,9.7-18.017,9.424-19.124-9.424-19.124-9.424Z" transform="translate(-3752.898 -1511.928)" fill="#00008b"/>
          </g>
          <g id="Group_712" data-name="Group 712" transform="translate(26.33)">
            <path id="Path_547" data-name="Path 547" d="M3794.292,1480.974l3.58-.365a5.055,5.055,0,0,1,1.12-3.379c.974-1.111,2.591-1.734,4.8-1.837a6.4,6.4,0,0,1,4.832,1.373,5.591,5.591,0,0,1,1.551,3.627l3.6.015a9.224,9.224,0,0,0-2.634-6.214c-1.809-1.744-4.344-2.488-7.522-2.4-3.257.159-5.74,1.209-7.385,3.121A8.664,8.664,0,0,0,3794.292,1480.974Z" transform="translate(-3794.271 -1471.787)" fill="#09f"/>
          </g>
        </g>
      </g>
      <g id="Group_715" data-name="Group 715" transform="translate(0)">
        <path id="Path_548" data-name="Path 548" d="M3927.134,1676.42s.867,13.98,3.571,14.181c.361.026,13.719.026,13.719.026h17.244s-.3-4.208-5.288-5.076-13.328-4.372-16.347-10.96C3936.857,1667.66,3927.134,1676.42,3927.134,1676.42Z" transform="translate(-3926.151 -1350.484)" fill="#060632"/>
        <path id="Path_549" data-name="Path 549" d="M3863.586,1369.024a35.548,35.548,0,0,0,9.231,1.735,33.888,33.888,0,0,0,8.618-1.23s.976-9.438,6.346-30.234c2.817-10.9,6.836-24.915,12.558-42.33,15.818-48.13,20.628-76.286,21.067-78.952.023-.14.033-.21.033-.21l-.052-.023-48.629-21.352s6.01,66.333-1.658,91.795a107.236,107.236,0,0,0-2.783,12.2C3863.474,1328.077,3863.586,1369.024,3863.586,1369.024Z" transform="translate(-3863.585 -1042.117)" fill="#00008b"/>
        <path id="Path_550" data-name="Path 550" d="M3863.681,1300.421l19.465,38.874c2.817-10.9,6.836-24.915,12.557-42.33,15.818-48.13,20.627-76.286,21.066-78.952,0-.079-.008-.154-.018-.233l-48.63-21.352s6.01,66.333-1.657,91.795A107.126,107.126,0,0,0,3863.681,1300.421Z" transform="translate(-3858.95 -1042.117)" fill="#00008b"/>
        <path id="Path_551" data-name="Path 551" d="M3818.655,1676.42s.866,13.98,3.571,14.181c.36.026,31.109.557,31.109.557a6.517,6.517,0,0,0-5.434-5.607c-4.985-.869-13.327-4.372-16.347-10.96C3828.377,1667.66,3818.655,1676.42,3818.655,1676.42Z" transform="translate(-3779.689 -1350.484)" fill="#060632"/>
        <path id="Path_552" data-name="Path 552" d="M3890.548,1200.875a692.275,692.275,0,0,1-6.8,95.762c-7.437,52.778-4.917,75.182-4.917,75.182a50.672,50.672,0,0,1-7.171,1.823,32.549,32.549,0,0,1-10.641-1.231s-10.645-52.8-7.593-79.214-14.577-90.646-14.577-90.646Z" transform="translate(-3824.012 -1045.001)" fill="#00008b"/>
        <path id="Path_553" data-name="Path 553" d="M3975.753,909.889s-25.113,25.5-26.336,35.415,12.12,25.43,12.12,25.43Z" transform="translate(-3948.039 -856.292)" fill="#00008b"/>
        <path id="Path_554" data-name="Path 554" d="M3870.962,875.477l9.49,6.223,13.716-2.556c-.19-1.107-1.1-5.7-1.92-9.853-.049-.245-.1-.49-.146-.73-.707-3.537-1.317-6.575-1.317-6.575l-12.81-5.652-4.776-2.107c.012.074.37,3.925.42,4.487A32.656,32.656,0,0,1,3870.962,875.477Z" transform="translate(-3838.908 -820.194)" fill="#777"/>
        <path id="Path_555" data-name="Path 555" d="M3888.649,897.775c-.267-.112-18.731-5-20.5-4.414s-2.811,4-2.811,4l26.581,6.009S3892.044,899.2,3888.649,897.775Z" transform="translate(-3834.687 -845.542)" fill="#00008b"/>
        <path id="Path_556" data-name="Path 556" d="M3830.851,1013.93c2.755,12.566,48.6,14.056,60.415,2.649,1.344-1.3,1.41-7.349.9-15.5-.991-15.934-4.176-39.9-4.3-52.151a97.14,97.14,0,0,0-1.956-17.455,141.794,141.794,0,0,0-5.815-20.893s-22.391-7.238-26.58-6.007C3833.333,910.5,3828.1,1001.364,3830.851,1013.93Z" transform="translate(-3822.863 -852.75)" fill="#09f"/>
        <path id="Path_557" data-name="Path 557" d="M3853.331,1046.582c-.991-15.935-4.176-39.9-4.3-52.151a97.1,97.1,0,0,0-1.956-17.455l-13.469-2.377S3820.437,1028.389,3853.331,1046.582Z" transform="translate(-3784.025 -898.257)" fill="#00008b"/>
        <path id="Path_558" data-name="Path 558" d="M3847.922,1112.342a3.171,3.171,0,0,0,1.01,3.669c1.928,1.473,3.179,3.86,2.737,5.6s-4.672,4.59-6.137,4.132-4.122-1.645-4.129-3.678c0-.974-2.007-8.075,1.567-10.83S3847.922,1112.342,3847.922,1112.342Z" transform="translate(-3785.909 -986.228)" fill="#777"/>
        <path id="Path_559" data-name="Path 559" d="M3784.17,914.478s13.18,1.85,23.647,17.275,17.353,26.894,15.425,32.453-19.5,24.841-22.534,24.841-7.92-2.2-8.2-7.161c0,0,11.724-18.595,9.287-21.372-1.042-1.187-15.415-13.335-17.56-7.826C3780.692,961.8,3784.17,914.478,3784.17,914.478Z" transform="translate(-3737.262 -859.268)" fill="#09f"/>
        <path id="Path_560" data-name="Path 560" d="M3876.792,862.775c2.813,4.765,13.3,8.885,17.667,10.4-.05-.245-.1-.49-.146-.73-.707-3.537-1.316-6.575-1.316-6.575l-12.811-5.652C3877.355,860.18,3875.631,860.814,3876.792,862.775Z" transform="translate(-3841.118 -824.079)" fill="#777"/>
        <path id="Path_561" data-name="Path 561" d="M3888.286,811.421s-20.635,6.437-24.446-6.475-9.041-20.778,3.973-25.433,17.04-.488,19.36,3.513S3893.555,809.414,3888.286,811.421Z" transform="translate(-3831.579 -770.408)" fill="#777"/>
        <path id="Path_562" data-name="Path 562" d="M3902.547,768.773s-1.316,15.026-4.422,14.373-5.926-1.135-5.471,3.394,4.764,9.76-4.813,10.561-23.343-23.9-20.712-28.572C3874.719,755.037,3913.519,752.314,3902.547,768.773Z" transform="translate(-3847.764 -757.401)" fill="#0b0754"/>
      </g>
    </g>
  </g>
</svg>
