<svg xmlns="http://www.w3.org/2000/svg" width="1366.149" height="354.787" viewBox="0 0 1366.149 354.787">
  <g id="Group_797" data-name="Group 797" transform="translate(-0.835 -2451.318)">
    <path id="Path_580" data-name="Path 580" d="M1324.66,879.215s.154-192.793.165-192.824c80.292-7.547,173.623,30.849,246.552-87.674,53.251-86.543,239.6-112.81,332.787,5.342s173.294,117.555,237.59,95.7c73.736-25.064,106.129-100.505,221.551-84.552,133.4,18.439,115.538,130.221,213.839,110.756,40.756-8.07,79.544.356,113.666,19.43-.006.012,0,133.824,0,133.824Z" transform="translate(-1323.824 1926.891)" fill="#dde8fd"/>
    <g id="Group_726" data-name="Group 726" transform="translate(66 2458.515)" opacity="0.5">
      <path id="Path_390" data-name="Path 390" d="M2090.632,851.654a12.631,12.631,0,0,0,5.721-1.26c20.58-10.217,1.475-80.413,1.475-80.413a8.713,8.713,0,0,0-4.714-4.858,14.526,14.526,0,0,0-8.383-.72c-10.83,1.8-12.917,6.3-13.349,8.816C2070.916,775.774,2061.129,851.51,2090.632,851.654Z" transform="translate(-1992.07 -727.603)" fill="#09f" opacity="0.5"/>
      <path id="Path_391" data-name="Path 391" d="M2084.635,853.184c20.58-10.217,1.475-80.413,1.475-80.413a8.713,8.713,0,0,0-4.714-4.858c-7.951,2.087-9.606,5.864-10.038,8.1C2070.963,778.384,2062.543,843.4,2084.635,853.184Z" transform="translate(-1980.352 -730.392)" fill="#0d0d38"/>
      <g id="Group_676" data-name="Group 676" transform="translate(58.038 130.33)">
        <path id="Path_392" data-name="Path 392" d="M2205.83,1634.725s-4.689,4.346-3.774,7.434,5.147,5.147,5.719,8.921,2.859,5.833,4.917,5.833h9.815s1.515-2.656-2.145-3.457-5.04-5.236-4.811-9.353a73.725,73.725,0,0,0-.343-9.607l-7.777-1.83Z" transform="translate(-2201.937 -1497.596)" fill="#0d0d38"/>
        <path id="Path_393" data-name="Path 393" d="M1943.817,1674.747s-1.144,9.15.915,10.179,26.648.687,26.648.687,0-3.088-4.232-3.775-11.666-3.2-12.924-8.806S1943.817,1674.747,1943.817,1674.747Z" transform="translate(-1882.396 -1525.768)" fill="#0d0d38"/>
        <path id="Path_394" data-name="Path 394" d="M2002.513,1148.545s-1.39,17.338-3.023,38.178c-2.22,28.31-4.89,63.084-5.154,69.672-.456,11.44-2.288,29.738-2.288,29.738s-4.344,4.347-13.038,2.515c0,0-7.747-26.121-9.96-53.758-.034-.453-.069-.909-.1-1.366-2.059-28.135-5.259-87.379-5.259-87.379Z" transform="translate(-1918.849 -1139.282)" fill="#09f" opacity="0.5"/>
        <path id="Path_395" data-name="Path 395" d="M2002.513,1148.545s-1.39,17.338-3.023,38.178l-30.44,48.166c-.034-.453-.069-.909-.1-1.366-2.059-28.135-5.259-87.379-5.259-87.379Z" transform="translate(-1918.849 -1139.282)" fill="#00008b"/>
        <path id="Path_396" data-name="Path 396" d="M2061.193,1131.426s-25.047,62.789-41.516,92.3-21.616,37.742-21.616,37.742-9.436-3.774-10.294-6.347c0,0,6.3-56.966,17.328-70.852,6.232-7.847,13.552-31.394,13.9-39.629s2.23-24.532,2.23-24.532Z" transform="translate(-1983.875 -1120.103)" fill="#09f" opacity="0.5"/>
      </g>
      <path id="Path_397" data-name="Path 397" d="M1872.8,1087.783l3.392,4.041a5.884,5.884,0,0,0,2.5,1.7c2.006.739,5.311,2.807,3.88,8.228,0,0-1.08,3.123-3.087,2.135s-1.019-.9-3.9-2.234a6.629,6.629,0,0,1-3.966-4.453,5.845,5.845,0,0,0-2.64-3.6l-4.113-2.776Z" transform="translate(-1715.177 -965.97)" fill="#777"/>
      <path id="Path_398" data-name="Path 398" d="M2031.541,737.384a73.546,73.546,0,0,0,1.148-10.473l-12.708-10.242c.472,14.082-8.552,20.854-8.552,20.854s16.935,8.336,26.724,5.248A23.461,23.461,0,0,0,2031.541,737.384Z" transform="translate(-1909.031 -692.653)" fill="#777"/>
      <path id="Path_399" data-name="Path 399" d="M2028.168,679.9s-16.167,2.686-17.685-7.408-4.626-16.545,5.631-18.687,12.847,1.408,14.174,4.653S2032.334,678.943,2028.168,679.9Z" transform="translate(-1901.517 -645.876)" fill="#777"/>
      <path id="Path_400" data-name="Path 400" d="M1940.751,899a27.648,27.648,0,0,0,3.766-5.1s-18.369-22.822-19.862-25.189-12.649-40.328-12.649-40.328l-28.211-5.715s23.547,48.581,27.448,54.5c6.446,9.787,25.732,24.353,25.732,24.353A11.614,11.614,0,0,0,1940.751,899Z" transform="translate(-1781.762 -770.718)" fill="#00008b"/>
      <path id="Path_401" data-name="Path 401" d="M1958.376,873.584c-.036.576.612,1.223,1.367,1.727a13.163,13.163,0,0,0,1.763.972q3.239,1.457,6.368,2.591a58.6,58.6,0,0,0,15.292,3.633c5.721.577,12.09,0,16.947-.467,2.734-.325,4.966-.576,6.332-.576h.18a1.57,1.57,0,0,0,1.044-.4c.216-.144.4-8.707.288-20.221,0-1.62-.035-3.275-.035-5a13.187,13.187,0,0,0-.073-1.69v-.181c-.036-5.4-.216-11.117-.469-16.765V837.1c-.539-12.556-1.51-24.646-3.2-31.373-1.943-7.881-6.477-13.062-10.578-16.911l-3.383-2.987a6.826,6.826,0,0,1-.863.144,15.76,15.76,0,0,1-9.679-1.4c-3.85-1.906-8.095-3.993-8.779-3.489-.072.072-.18.144-.252.216a16.118,16.118,0,0,0-3.238,3.526c-.072.035-.072.035-.072.072h-.036a28.138,28.138,0,0,0-2.231,3.886,46.692,46.692,0,0,0-2.878,7.807c-2.2,7.88-3.275,17.809-3.239,28.424,0,2.7.072,5.432.252,8.2.036.793.072,1.548.109,2.3.323,6.872.287,13.241.107,18.817v.179c-.179,5.65-.5,10.435-.756,14C1958.52,870.669,1958.412,872.4,1958.376,873.584Z" transform="translate(-1864.886 -740.034)" fill="#09f"/>
      <path id="Path_402" data-name="Path 402" d="M2086.133,952.33a270.218,270.218,0,0,0,.537-35.286c-.157-2.771-.24-5.521-.25-8.227,3.348-8.123,6.085-14.013,6.085-14.013h8.44S2107.133,937.067,2086.133,952.33Z" transform="translate(-1992.361 -823.845)" fill="#00008b"/>
      <path id="Path_403" data-name="Path 403" d="M1996.811,651.177s1.659-.277,1.391-2.563-.264-5.272,1.594-4.715,1.95,2.044,2.714,1.176.777-4.529,6.306-4.783,7.775,1.669,10.345.539,2.706-5.021,2.706-5.021a4.421,4.421,0,0,1-1.835,1.831s4.289-5.866-.677-9.889-10.028-1.389-12.9-1.215c-6.331.383-10.421.763-12.49,4.924S1992.748,647.172,1996.811,651.177Z" transform="translate(-1887.857 -625.53)" fill="#0b0754"/>
      <g id="Group_682" data-name="Group 682" transform="translate(0 137.192)">
        <path id="Path_404" data-name="Path 404" d="M2416.594,1681.991a5.944,5.944,0,0,1-3.19,7.83,6.064,6.064,0,0,1-7.92-3.155,5.945,5.945,0,0,1,3.19-7.83A6.063,6.063,0,0,1,2416.594,1681.991Z" transform="translate(-2391.671 -1538.109)" fill="#09f" opacity="0.5"/>
        <path id="Path_405" data-name="Path 405" d="M2252.252,1682.291a5.944,5.944,0,0,1-3.19,7.83,6.064,6.064,0,0,1-7.919-3.155,5.945,5.945,0,0,1,3.19-7.831A6.062,6.062,0,0,1,2252.252,1682.291Z" transform="translate(-2184.022 -1538.329)" fill="#09f" opacity="0.5"/>
        <path id="Path_406" data-name="Path 406" d="M2206.282,1673.646l8.579,3.066a7.855,7.855,0,0,0,2.706.457l48.713-.4,5.334-8.707Z" transform="translate(-2193.842 -1530.528)" fill="#2b276a"/>
        <g id="Group_677" data-name="Group 677" transform="translate(38.342)">
          <path id="Path_407" data-name="Path 407" d="M2167.677,1193.022l13.671-33.42.017-.064c.083-.3,2.215-7.478,14.48-9.06l.056-.009,10.089-1.86c1.3-.337,5.069-.9,6.791.542a3.314,3.314,0,0,1,.941,3.056c-.259,2.8-9.355,24.473-15.406,38.354l1.927.822c1.554-3.566,15.2-34.952,15.569-38.987a5.28,5.28,0,0,0-1.678-4.832c-2.813-2.352-8.081-1.113-8.64-.973l-9.949,1.831c-13.207,1.714-15.92,9.607-16.19,10.513l-13.624,33.307Z" transform="translate(-2165.731 -1146.142)" fill="#2b276a"/>
        </g>
        <path id="Path_408" data-name="Path 408" d="M2131.357,1286.655l26.278,5.248s7.659,3.1,6.114,16.377c-1.36,11.684-7.35,77.25-7.35,77.25s-1.25,13.644-30.719,9.628Z" transform="translate(-2064.941 -1249.627)" fill="#2b276a"/>
        <path id="Path_409" data-name="Path 409" d="M2274.858,1304.345l-7.209,73.426a16.426,16.426,0,0,1-3.006,7.985,16.828,16.828,0,0,1-13.626,7l-24.381.1-.6,0-15.269.063a17.008,17.008,0,0,1-4.423-.561c-.329-.086-.653-.182-.973-.287a16.749,16.749,0,0,1-10.838-11.24,16.341,16.341,0,0,1-.418-7.092l11.2-70.246a16.71,16.71,0,0,1,15.014-13.935l4.308-.4,1.027-.094h0l.863-.079,14.4-1.333,1.767-.162,13.894-1.284a16.956,16.956,0,0,1,6.251.58c.128.037.257.074.385.117l.8.273A16.592,16.592,0,0,1,2274.858,1304.345Z" transform="translate(-2193.903 -1249.249)" fill="#09f" opacity="0.5"/>
        <path id="Path_410" data-name="Path 410" d="M2303.686,1640.222a16.828,16.828,0,0,1-13.626,7l-24.38.1-.6,0-15.269.063a17.006,17.006,0,0,1-4.423-.561q-.494-.129-.974-.287c-5.282-1.744-11.363-8.083-11.437-14.8,0,0,51.575-.566,62.352,1.1C2300.884,1633.713,2302.54,1637.561,2303.686,1640.222Z" transform="translate(-2232.945 -1503.716)" fill="#010117"/>
        <g id="Group_681" data-name="Group 681" transform="translate(6.746 37.546)">
          <g id="Group_678" data-name="Group 678" transform="translate(0 2.2)">
            <path id="Path_411" data-name="Path 411" d="M2403.483,1296.97c-.107.065-11.428,6.855-12.926,12.84-1.539,6.149-11.885,77.834-11.988,78.558a16.525,16.525,0,0,0,5.5,12.161l-.774-.185q-.494-.129-.974-.287a14.818,14.818,0,0,1-4.664-11.814c.426-2.959,10.458-72.457,12.006-78.65,1.358-5.426,9.341-10.821,11.927-12.448l1.027-.094h0Z" transform="translate(-2377.603 -1296.97)" fill="#2b276a"/>
          </g>
          <g id="Group_679" data-name="Group 679" transform="translate(23.787 0.704)">
            <path id="Path_412" data-name="Path 412" d="M2334.52,1291.294a21.762,21.762,0,0,0-9.188,14.351c-1.573,10.1-7.781,83.476-7.844,84.214l0,.053-.016.049c-.011.037-.886,4,1.607,6.692l-.612,0-.6,0a7.78,7.78,0,0,1-1.284-6.926c.193-2.268,6.287-74.207,7.848-84.225a22.6,22.6,0,0,1,8.33-14.051Z" transform="translate(-2316.262 -1291.294)" fill="#2b276a"/>
          </g>
          <g id="Group_680" data-name="Group 680" transform="translate(46.378)">
            <path id="Path_413" data-name="Path 413" d="M2252.312,1289.013a19.069,19.069,0,0,0-4.427,3.6,20.625,20.625,0,0,0-5,10.694c-1.573,10.1-6.523,83.228-6.574,83.964l0,.057-.017.052c-.012.037-.233,4.512,2.26,7.207l-1.536.006c-1.9-2.462-1.779-6.909-1.617-7.436.158-2.338,5.017-73.971,6.577-83.99a20.74,20.74,0,0,1,9.151-14.548c.128.037.258.074.385.117Z" transform="translate(-2235.312 -1288.622)" fill="#2b276a"/>
          </g>
        </g>
      </g>
      <path id="Path_414" data-name="Path 414" d="M2209.576,1097.809l-3.144,7.4a3.709,3.709,0,0,0,0,2.8c.773,1.993,1.408,5.84-3.6,8.353,0,0-3.056,1.256-3.643-.9s0-1.362-.9-4.4c-.793-2.658-.269-5.24,1.337-6.56a2.847,2.847,0,0,0,.906-1.935l.5-4.716Z" transform="translate(-2129.6 -973.354)" fill="#777"/>
      <path id="Path_415" data-name="Path 415" d="M2063.8,875.875a27.64,27.64,0,0,0,6.333.352s9.023-27.871,10.184-30.418,26.8-32.681,26.8-32.681l-10.68-26.729s-27.731,46.321-30.546,52.83c-4.653,10.756-6.268,34.87-6.268,34.87A11.616,11.616,0,0,0,2063.8,875.875Z" transform="translate(-1990.692 -744.007)" fill="#09f"/>
      <path id="Path_416" data-name="Path 416" d="M2033.225,865.161v.179a28.693,28.693,0,0,0,11.909-6.009c6.3-5.144,10.578-12.665,13.277-20.544,4.173-12.268,4.5-25.437,2.374-31.914a11.081,11.081,0,0,0-.971-2.157,15.852,15.852,0,0,0-2.951-3.67,20.646,20.646,0,0,0-11.333-5.109,24.943,24.943,0,0,0-2.555-.216c-1.007-.037-1.655,0-1.834,0h-.036a28.126,28.126,0,0,0-2.231,3.886,16.238,16.238,0,0,1,1.835-.072,18.212,18.212,0,0,1,6.585.9,13.253,13.253,0,0,1,6.944,5.109c4.461,6.259,3.49,15.219,3.49,15.219a74.763,74.763,0,0,1-2.015,12.628,47.577,47.577,0,0,1-8.923,18.782c-6.44,7.986-13.472,9.72-13.472,9.72Z" transform="translate(-1938.693 -750.861)" fill="#0d0d38"/>
    </g>
    <g id="Group_727" data-name="Group 727" transform="translate(233.225 2565.53)" opacity="0.5">
      <path id="Path_563" data-name="Path 563" d="M2514.444,1205.543s-11.489-5.229-20.18-.654-3.378,42.333,9.051,45.993h0S2530,1283.314,2514.444,1205.543Z" transform="translate(-2489.984 -1157.848)" fill="#0d0d38"/>
      <path id="Path_564" data-name="Path 564" d="M2399.546,1194.488c.566-4.417-.535-12.425-.535-12.425s3.9-.2,6.087,4.943c4.529,10.66,2.563,33.67,2.288,36.964,0,0,1.556,6.542-.755,17.856a19.43,19.43,0,0,0,1.076,2.263,1.38,1.38,0,0,1,.112.146h0a1.335,1.335,0,0,1,.02,1.449l-1.5,2.371a1.321,1.321,0,0,1-.566.495h0a1.343,1.343,0,0,1-.232.082l-1.853.438-.183-6.315s.011,0,.021,0C2402.892,1236.541,2399.026,1198.542,2399.546,1194.488Zm4.787,48.727.039-.051-.079.047C2404.313,1243.218,2404.329,1243.22,2404.333,1243.215Z" transform="translate(-2354.744 -1142.419)" fill="#777"/>
      <path id="Path_565" data-name="Path 565" d="M2502.634,1703.085l1.477,5.329h12.474S2520.3,1701.6,2502.634,1703.085Z" transform="translate(-2490.915 -1525.986)" fill="#0d0d38"/>
      <path id="Path_566" data-name="Path 566" d="M2401.125,1703.085l1.477,5.329h12.475S2418.79,1701.6,2401.125,1703.085Z" transform="translate(-2362.656 -1525.986)" fill="#0d0d38"/>
      <path id="Path_567" data-name="Path 567" d="M2425.795,1048.021a10.513,10.513,0,0,1,1.812-8.655c1.555-2.409,3.741-2.514,5.841-4.554a13.52,13.52,0,0,1,8.6-3.184c9.386,0,17.514,5.746,15.662,15.49-.589,3.1-.092,5.536-2.6,9.155-3.132,4.517-6.941,8.143-13.06,8.143a11.706,11.706,0,0,1-8.6-3.115c-1.364-1.289-3.319-1.447-4.519-2.85C2426.5,1055.615,2426.685,1051.88,2425.795,1048.021Z" transform="translate(-2411.65 -1031.627)" fill="#0b0754"/>
      <path id="Path_568" data-name="Path 568" d="M2464.384,1123.99s-2.059,7.96,2.1,11.346l-11.7,5.98-1.54-7.739a38.118,38.118,0,0,0,1.6-14.466Z" transform="translate(-2427.479 -1096.057)" fill="#777"/>
      <path id="Path_569" data-name="Path 569" d="M2454.156,1094.665s-11.975,1.459-12.23-6.977,4.736-13.9,8.067-13.838c6.643.124,7.739,2.808,8.509,5.6S2459.668,1094.071,2454.156,1094.665Z" transform="translate(-2416.95 -1062.723)" fill="#777"/>
      <path id="Path_570" data-name="Path 570" d="M2431.621,1394.791l-23.664,1.956s-2.779,41.5,12.77,79.979l13.259-.252Z" transform="translate(-2382.99 -1299.09)" fill="#00008b"/>
      <path id="Path_571" data-name="Path 571" d="M2458.987,1403.84s-7.281,28.285-1.376,79.9l16.062,0,7.7-67.018c.294-1.985,4.026-4.749,4.026-4.749l.145-7.658Z" transform="translate(-2447.078 -1305.754)" fill="#09f" opacity="0.5"/>
      <path id="Path_572" data-name="Path 572" d="M2394.9,1192.624l-1.548-12.709c.235-.328.423-.61.657-.891,2.72-3.33,13.179-4.783,15.289-5.018a2.384,2.384,0,0,0,.391.5c1.922,1.735,4.533,3.584,8,3.114,2.954-.375,3.437-1.922,3.343-3.611a32.953,32.953,0,0,1,9.711,2.979c6.307,2.364,7.574,23.318,7.574,23.318-.837-.25-5.024.484-6.966.846l.783,31.06c-15.055,6.566-36.723,2.345-36.723,2.345l.047-.187,1.454-24.857-1.36-11.35Z" transform="translate(-2383.529 -1136.485)" fill="#008"/>
      <path id="Path_573" data-name="Path 573" d="M2453.249,1132.4s.261,1.052,2.883.858c0,0,2.2-.162,2.121-1.321A7.09,7.09,0,0,0,2453.249,1132.4Z" transform="translate(-2419.246 -1105.318)" fill="#fff"/>
      <path id="Path_574" data-name="Path 574" d="M2529.626,1283.087c-1.024,1.281-6.069,1.732-9.1.8l1.477-24.822-2.031-16.884,1.962-.911s8.616,6.911,7.609,12.421S2530.944,1281.44,2529.626,1283.087Z" transform="translate(-2508.605 -1186.028)" fill="#f8f8f8"/>
      <path id="Path_575" data-name="Path 575" d="M2503.491,1193.891a75,75,0,0,1,9.521,4.267,4.416,4.416,0,0,1,1.172.891l9.1-18.1,1.735-3.423,1.595-3.236.141-.282s-.126.008-.375.047a53.551,53.551,0,0,0-5.627.938,36.166,36.166,0,0,0-4.878,1.407h-.046a10.987,10.987,0,0,0-4.362,2.626c-.235.281-.422.563-.657.891C2507.76,1184.276,2503.491,1193.891,2503.491,1193.891Z" transform="translate(-2500.985 -1136.485)" fill="#777"/>
      <path id="Path_576" data-name="Path 576" d="M2483.892,1230.269s32.408-34.659,11.725-49.995a21.855,21.855,0,0,0-4.267-2.533,36.137,36.137,0,0,0-4.878,1.407,15.638,15.638,0,0,1,7.41,4.549c5.018,5.58,7.363,17.447-9.708,42.162Z" transform="translate(-2471.583 -1139.237)" fill="#09f" opacity="0.5"/>
      <path id="Path_577" data-name="Path 577" d="M2478.342,1072.777s-10.233-.006-7.882,7.019c1.482,4.428-3.446,5.117-3.446,5.117l-2.372-7.1,1.485-5.529Z" transform="translate(-2442.335 -1061.571)" fill="#0b0754"/>
      <path id="Path_578" data-name="Path 578" d="M2484.3,1249.717c3.162.977,7.938,3.1,9.392,4.531-1.608,3.7-2.513,6.144-2.513,6.144,1.209-.537,7.461-1.045,10.7-1.277.367-.027,3.332-1,3.332-1s.024-5.061,5.813-5.461c0,0,2.411.014,1.917,1.661s-.547.931-1.192,3.269-2.327,4.116-4.117,4.224c-8.594,7.226-20.428,7.284-24,7.119a1.423,1.423,0,0,1-1.323-1.094C2480.961,1261.961,2481.888,1255.87,2484.3,1249.717Z" transform="translate(-2481.494 -1192.246)" fill="#777"/>
    </g>
    <g id="Group_728" data-name="Group 728" transform="translate(1125 2482.524)" opacity="0.5">
      <g id="Group_699" data-name="Group 699" transform="translate(80.497 141.941)">
        <path id="Path_465" data-name="Path 465" d="M5079.44,1692.136a4.776,4.776,0,0,0,2.708,6.394,5.262,5.262,0,0,0,6.759-2.562,4.777,4.777,0,0,0-2.708-6.394A5.263,5.263,0,0,0,5079.44,1692.136Z" transform="translate(-5016.391 -1574.642)" fill="#09f" opacity="0.5"/>
        <path id="Path_466" data-name="Path 466" d="M4951.276,1692.118a4.775,4.775,0,0,0,2.708,6.394,5.262,5.262,0,0,0,6.759-2.561,4.776,4.776,0,0,0-2.708-6.395A5.264,5.264,0,0,0,4951.276,1692.118Z" transform="translate(-4925.164 -1574.629)" fill="#09f" opacity="0.5"/>
        <path id="Path_467" data-name="Path 467" d="M4979.815,1685.618l-7.321,2.488a6.994,6.994,0,0,1-2.31.369l-41.546-.4-4.536-7.114Z" transform="translate(-4906.118 -1568.728)" fill="#2b276a"/>
        <g id="Group_694" data-name="Group 694" transform="translate(9.082)">
          <path id="Path_468" data-name="Path 468" d="M4934.236,1319.375l-11.605-27.291-.014-.052c-.071-.244-1.877-6.105-12.335-7.416l-.048-.007-8.6-1.534c-1.11-.277-4.322-.742-5.792.432a2.634,2.634,0,0,0-.807,2.492c.215,2.289,7.939,19.984,13.078,31.32l-1.645.667c-1.32-2.912-12.907-28.544-13.216-31.837a4.2,4.2,0,0,1,1.439-3.939c2.4-1.914,6.894-.9,7.371-.78l8.482,1.51c11.261,1.42,13.563,7.864,13.791,8.6l11.566,27.2Z" transform="translate(-4893.218 -1281.056)" fill="#2b276a"/>
        </g>
        <path id="Path_469" data-name="Path 469" d="M4889.536,1388.8l-22.42,4.24s-6.538,2.516-5.241,13.353c1.141,9.536,6.144,63.045,6.144,63.045s1.044,11.135,26.186,7.905Z" transform="translate(-4861.704 -1358.563)" fill="#2b276a"/>
        <path id="Path_470" data-name="Path 470" d="M4914.983,1403.245l6.03,59.924a13.061,13.061,0,0,0,2.551,6.52,14.557,14.557,0,0,0,11.61,5.736l20.794.122.514,0,13.024.076a15.129,15.129,0,0,0,3.772-.451c.281-.069.557-.147.831-.233a13.957,13.957,0,0,0,9.261-9.154,12.784,12.784,0,0,0,.369-5.786l-9.444-57.335a14.01,14.01,0,0,0-12.782-11.394l-3.672-.332-.876-.078h0l-.735-.066-12.278-1.111-1.507-.136-11.847-1.07a15.1,15.1,0,0,0-5.333.463c-.109.03-.219.061-.329.1l-.685.221A13.524,13.524,0,0,0,4914.983,1403.245Z" transform="translate(-4899.582 -1358.288)" fill="#09f" opacity="0.5"/>
        <path id="Path_471" data-name="Path 471" d="M4944.92,1660.3a14.558,14.558,0,0,0,11.611,5.737l20.794.122.514,0,13.024.076a15.128,15.128,0,0,0,3.772-.451c.281-.069.557-.147.831-.233,4.507-1.414,9.706-6.577,9.779-12.054,0,0-43.988-.544-53.183.8C4947.321,1654.992,4945.9,1658.129,4944.92,1660.3Z" transform="translate(-4920.937 -1548.897)" fill="#010117"/>
        <g id="Group_698" data-name="Group 698" transform="translate(24.669 30.657)">
          <g id="Group_695" data-name="Group 695" transform="translate(31.978 1.853)">
            <path id="Path_472" data-name="Path 472" d="M5058.256,1396.9c.091.053,9.736,5.612,11,10.5,1.3,5.02,10.01,63.529,10.1,64.12a13.182,13.182,0,0,1-4.711,9.913l.661-.15c.281-.069.557-.147.831-.233a11.769,11.769,0,0,0,4-9.632c-.358-2.416-8.8-59.139-10.113-64.194-1.15-4.429-7.949-8.844-10.153-10.176l-.876-.078h0Z" transform="translate(-5058.256 -1396.896)" fill="#2b276a"/>
          </g>
          <g id="Group_696" data-name="Group 696" transform="translate(18.193 0.607)">
            <path id="Path_473" data-name="Path 473" d="M5010.425,1392.455a17.767,17.767,0,0,1,7.814,11.724c1.324,8.244,6.5,68.125,6.553,68.727l0,.044.013.04a6.368,6.368,0,0,1-1.381,5.458l.522,0,.515,0a6.121,6.121,0,0,0,1.106-5.649c-.161-1.852-5.243-60.56-6.558-68.738a18.348,18.348,0,0,0-7.083-11.479Z" transform="translate(-5010.425 -1392.455)" fill="#2b276a"/>
          </g>
          <g id="Group_697" data-name="Group 697">
            <path id="Path_474" data-name="Path 474" d="M4947.3,1390.609a16.162,16.162,0,0,1,3.77,2.946,16.535,16.535,0,0,1,4.249,8.733c1.324,8.24,5.429,67.922,5.471,68.522l0,.047.015.042c.009.03.19,3.682-1.94,5.878l1.31.008c1.629-2.006,1.527-5.634,1.392-6.065-.131-1.908-4.161-60.366-5.475-68.543a16.945,16.945,0,0,0-7.782-11.885c-.109.03-.219.061-.329.1Z" transform="translate(-4947.299 -1390.292)" fill="#2b276a"/>
          </g>
        </g>
      </g>
      <g id="Group_703" data-name="Group 703">
        <path id="Path_475" data-name="Path 475" d="M4743.019,776.761c-2.622-1.563-6.811.305-6.811.305,1.449-1.982,6.733-1.334,6.733-1.334-10.525-2.181-12.723,4.372-12.9,4.985-7.634-6.709-19.858,7.593-19.858,7.593l17.542,22.641s1.6-3.6,3.713-2.477c3.295,1.753,9.67-5.342,7.633-14.675a24.233,24.233,0,0,0-.779-2.776,5.8,5.8,0,0,0,2.188.528c1.918,0,4.815-4.764,5.207-6.366S4745.642,778.324,4743.019,776.761Z" transform="translate(-4673.35 -775.289)" fill="#0b0754"/>
        <path id="Path_476" data-name="Path 476" d="M4799.6,1000.174c-.387.917-2.074,1.731-4.5,2.318-5.444,1.32-14.623,1.493-21.317-.922-7.179-2.588-12.385-39.535-14.6-58.47-.772-6.605-1.181-11.021-1.181-11.021s4.123-6.286,20.083-4.19,17.57,7.333,19,16.762S4800.852,997.2,4799.6,1000.174Z" transform="translate(-4707.39 -884.754)" fill="#0b0754"/>
        <path id="Path_477" data-name="Path 477" d="M4798.013,1013.692c-5.445,1.32-14.625,1.493-21.318-.922-7.179-2.588-12.386-39.535-14.6-58.47,1.891-6.516,3.392-10.8,3.392-10.8s20.037-2.357,23.938,3.536C4792.913,952.3,4797.155,1003.035,4798.013,1013.692Z" transform="translate(-4710.306 -895.955)" fill="#09f" opacity="0.5"/>
        <path id="Path_478" data-name="Path 478" d="M4640.66,1006.99c-11.834.351-28.87-12.92-28.87-12.92l2.332-3.491c4.3,2.792,19.545,5.411,19.545,5.411-1.068-3.358-1.885-6.464-2.494-9.33-4.137-19.473,1.37-27.885,2.972-29.841a4.87,4.87,0,0,1,.417-.463s.048.136.137.395c.2.558.586,1.684,1.1,3.235C4639.652,971.535,4650.55,1006.7,4640.66,1006.99Z" transform="translate(-4603.318 -905.541)" fill="#777"/>
        <path id="Path_479" data-name="Path 479" d="M4725.508,981.3c-5.488-11.986-8.115-15.375-8.206-19.146-.073-2.982,1.437-6.2,4.371-14.09a28.726,28.726,0,0,0,1.46-5.7c2.32-15.211-6.712-31.654-12.326-32.774-1.562-.4-4.21-5.9-4.178-14.749l-.7.135-11.822,2.279s.269,3.623.278,7.036c.008,2.844-.168,5.54-.831,5.88-.851.075-1.354.124-1.354.124s-9.857,13.33-10.685,25.728,7.893,17.784-.066,42.558C4673.32,1003.876,4728.54,987.92,4725.508,981.3Z" transform="translate(-4652.317 -861.284)" fill="#777"/>
        <path id="Path_480" data-name="Path 480" d="M4727.384,897.593s.27,3.623.278,7.036c6.615-.182,10.111-6.058,11.544-9.315Z" transform="translate(-4685.598 -861.63)" fill="#f8f8f8"/>
        <path id="Path_481" data-name="Path 481" d="M4722.042,830.221s3.466-5.334,4.3-9.9c.595-3.256-1.108-15.326-13.564-13.588a17.219,17.219,0,0,0-7.018,2.584c-2.7,1.779-6.607,5.618-2.243,16.151l1.133,3.558Z" transform="translate(-4667.212 -797.789)" fill="#0d0d38"/>
        <path id="Path_482" data-name="Path 482" d="M4706.846,849.031s15.651.252,15.662-9.242,2.038-15.855-7.955-16.417-11.938,3.059-12.733,6.227S4702.775,848.721,4706.846,849.031Z" transform="translate(-4667.269 -809.835)" fill="#777"/>
        <path id="Path_483" data-name="Path 483" d="M4721.73,817.746s4.285,11.138,10.862,12.785,9.43-.069,9.43-.069a18.067,18.067,0,0,1-6.092-10.714S4724.963,812.445,4721.73,817.746Z" transform="translate(-4681.573 -804.443)" fill="#0b0754"/>
        <path id="Path_484" data-name="Path 484" d="M4705.844,821.259s-3.2,2.486-3.98,4.9-1.132,7.394-2.621,7.225c0,0-3.229-7.57.4-11.853C4703.489,816.994,4705.844,821.259,4705.844,821.259Z" transform="translate(-4664.625 -807.051)" fill="#0b0754"/>
        <path id="Path_485" data-name="Path 485" d="M4709.87,1326.074a148.126,148.126,0,0,1-9.865,26.947l-5.162-.349a138.555,138.555,0,0,0,2.386-27.568c-.1-11.076-1.508-24.165-6-36.664-15.443-42.95-12.948-74.208-12.948-74.208l29.042,3.308,1.353.154c.121,12.988.466,30.622.767,44.411.266,12.4.5,21.691.5,21.691C4715.523,1295.507,4713.5,1312.036,4709.87,1326.074Z" transform="translate(-4650.539 -1091.045)" fill="#00008b"/>
        <path id="Path_486" data-name="Path 486" d="M4818.445,1031.1l-4.7,1.372s-15.5-25.043-16.909-31.56c-.46-2.121-1.587-6.367-2.9-11.123-2.722-9.85-6.234-21.9-6.234-21.9l-1.157-4.879-3.946-16.639s7.555.752,11.974,2.551a5.474,5.474,0,0,1,2.97,2.137c3.247,6.951,6.488,24.493,8.764,37.007,1.271,6.974,2.239,12.388,2.745,13.535C4810.458,1004.8,4814.765,1022.41,4818.445,1031.1Z" transform="translate(-4724.898 -898.356)" fill="#777"/>
        <path id="Path_487" data-name="Path 487" d="M4761.5,1308.372c-1.67,17.354-9.023,28.576-9.023,28.576l-2.465,1.746s-2.333-12.226-3.985-26.773c-1.573-13.826-3.73-28.456-6.169-32.922-9.687-17.71-12.6-84.566-12.6-84.566l29.446-1.422c2.96,4.848,4.252,12.8,4.558,21.841.774,22.817-4.733,52.57-5.556,56.872a.015.015,0,0,1,0,.01,1.467,1.467,0,0,0,.194.962C4761.755,1283.989,4762.6,1296.909,4761.5,1308.372Z" transform="translate(-4685.509 -1075.78)" fill="#09f"/>
        <path id="Path_488" data-name="Path 488" d="M4723.352,819.482s3.052,11.664,11.352,15.4c0,0-8.3-7.166-9-14.866S4723.352,819.482,4723.352,819.482Z" transform="translate(-4682.728 -804.898)" fill="#0d0d38"/>
        <path id="Path_489" data-name="Path 489" d="M4895.043,1245.572s1.429,3.278,2.917,4.193a8.086,8.086,0,0,1,3.209,4.879,4.335,4.335,0,0,1-3.867,5.26c-1.879,0-3.675-2.495-4.779-8.452-.061-.328-1.844-3.745-1.844-3.745Z" transform="translate(-4801.832 -1113.59)" fill="#777"/>
        <path id="Path_490" data-name="Path 490" d="M4715.911,1028.123a6.627,6.627,0,0,1-.182,2.292c-.626,1.92-2.779,2.795-7.98,2.271-3.179-.322-4.6-5.511-5.229-9.937q-2.865,9.5-8.039,10.633c-5.043,1.092-30.48,4.1-32.146-7.671-1.832-12.951,3.653-35.883,3.954-48.248a59.715,59.715,0,0,1-.922-11.458c.212-8.808,2.868-13.745,4.908-15.732.578-.432,1.157-.7,3.478-1.09,1.186-.2,2.829-.424,5.159-.723a9,9,0,0,1,.929-.071c-.431.749-6.192,9.244-5.744,11.429.471,2.287,20.9.228,22.313-1.029s3.639-10.89,3.639-10.89,7.235.77,10.774,3.277l-.038.044a2.931,2.931,0,0,1,.931.953c3.776,7,7.547,24.669,10.2,37.272a19.3,19.3,0,0,1-13.786,1.967C4710.406,1005.927,4715.572,1021.51,4715.911,1028.123Z" transform="translate(-4639.03 -899.457)" fill="#f8f8f8"/>
        <path id="Path_491" data-name="Path 491" d="M4593.258,1054.389c-.179-.437-2.421-6.9-4.125-7.771s-4.841-1.834-5.559-1.484-2.062,5.238,0,7.77,7.351,4.976,7.351,4.976Z" transform="translate(-4582.454 -969.35)" fill="#777"/>
        <path id="Path_492" data-name="Path 492" d="M4687.285,949.9l-.032.052c-.694,1.069-11.549,17.965-12.59,28.951a59.632,59.632,0,0,1-.922-11.458c1.4-4.151,4.785-13.373,8.386-16.822C4682.578,950.185,4687.285,949.9,4687.285,949.9Z" transform="translate(-4647.405 -900.894)" fill="#0b0754"/>
        <g id="Group_700" data-name="Group 700" transform="translate(0 70.846)">
          <path id="Path_493" data-name="Path 493" d="M4599.716,1041.917l-7.176,2.327a.458.458,0,0,1-.575-.28l-4.556-13.324a.44.44,0,0,1,.287-.56l7.177-2.327a.457.457,0,0,1,.574.28l4.556,13.324A.44.44,0,0,1,4599.716,1041.917Z" transform="translate(-4585.947 -1027.73)" fill="#f8f8f8"/>
          <path id="Path_494" data-name="Path 494" d="M4594.3,1044.027l-6.509,2.111a.811.811,0,0,1-1.02-.5l-4.334-12.675a.782.782,0,0,1,.51-.993l6.51-2.11a.811.811,0,0,1,1.019.5l4.334,12.675A.781.781,0,0,1,4594.3,1044.027Z" transform="translate(-4582.396 -1029.235)" fill="#09f" opacity="0.5"/>
        </g>
        <path id="Path_495" data-name="Path 495" d="M4807.861,1604.069c-1.669,17.354-9.022,28.576-9.022,28.576l-2.51,2.226s-2.29-12.707-3.94-27.253C4794.129,1607.741,4801.8,1608.013,4807.861,1604.069Z" transform="translate(-4731.868 -1371.476)" fill="#777"/>
        <path id="Path_496" data-name="Path 496" d="M4751.151,1610.264a148.073,148.073,0,0,1-9.866,26.948l-5.161-.349a138.49,138.49,0,0,0,2.385-27.568C4740.261,1610.154,4743.875,1611.027,4751.151,1610.264Z" transform="translate(-4691.819 -1375.236)" fill="#777"/>
        <g id="Group_701" data-name="Group 701" transform="translate(29.247 254.559)">
          <path id="Path_497" data-name="Path 497" d="M4707.069,1693.971h-3.3c-1.1-.169-1.919-.48-3.051-.624a3.109,3.109,0,0,0-2.668.624.425.425,0,0,0-.03.032h-14c-.352-.49-.014-1.624.317-2.459a1.975,1.975,0,0,1,1.311-1.166c1.485-.418,4.41-.791,7.09-3.154,1.507-1.326,7.28-4.878,7.28-4.878l.031-.006c.127,0,.73.182,3.356,2.342,1.357,1.114,3.67-1.573,3.67-1.573a3.218,3.218,0,0,1,.759,1,3.308,3.308,0,0,1,.3,2.093c-.208,1.228.465,3.51,1,5.054.326.935.6,1.6.6,1.6S4709.9,1693.626,4707.069,1693.971Z" transform="translate(-4683.877 -1682.34)" fill="#0d0d38"/>
          <path id="Path_498" data-name="Path 498" d="M4747.722,1684.11a10.551,10.551,0,0,1-3.548,1.743c-1.487.19-4.268-3.506-4.268-3.506l.031-.006c.127,0,.73.182,3.356,2.342,1.357,1.114,3.67-1.573,3.67-1.573A3.218,3.218,0,0,1,4747.722,1684.11Z" transform="translate(-4723.758 -1682.34)" fill="#0b0754"/>
          <path id="Path_499" data-name="Path 499" d="M4707.069,1716.827h-3.3c-1.1-.169-1.919-.48-3.051-.624a3.109,3.109,0,0,0-2.668.624c-.021.021-.03.032-.03.032h-14c-.352-.49-.014-1.624.317-2.458.426-.368.545,1.6.78,1.912s11.418.114,12.065-.343a6.908,6.908,0,0,1,5.284-.629c2.352.546,5.815-.855,6.672-1.228.326.935.6,1.6.6,1.6S4709.9,1716.482,4707.069,1716.827Z" transform="translate(-4683.877 -1705.195)" fill="#0b0754"/>
        </g>
        <g id="Group_702" data-name="Group 702" transform="translate(46.831 254.559)">
          <path id="Path_500" data-name="Path 500" d="M4768.081,1693.971h-3.295c-1.1-.169-1.919-.48-3.051-.624a3.11,3.11,0,0,0-2.668.624c-.021.021-.031.032-.031.032h-14c-.352-.49-.014-1.624.317-2.459a1.975,1.975,0,0,1,1.311-1.166c1.485-.418,4.41-.791,7.091-3.154,1.509-1.326,7.281-4.878,7.281-4.878l.03-.006c.126,0,.73.182,3.356,2.342,1.358,1.114,3.671-1.573,3.671-1.573a3.221,3.221,0,0,1,.758,1,3.31,3.31,0,0,1,.3,2.093c-.209,1.228.464,3.51,1,5.054.327.935.6,1.6.6,1.6S4770.915,1693.626,4768.081,1693.971Z" transform="translate(-4744.89 -1682.34)" fill="#0d0d38"/>
          <path id="Path_501" data-name="Path 501" d="M4808.735,1684.11a10.556,10.556,0,0,1-3.548,1.743c-1.487.19-4.268-3.506-4.268-3.506l.03-.006c.127,0,.73.182,3.356,2.342,1.358,1.114,3.672-1.573,3.672-1.573A3.23,3.23,0,0,1,4808.735,1684.11Z" transform="translate(-4784.772 -1682.34)" fill="#0b0754"/>
          <path id="Path_502" data-name="Path 502" d="M4768.081,1716.827h-3.295c-1.1-.169-1.919-.48-3.051-.624a3.11,3.11,0,0,0-2.668.624c-.021.021-.031.032-.031.032h-14c-.352-.49-.014-1.624.317-2.458.425-.368.545,1.6.78,1.912s11.419.114,12.065-.343a6.908,6.908,0,0,1,5.284-.629c2.351.546,5.815-.855,6.672-1.228.327.935.6,1.6.6,1.6S4770.915,1716.482,4768.081,1716.827Z" transform="translate(-4744.89 -1705.195)" fill="#0b0754"/>
        </g>
        <path id="Path_503" data-name="Path 503" d="M4799.878,1104.674c-3.494-1.136-7.978-4.159-13.363-10.934-14.254-17.941-1.21-39.024.539-39.417s5.04,13.64,5.04,13.64C4794.373,1082.478,4799.54,1098.061,4799.878,1104.674Z" transform="translate(-4722.997 -976.008)" fill="#777"/>
        <path id="Path_504" data-name="Path 504" d="M4783.263,943.29a39.278,39.278,0,0,0-15.419,29.683c-1.076,20.166,17.572,24.27,17.572,24.27l-1.21-6.373s-15.106-5.326-11.162-21.389,17.382-25.327,17.382-25.327Z" transform="translate(-4714.365 -896.141)" fill="#0b0754"/>
        <path id="Path_505" data-name="Path 505" d="M4584.887,1042.851s1.344-2.706,3.81-1.615,1.39,5.194-.044,6.635a14.224,14.224,0,0,0-1.838,2.1Z" transform="translate(-4584.169 -966.413)" fill="#777"/>
      </g>
    </g>
    <g id="man" transform="translate(384.177 2469.621)" opacity="0.5">
      <path id="Path_445" data-name="Path 445" d="M4191.865,977.422s10.882-28.092,11.844-30.571,6.44-41.082,6.44-41.082l23.3-9.311s-13.127,49.611-15.688,55.846c-4.233,10.3-20.251,26.224-20.251,26.224,1.026,2.069-.062,4.756-2.5,6.52s-1.534,1.507-3.228,2.794-3.268-1.43-3.268-1.43C4185.258,979.7,4191.865,977.422,4191.865,977.422Z" transform="translate(-4187.61 -854.808)" fill="#777"/>
      <path id="Path_446" data-name="Path 446" d="M4336.914,885.474a73.571,73.571,0,0,1,26.436-6.865,18.268,18.268,0,0,1,18.684,12.491q.227.689.433,1.428c3.657,13.155,1.663,52.977-10.64,63.365s-34.912,6.005-34.912,6.005Z" transform="translate(-4294.244 -842.025)" fill="#0d0d38"/>
      <path id="Path_447" data-name="Path 447" d="M4218.234,1221.8s1.319,16.461,2.87,36.249c2.107,26.88,10.131,93.855,10.131,93.855s-1.7,2.67,6.555.931c0,0,10.117-22.813,12.217-49.054.033-.43.065-.864.1-1.3,1.955-26.713,4.995-82.964,4.995-82.964Z" transform="translate(-4209.482 -1085.542)" fill="#09f" opacity="0.5"/>
      <path id="Path_448" data-name="Path 448" d="M4216.659,1207.595s1.77,22.149,3.319,41.937l28.9,45.732c.033-.43.065-.864.1-1.3,1.954-26.713,4.994-82.964,4.994-82.964Z" transform="translate(-4208.357 -1077.025)" fill="#00008b"/>
      <path id="Path_449" data-name="Path 449" d="M4239.215,1182.845l49.679,142.934s5.2-.979,6.36-3.275c0,0,1.429-60.448-6.986-75.032-4.756-8.24-8.073-31.355-7.507-39.159,1.109-15.3-3.449-29.536-3.449-29.536Z" transform="translate(-4224.466 -1056.443)" fill="#09f" opacity="0.5"/>
      <g id="Group_690" data-name="Group 690" transform="translate(1.025 263.406)" opacity="0.5">
        <path id="Path_450" data-name="Path 450" d="M4219.661,1687.058h-4.045c-1.354-.214-2.355-.606-3.744-.787a3.75,3.75,0,0,0-3.275.787.5.5,0,0,0-.038.041h-17.181c-.432-.617-.017-2.047.389-3.1a2.447,2.447,0,0,1,1.609-1.47c1.821-.528,5.414-1,8.7-3.976,1.851-1.671,8.937-6.149,8.937-6.149l.038-.008c.155,0,.9.231,4.12,2.952,1.666,1.4,4.5-1.983,4.5-1.983a4.04,4.04,0,0,1,.932,1.263,4.266,4.266,0,0,1,.369,2.638c-.256,1.548.571,4.425,1.231,6.371.4,1.179.737,2.015.737,2.015S4223.141,1686.622,4219.661,1687.058Z" transform="translate(-4191.195 -1672.396)" fill="#09f"/>
        <path id="Path_451" data-name="Path 451" d="M4219.654,1715.2h-4.027c-1.355-.214-2.365-.663-3.754-.845a3.75,3.75,0,0,0-3.275.787.512.512,0,0,0-.038.041h-17.181c-.432-.617-.017-2.047.389-3.1.522-.464.669,2.015.958,2.41s14.016.144,14.809-.433a8.293,8.293,0,0,1,6.486-.792c2.885.689,7.138-1.078,8.19-1.548.4,1.179.737,2.015.737,2.015S4223.133,1714.77,4219.654,1715.2Z" transform="translate(-4191.195 -1700.485)" fill="#09f"/>
      </g>
      <g id="Group_691" data-name="Group 691" transform="translate(42.324 263.406)" opacity="0.5">
        <path id="Path_452" data-name="Path 452" d="M4364.169,1687.058h-4.045c-1.354-.214-2.355-.606-3.745-.787a3.751,3.751,0,0,0-3.275.787.5.5,0,0,0-.038.041h-17.181c-.432-.617-.017-2.047.39-3.1a2.446,2.446,0,0,1,1.608-1.47c1.822-.528,5.414-1,8.7-3.976,1.852-1.671,8.937-6.149,8.937-6.149l.038-.008c.155,0,.9.231,4.12,2.952,1.666,1.4,4.506-1.983,4.506-1.983a4.047,4.047,0,0,1,.931,1.263,4.272,4.272,0,0,1,.37,2.638c-.257,1.548.57,4.425,1.231,6.371.4,1.179.738,2.015.738,2.015S4367.648,1686.622,4364.169,1687.058Z" transform="translate(-4335.703 -1672.396)" fill="#09f"/>
        <path id="Path_453" data-name="Path 453" d="M4364.162,1715.2h-4.027c-1.355-.214-2.365-.663-3.755-.845a3.751,3.751,0,0,0-3.275.787.512.512,0,0,0-.038.041h-17.181c-.432-.617-.017-2.047.39-3.1.521-.464.668,2.015.958,2.41s14.016.144,14.808-.433a8.292,8.292,0,0,1,6.486-.792c2.887.689,7.138-1.078,8.191-1.548.4,1.179.738,2.015.738,2.015S4367.642,1714.77,4364.162,1715.2Z" transform="translate(-4335.703 -1700.485)" fill="#09f"/>
      </g>
      <path id="Path_454" data-name="Path 454" d="M4282.567,845.188s-16.1,7.923-25.4,4.987a22.322,22.322,0,0,1,6.283-5.122c-.227-1.354-.41-2.592-.553-3.694a57.822,57.822,0,0,1-.536-6.259l9.866-7.953,2.212-1.783a28.194,28.194,0,0,0,.3,5.247c.019.127.038.254.059.379A23.3,23.3,0,0,0,4282.567,845.188Z" transform="translate(-4237.286 -804.032)" fill="#777"/>
      <path id="Path_455" data-name="Path 455" d="M4260.295,969.758c.048,1.025-2.063,2.152-2.98,2.563a78.276,78.276,0,0,1-11.983,4.385,52.926,52.926,0,0,1-8.626,1.564c-8.62.885-18.807-1.057-22.3-1.01a1.516,1.516,0,0,1-.978-.371c-.233-.188-.419-10.716-.233-24,0-.512,0-1.073.045-1.584v-.186c.048-5.173.236-10.624.469-16.027.512-11.927,1.442-23.436,3.029-29.82,1.862-7.5,6.148-12.439,10.062-16.072l2.781-2.767a.748.748,0,0,1,.665-.2,15.392,15.392,0,0,0,9.785-1.085c3.681-1.815,7.688-3.773,8.339-3.307,7.64,5.708,11.442,22.575,11.371,41.75,0,.6-.007,1.214-.016,1.823-.034,1.98-.106,3.983-.22,6a256.89,256.89,0,0,0,.509,33.543C4260.152,967.008,4260.264,968.635,4260.295,969.758Z" transform="translate(-4205.827 -844.321)" fill="#fff"/>
      <g id="Group_692" data-name="Group 692" transform="translate(8.372 96.222)">
        <path id="Rectangle_370" data-name="Rectangle 370" d="M1.79,0h.539A1.791,1.791,0,0,1,4.12,1.791v0A1.789,1.789,0,0,1,2.33,3.58H1.789A1.789,1.789,0,0,1,0,1.791v0A1.79,1.79,0,0,1,1.79,0Z" transform="translate(2.176 1.173) rotate(-16.543)" fill="#3a49cd"/>
        <path id="Path_456" data-name="Path 456" d="M4227.464,1094.019l4.971,16.74a2.155,2.155,0,0,1-1.448,2.672l-6.353,1.887a2.156,2.156,0,0,1-2.672-1.449l-4.972-16.74a2.155,2.155,0,0,1,1.449-2.672l6.353-1.887A2.155,2.155,0,0,1,4227.464,1094.019Z" transform="translate(-4216.902 -1091.033)" fill="#dde8fd"/>
        <path id="Path_457" data-name="Path 457" d="M4228.636,1100.233l4.769,16.062a2.155,2.155,0,0,1-1.448,2.672l-6.353,1.887a2.156,2.156,0,0,1-2.673-1.449l-4.671-15.732a14.078,14.078,0,0,1,4.65-.858C4224.424,1102.92,4227.273,1101.149,4228.636,1100.233Z" transform="translate(-4217.872 -1096.569)" fill="#fff"/>
        <rect id="Rectangle_371" data-name="Rectangle 371" width="10.931" height="10.95" transform="translate(0.735 8.273) rotate(-16.54)" fill="#3a49cd"/>
      </g>
      <path id="Path_458" data-name="Path 458" d="M4329.731,1030.248c.047,1.025-2.064,2.152-2.981,2.563a78.279,78.279,0,0,1-11.983,4.386c-11.116-35.915,2.195-70.728,2.195-70.728l12.2,19.437c-.034,1.98-.106,3.983-.22,6a256.978,256.978,0,0,0,.509,33.543C4329.588,1027.5,4329.7,1029.125,4329.731,1030.248Z" transform="translate(-4275.263 -904.811)" fill="#09f" opacity="0.5"/>
      <path id="Path_459" data-name="Path 459" d="M4304.706,911.264c3.986-2.362,11.988-6.647,18.6-7.325a2.151,2.151,0,0,0,1.751-3c-2.09-4.774-7.992-14.764-15.178-19.406-.675-.436-1.183-.057-1.884.336-2.654,1.488-8.364,5.89-8.715,11.08-.312,4.616,1.271,12.622,2.228,16.93A2.153,2.153,0,0,0,4304.706,911.264Z" transform="translate(-4267.336 -844.01)" fill="#fff"/>
      <path id="Path_460" data-name="Path 460" d="M4287.858,835.3s-.027.05-.081.145c-.622,1.116-4.876,8.308-11.9,10.369a57.715,57.715,0,0,1-.536-6.259l9.866-7.953a27.673,27.673,0,0,1,2.514,3.464Z" transform="translate(-4250.267 -808.489)" fill="#777"/>
      <path id="Path_461" data-name="Path 461" d="M4257.885,795.119s15.367,2.553,16.81-7.042,4.4-15.727-5.353-17.763-12.213,1.338-13.473,4.423S4253.924,794.207,4257.885,795.119Z" transform="translate(-4235.659 -764.274)" fill="#777"/>
      <path id="Path_462" data-name="Path 462" d="M4269.057,755.193a2.376,2.376,0,0,1,1.258-1.685,2.876,2.876,0,0,0-1.7.833,8.891,8.891,0,0,0-.8-3.081,18.957,18.957,0,0,1-.1,2.254c-6.661-6.727-22.2.648-25.385,2.118-5.606,2.584-2.462,7.379,1.124,8.553s12.511-2.6,12.635-.126,1.793,5.194,2.721,5.256,1.607-1.917,2.782-.619-.866,3.36-.866,3.36c-1.22,2.229,1.29,5.626,1.29,5.626s.813.475,2.235-1.133C4265.633,774.993,4275.654,765.007,4269.057,755.193Z" transform="translate(-4224.51 -750.726)" fill="#12123c"/>
      <g id="Group_693" data-name="Group 693" transform="translate(28.078 39.886)">
        <path id="Path_463" data-name="Path 463" d="M4312.008,940.144l.477-2.93a26.021,26.021,0,0,1-17.131-10.174,33.15,33.15,0,0,1-6.188-15.178c-1.413-10.507,1.353-16.488,8.455-18.285,6.361-1.61,13.713,3.361,13.786,3.412l1.683-2.445c-.345-.237-8.52-5.786-16.2-3.844-5.986,1.514-12.7,6.483-10.668,21.558a35.855,35.855,0,0,0,6.765,16.576A28.9,28.9,0,0,0,4312.008,940.144Z" transform="translate(-4285.854 -890.288)" fill="#0d0d38"/>
      </g>
      <path id="Path_464" data-name="Path 464" d="M4233.466,1006.844c2.851-.713,8.292.207,9.386.405,0,0,19.659-13.789,23.1-17.235,2.494-2.493-7.511-13.737-12.723-22.471a2.2,2.2,0,0,0,.792-.279c3.984-2.362,11.988-6.649,18.6-7.327a2.156,2.156,0,0,0,.7-.193c4.513,9.748,9.166,22.538,10.136,35.328,0,0-16.6,16.207-37.587,19.056,0,0-12.538,3.183-14.525,3.051s-2.783-2.782-3.047-4.24S4230.285,1007.639,4233.466,1006.844Z" transform="translate(-4216.655 -900.009)" fill="#777"/>
    </g>
    <g id="Group_736" data-name="Group 736" transform="translate(926.599 2461.898)" opacity="0.5">
      <path id="Path_506" data-name="Path 506" d="M3181.5,956.356s5.374,2.9,6.41,6.292,1.295,42.772,2.979,46.269,3.282,23.575.692,33.246c0,0,1.994,8.593,1.364,10.277s-5.753,3.757-7.6,3.627-2.784-10.837-.759-13.9Z" transform="translate(-3065.818 -902.523)" fill="#777"/>
      <path id="Path_507" data-name="Path 507" d="M3241.506,817.639c3.33-2.905,4.125-7.754,4.293-10.57-.659,5-5.156,9.405-5.156,9.405,5.354-6.346-3.281-29.577,10.239-35.449,8.851-3.844,15.372-1.324,18.822.876,7.72-1.046,16.981,10.081,16.981,10.081l-18.478,24.492s-1.32-3.047-3.166-2.908c1.005,3.88,1.6,7.047-.343,9.038-9.619,9.884-5.693,14.679-11.189,16.373C3246.787,841.05,3233.389,824.72,3241.506,817.639Z" transform="translate(-3176.883 -779.033)" fill="#09f"/>
      <path id="Path_508" data-name="Path 508" d="M3190.756,952.473s5.923.373,8.969,3.87,3.451,32,3.451,32a4.107,4.107,0,0,1-4.377,2.932C3195.259,991.015,3190.756,952.473,3190.756,952.473Z" transform="translate(-3078.737 -899.819)" fill="#09f" opacity="0.5"/>
      <path id="Path_509" data-name="Path 509" d="M3287.169,1006.118c.408.992,2.185,1.873,4.742,2.508,5.735,1.428,15.4,1.615,22.456-1,7.563-2.8,13.047-42.766,15.378-63.25.813-7.145,1.244-11.922,1.244-11.922s-4.344-6.8-21.156-4.533-18.509,7.932-20.019,18.132S3285.849,1002.9,3287.169,1006.118Z" transform="translate(-3235.706 -882.4)" fill="#00008b"/>
      <path id="Path_510" data-name="Path 510" d="M3290.889,1019.469c5.735,1.428,15.4,1.615,22.456-1,7.563-2.8,13.047-42.767,15.379-63.25-1.992-7.049-3.573-11.687-3.573-11.687s-21.107-2.55-25.215,3.825C3296.261,953.06,3291.794,1007.94,3290.889,1019.469Z" transform="translate(-3234.684 -893.243)" fill="#3a49cd"/>
      <path id="Path_511" data-name="Path 511" d="M3209.552,988.365c5.782-12.966,8.548-16.632,8.644-20.712.077-3.226-1.513-6.707-4.6-15.242a31.824,31.824,0,0,1-1.539-6.17c-2.444-16.454,7.071-34.242,12.986-35.453,1.645-.435,4.435-6.378,4.4-15.955l.741.146,12.452,2.465s-.283,3.919-.292,7.611c-.008,3.077.178,5.993.875,6.36.9.081,1.426.135,1.426.135s10.383,14.42,11.257,27.831-8.315,19.237.068,46.037C3264.526,1012.79,3206.358,995.529,3209.552,988.365Z" transform="translate(-3138.055 -859.678)" fill="#777"/>
      <path id="Path_512" data-name="Path 512" d="M3268.633,897.78s-.283,3.919-.292,7.611c-6.968-.2-10.652-6.553-12.161-10.076Z" transform="translate(-3164.055 -860.013)" fill="#777"/>
      <path id="Path_513" data-name="Path 513" d="M3234.983,832.154s-3.652-5.77-4.528-10.7c-.625-3.523,1.168-16.579,14.289-14.7a17.822,17.822,0,0,1,7.393,2.795c2.849,1.924,6.96,6.078,2.363,17.471l-1.194,3.849Z" transform="translate(-3144.145 -798.208)" fill="#09f"/>
      <path id="Path_514" data-name="Path 514" d="M3247.11,851.133s-16.486.272-16.5-10-2.147-17.151,8.379-17.759,12.575,3.309,13.413,6.736S3251.4,850.8,3247.11,851.133Z" transform="translate(-3140.206 -809.87)" fill="#777"/>
      <path id="Path_515" data-name="Path 515" d="M3271.9,817.9s-4.514,12.049-11.441,13.83-9.933-.074-9.933-.074a19.622,19.622,0,0,0,6.417-11.59S3268.494,812.169,3271.9,817.9Z" transform="translate(-3165.604 -804.649)" fill="#09f"/>
      <path id="Path_516" data-name="Path 516" d="M3226.712,821.407s3.372,2.69,4.194,5.306,1.191,8,2.761,7.815c0,0,3.4-8.189-.421-12.822C3229.193,816.794,3226.712,821.407,3226.712,821.407Z" transform="translate(-3121.537 -807.175)" fill="#09f"/>
      <path id="Path_517" data-name="Path 517" d="M3210.645,1335.216a162.943,162.943,0,0,0,10.392,29.15l5.437-.377a153.772,153.772,0,0,1-2.513-29.822c.109-11.981,1.59-26.141,6.324-39.661,16.269-46.461,13.639-80.274,13.639-80.274l-30.593,3.579-1.425.167c-.127,14.05-.49,33.125-.807,48.042-.281,13.415-.527,23.464-.527,23.464C3204.689,1302.15,3206.826,1320.031,3210.645,1335.216Z" transform="translate(-3124.55 -1082.112)" fill="#00008b"/>
      <path id="Path_518" data-name="Path 518" d="M3247.17,1070.339c3.09,8.535,4.681,12.016,4.6,15.242,9.849-15.249,27.639-17.55,27.639-17.55l-33.782-3.862A31.831,31.831,0,0,0,3247.17,1070.339Z" transform="translate(-3171.632 -977.606)" fill="#de8181"/>
      <path id="Path_519" data-name="Path 519" d="M3311.394,1038.028l4.95,1.484s16.327-27.09,17.812-34.14c.485-2.295,1.672-6.887,3.057-12.032,2.868-10.656,6.568-23.694,6.568-23.694l1.218-5.278,4.156-18s-7.958.813-12.613,2.76a5.778,5.778,0,0,0-3.127,2.312c-3.421,7.52-6.834,26.5-9.234,40.032-1.338,7.545-2.358,13.4-2.89,14.642C3319.806,1009.576,3315.271,1028.627,3311.394,1038.028Z" transform="translate(-3261.339 -895.568)" fill="#777"/>
      <path id="Path_520" data-name="Path 520" d="M3256.488,1317.8c1.76,18.773,9.5,30.912,9.5,30.912l2.6,1.888s2.458-13.226,4.2-28.961c1.657-14.956,3.93-30.782,6.5-35.613,10.2-19.158,13.272-91.479,13.272-91.479l-31.017-1.539c-3.12,5.244-4.479,13.845-4.8,23.626-.816,24.682,4.986,56.867,5.853,61.521a.021.021,0,0,0,0,.011,1.624,1.624,0,0,1-.2,1.04C3256.222,1291.426,3255.33,1305.4,3256.488,1317.8Z" transform="translate(-3187.944 -1067.333)" fill="#00008b"/>
      <path id="Path_521" data-name="Path 521" d="M3264.1,819.73s-3.216,12.617-11.957,16.658c0,0,8.741-7.752,9.482-16.081S3264.1,819.73,3264.1,819.73Z" transform="translate(-3158.302 -805.09)" fill="#09f"/>
      <path id="Path_522" data-name="Path 522" d="M3197.081,1034.681a7.353,7.353,0,0,0,.193,2.479c.66,2.077,2.927,3.023,8.406,2.456,3.348-.349,4.842-5.961,5.508-10.749q3.018,10.276,8.468,11.5c5.312,1.182,32.109,4.439,33.862-8.3,1.929-14.01-3.848-38.817-4.166-52.192a66.141,66.141,0,0,0,.973-12.395c-.224-9.528-3.02-14.868-5.171-17.018-.607-.468-1.217-.76-3.662-1.179-1.249-.213-2.98-.459-5.434-.782a9.207,9.207,0,0,0-.979-.076c.453.81,6.523,10,6.049,12.363-.5,2.474-22.019.246-23.5-1.113s-3.833-11.781-3.833-11.781-8.337.208-12.065,2.919c0,0-1.075,1.357-1.268,1.723-3.979,7.573-6.908,26.667-9.7,40.3a19.854,19.854,0,0,0,14.523,2.128C3202.88,1010.67,3197.438,1027.527,3197.081,1034.681Z" transform="translate(-3129.472 -896.633)" fill="#09f" opacity="0.5"/>
      <path id="Path_523" data-name="Path 523" d="M3202.521,949.9s.011.02.033.057c.731,1.156,12.166,19.433,13.261,31.317a66.158,66.158,0,0,0,.973-12.395c-1.47-4.49-5.04-14.466-8.834-18.2C3207.479,950.208,3202.521,949.9,3202.521,949.9Z" transform="translate(-3095.935 -898.025)" fill="#3a49cd"/>
      <path id="Path_524" data-name="Path 524" d="M3321.184,1604.069c1.759,18.773,9.5,30.912,9.5,30.912l2.644,2.408s2.411-13.745,4.151-29.481C3335.649,1608.041,3327.569,1608.336,3321.184,1604.069Z" transform="translate(-3252.639 -1353.599)" fill="#777"/>
      <path id="Path_525" data-name="Path 525" d="M3264.918,1610.344a162.894,162.894,0,0,0,10.393,29.15l5.437-.377a153.666,153.666,0,0,1-2.513-29.822C3276.39,1610.225,3272.582,1611.168,3264.918,1610.344Z" transform="translate(-3178.823 -1357.239)" fill="#777"/>
      <g id="Group_705" data-name="Group 705" transform="translate(90.535 274.232)">
        <path id="Path_526" data-name="Path 526" d="M3215.494,1694.922h3.471c1.164-.183,2.021-.52,3.214-.675a3.217,3.217,0,0,1,2.81.675.365.365,0,0,1,.032.035h14.744c.371-.53.015-1.756-.333-2.66a2.1,2.1,0,0,0-1.381-1.261c-1.563-.452-4.646-.856-7.469-3.412-1.588-1.434-7.669-5.277-7.669-5.277l-.032-.007c-.133,0-.769.2-3.535,2.533-1.43,1.2-3.867-1.7-3.867-1.7a3.469,3.469,0,0,0-.8,1.083,3.663,3.663,0,0,0-.317,2.263c.22,1.328-.49,3.8-1.056,5.467-.344,1.011-.633,1.73-.633,1.73S3212.508,1694.549,3215.494,1694.922Z" transform="translate(-3212.672 -1682.34)" fill="#0d0d38"/>
        <path id="Path_527" data-name="Path 527" d="M3268.7,1684.255a11,11,0,0,0,3.739,1.885c1.566.205,4.5-3.793,4.5-3.793l-.033-.007c-.133,0-.769.2-3.535,2.533-1.43,1.2-3.867-1.7-3.867-1.7A3.469,3.469,0,0,0,3268.7,1684.255Z" transform="translate(-3266.693 -1682.34)" fill="#0b0754"/>
        <path id="Path_528" data-name="Path 528" d="M3215.494,1717.049h3.471c1.164-.182,2.021-.52,3.214-.675a3.218,3.218,0,0,1,2.81.675.381.381,0,0,1,.032.035h14.744c.371-.53.015-1.757-.333-2.66-.449-.4-.574,1.729-.823,2.068s-12.027.124-12.708-.371a7.115,7.115,0,0,0-5.566-.68c-2.476.591-6.125-.925-7.028-1.329-.344,1.012-.633,1.73-.633,1.73S3212.508,1716.676,3215.494,1717.049Z" transform="translate(-3212.672 -1704.466)" fill="#0b0754"/>
      </g>
      <g id="Group_706" data-name="Group 706" transform="translate(72.013 274.232)">
        <path id="Path_529" data-name="Path 529" d="M3276.505,1694.922h3.471c1.163-.183,2.021-.52,3.214-.675a3.22,3.22,0,0,1,2.811.675.282.282,0,0,1,.031.035h14.745c.371-.53.015-1.756-.334-2.66a2.1,2.1,0,0,0-1.381-1.261c-1.563-.452-4.646-.856-7.469-3.412-1.588-1.434-7.669-5.277-7.669-5.277l-.033-.007c-.133,0-.769.2-3.535,2.533-1.43,1.2-3.866-1.7-3.866-1.7a3.468,3.468,0,0,0-.8,1.083,3.663,3.663,0,0,0-.317,2.263c.22,1.328-.49,3.8-1.056,5.467-.344,1.011-.633,1.73-.633,1.73S3273.519,1694.549,3276.505,1694.922Z" transform="translate(-3273.684 -1682.34)" fill="#0d0d38"/>
        <path id="Path_530" data-name="Path 530" d="M3329.715,1684.255a11,11,0,0,0,3.738,1.885c1.566.205,4.495-3.793,4.495-3.793l-.032-.007c-.134,0-.769.2-3.535,2.533-1.43,1.2-3.866-1.7-3.866-1.7A3.472,3.472,0,0,0,3329.715,1684.255Z" transform="translate(-3327.707 -1682.34)" fill="#0b0754"/>
        <path id="Path_531" data-name="Path 531" d="M3276.505,1717.049h3.471c1.163-.182,2.021-.52,3.214-.675a3.222,3.222,0,0,1,2.811.675.292.292,0,0,1,.031.035h14.745c.371-.53.015-1.757-.334-2.66-.448-.4-.574,1.729-.822,2.068s-12.028.124-12.709-.371a7.114,7.114,0,0,0-5.566-.68c-2.476.591-6.126-.925-7.029-1.329-.344,1.012-.633,1.73-.633,1.73S3273.519,1716.676,3276.505,1717.049Z" transform="translate(-3273.684 -1704.466)" fill="#0b0754"/>
      </g>
      <path id="Path_532" data-name="Path 532" d="M3308.72,1108.791c3.68-1.23,8.4-4.5,14.075-11.828,15.016-19.407,1.275-42.214-.567-42.639s-5.309,14.755-5.309,14.755C3314.52,1084.78,3309.077,1101.637,3308.72,1108.791Z" transform="translate(-3241.111 -970.743)" fill="#00008b"/>
      <path id="Path_533" data-name="Path 533" d="M3303.863,946.369s13.191,9.359,14.324,31.174-18.511,26.254-18.511,26.254l1.276-6.894s15.912-5.761,11.757-23.137a49.1,49.1,0,0,0-16.116-26.326Z" transform="translate(-3225.925 -895.568)" fill="#3a49cd"/>
      <path id="Path_534" data-name="Path 534" d="M3310.029,1311.271l13.867,2.365s2.961,1.017,2.636,10.461c-.177,5.166,0,12.614.188,18.3a6.7,6.7,0,0,1-7.825,6.82l-8.758-1.493a1.7,1.7,0,0,1-1.417-1.745Z" transform="translate(-3238.097 -1149.691)" fill="#00008b"/>
      <path id="Path_535" data-name="Path 535" d="M3342.131,1304.371a49.21,49.21,0,0,1,2.307-7.138,14.553,14.553,0,0,0,.6-1.959c.816-3.377.9-7.557,1.673-10.8,0,0,.853-10.662,14.715-7.4,3.194.751,7.009,1.565,11.107,2.381,3.236-1.93,10.775-5.723,17.785-4.09,6.054,1.41,9.769,6.024,11.635,9.1,3.471.47,6.462.805,8.661.95,9.8.642,10.715,8.5,9.475,13.133a23.807,23.807,0,0,0-.514,3.285c-.767,7.315,2.186,16.709-1.808,21.233-.929,1.052-55.663-9.528-71.109-12.125A5.511,5.511,0,0,1,3342.131,1304.371Zm47.628-26.6c-4.7-1.1-9.9.736-13.381,2.43,7.466,1.427,15.493,2.8,22.255,3.792A15.854,15.854,0,0,0,3389.759,1277.773Z" transform="translate(-3342.002 -1124.407)" fill="#09f" opacity="0.5"/>
      <path id="Path_536" data-name="Path 536" d="M3426.118,1245.572s-1.506,3.546-3.073,4.536-4.124,5.063-3.463,6.889c.34.939,3.063,3.8,6.184,3.5,1.97-.188,3.3-8.988,3.876-10.638s1.072-1.979,1.072-1.979Z" transform="translate(-3375.711 -1103.937)" fill="#777"/>
    </g>
  </g>
</svg>
