<svg xmlns="http://www.w3.org/2000/svg" width="156.675" height="158" viewBox="0 0 156.675 158">
  <path id="Path_319" data-name="Path 319" d="M152.092,80.178H119.237v-5.79a3.933,3.933,0,0,0-3.929-3.929H88.762a3.933,3.933,0,0,0-3.929,3.929v5.79h-4.3V58.628a7.67,7.67,0,0,0-7.661-7.662H63.505V9.247a4.6,4.6,0,0,0-4.592-4.592h-3.58V3.611A3.616,3.616,0,0,0,51.721,0H33.756a3.616,3.616,0,0,0-3.611,3.611V4.654h-3.58a4.6,4.6,0,0,0-4.592,4.592v41.72H9.8a7.671,7.671,0,0,0-7.662,7.662V82.472a2.32,2.32,0,1,0,4.639,0V58.628A3.026,3.026,0,0,1,9.8,55.606H72.87a3.026,3.026,0,0,1,3.022,3.022v81.007a3.026,3.026,0,0,1-3.022,3.022H9.8a3.026,3.026,0,0,1-3.023-3.022V91.75a2.32,2.32,0,0,0-4.639,0v47.885A7.67,7.67,0,0,0,9.8,147.3h4.717v8.376a2.32,2.32,0,0,0,4.639,0V147.3H45.252v3.978A6.733,6.733,0,0,0,51.978,158H152.092a6.733,6.733,0,0,0,6.725-6.726V86.9a6.733,6.733,0,0,0-6.725-6.725ZM34.784,4.639h15.91v4.67H34.784ZM26.612,9.294h3.533v1.043a3.615,3.615,0,0,0,3.611,3.611H51.721a3.616,3.616,0,0,0,3.612-3.611V9.294h3.533V50.967H26.612ZM135.351,84.818v68.215h-4.641V84.818ZM80.531,139.636V84.818h21.5a2.32,2.32,0,1,0,0-4.639H89.472V75.1H114.6v5.079h-3.284a2.32,2.32,0,1,0,0,4.639H126.07v68.543H68.154V147.3H72.87A7.67,7.67,0,0,0,80.531,139.636Zm-30.64,11.639V147.3H63.514v6.064H51.978A2.089,2.089,0,0,1,49.891,151.275Zm104.287,0a2.088,2.088,0,0,1-2.086,2.086h-12.1V84.818h12.1a2.088,2.088,0,0,1,2.086,2.086Z" transform="translate(-2.143)" fill="#fff"/>
</svg>
