<svg xmlns="http://www.w3.org/2000/svg" width="159.555" height="359.672" viewBox="0 0 159.555 359.672"><g transform="translate(0)" opacity="0.5"><path d="M3181.5,956.356s6.738,3.634,8.038,7.89,1.624,53.63,3.735,58.015,4.115,29.56.867,41.687c0,0,2.5,10.774,1.71,12.885s-7.213,4.71-9.524,4.547-3.49-13.589-.952-17.433Z" transform="translate(-3036.45 -888.857)" fill="#777"/><path d="M3242.149,827.44c4.175-3.643,5.172-9.723,5.383-13.254-.827,6.266-6.466,11.793-6.466,11.793,6.713-7.958-4.114-37.085,12.839-44.448,11.1-4.819,19.274-1.66,23.6,1.1,9.68-1.311,21.292,12.64,21.292,12.64l-23.168,30.71s-1.655-3.821-3.969-3.646c1.26,4.866,2,8.836-.43,11.333-12.062,12.394-7.139,18.406-14.029,20.53C3248.771,856.795,3231.972,836.319,3242.149,827.44Z" transform="translate(-3161.121 -779.033)" fill="#09f"/><path d="M3190.756,952.473s7.427.468,11.247,4.853,4.327,40.121,4.327,40.121a5.15,5.15,0,0,1-5.488,3.677C3196.4,1000.8,3190.756,952.473,3190.756,952.473Z" transform="translate(-3050.299 -886.452)" fill="#09f" opacity="0.5"/><path d="M3287.265,1026.087c.512,1.243,2.739,2.348,5.946,3.144,7.19,1.79,19.315,2.025,28.156-1.251,9.482-3.51,16.359-53.624,19.283-79.307,1.02-8.959,1.56-14.948,1.56-14.948s-5.447-8.526-26.527-5.684-23.208,9.946-25.1,22.735S3285.61,1022.058,3287.265,1026.087Z" transform="translate(-3222.736 -870.96)" fill="#00008b"/><path d="M3290.89,1038.874c7.19,1.79,19.315,2.025,28.156-1.251,9.482-3.51,16.359-53.624,19.283-79.307-2.5-8.839-4.479-14.654-4.479-14.654s-26.466-3.2-31.617,4.8C3297.625,955.606,3292.023,1024.419,3290.89,1038.874Z" transform="translate(-3220.415 -880.604)" fill="#3a49cd"/><path d="M3209.584,1012.11c7.249-16.258,10.718-20.854,10.839-25.97.1-4.045-1.9-8.409-5.772-19.112a39.857,39.857,0,0,1-1.93-7.736c-3.065-20.632,8.866-42.935,16.282-44.454,2.063-.546,5.561-8,5.518-20.005l.929.183,15.614,3.091s-.355,4.914-.366,9.543c-.01,3.858.223,7.514,1.1,7.975,1.124.1,1.788.169,1.788.169s13.019,18.081,14.115,34.9-10.427,24.121.086,57.725C3278.514,1042.736,3205.58,1021.093,3209.584,1012.11Z" transform="translate(-3119.936 -850.753)" fill="#777"/><path d="M3271.794,898.405s-.355,4.914-.366,9.543c-8.737-.246-13.356-8.216-15.248-12.634Z" transform="translate(-3140.667 -851.051)" fill="#777"/><path d="M3236.16,838.65s-4.58-7.235-5.678-13.421c-.784-4.417,1.465-20.788,17.917-18.43a22.344,22.344,0,0,1,9.27,3.5c3.572,2.412,8.727,7.621,2.963,21.906l-1.5,4.826Z" transform="translate(-3122.26 -796.086)" fill="#09f"/><path d="M3251.345,858.2s-20.672.341-20.686-12.536-2.693-21.505,10.506-22.268,15.768,4.149,16.818,8.446S3256.723,857.775,3251.345,858.2Z" transform="translate(-3117.301 -806.457)" fill="#777"/><path d="M3277.325,818.434s-5.661,15.107-14.347,17.341-12.454-.093-12.454-.093a24.6,24.6,0,0,0,8.046-14.532S3273.056,811.243,3277.325,818.434Z" transform="translate(-3144.045 -801.814)" fill="#09f"/><path d="M3226.713,821.906s4.228,3.373,5.258,6.652,1.494,10.029,3.461,9.8c0,0,4.264-10.268-.527-16.077C3229.823,816.122,3226.713,821.906,3226.713,821.906Z" transform="translate(-3094.836 -804.06)" fill="#09f"/><path d="M3211.59,1365.931a204.275,204.275,0,0,0,13.031,36.551l6.817-.473a192.775,192.775,0,0,1-3.151-37.392c.136-15.023,1.994-32.777,7.929-49.73,20.4-58.256,17.1-100.654,17.1-100.654l-38.359,4.487-1.787.209c-.159,17.616-.615,41.535-1.012,60.238-.352,16.82-.661,29.421-.661,29.421C3204.123,1324.47,3206.8,1346.89,3211.59,1365.931Z" transform="translate(-3103.637 -1048.57)" fill="#00008b"/><path d="M3247.561,1071.905c3.874,10.7,5.869,15.066,5.772,19.112,12.349-19.12,34.656-22.005,34.656-22.005l-42.358-4.842A39.845,39.845,0,0,0,3247.561,1071.905Z" transform="translate(-3152.846 -955.63)" fill="#de8181"/><path d="M3311.394,1061.3l6.207,1.861s20.472-33.968,22.333-42.807c.608-2.877,2.1-8.635,3.833-15.087,3.6-13.361,8.235-29.709,8.235-29.709l1.527-6.618,5.211-22.569s-9.979,1.019-15.814,3.46c-1.933.806-3.407,1.769-3.921,2.9-4.289,9.429-8.569,33.222-11.578,50.2-1.677,9.46-2.956,16.8-3.624,18.359C3321.941,1025.623,3316.254,1049.51,3311.394,1061.3Z" transform="translate(-3248.631 -882.671)" fill="#777"/><path d="M3256.6,1349.484c2.206,23.539,11.917,38.76,11.917,38.76l3.257,2.368s3.082-16.583,5.263-36.314c2.078-18.754,4.928-38.6,8.15-44.654,12.791-24.021,16.642-114.7,16.642-114.7l-38.892-1.929c-3.912,6.576-5.616,17.361-6.021,29.624-1.023,30.949,6.252,71.3,7.339,77.14a.024.024,0,0,0,0,.014,2.03,2.03,0,0,1-.256,1.3C3256.266,1316.411,3255.146,1333.935,3256.6,1349.484Z" transform="translate(-3170.653 -1035.427)" fill="#00008b"/><path d="M3267.139,820.563s-4.032,15.82-14.992,20.887c0,0,10.96-9.72,11.89-20.164S3267.139,820.563,3267.139,820.563Z" transform="translate(-3134.477 -802.206)" fill="#09f"/><path d="M3198.686,1056.713a9.222,9.222,0,0,0,.242,3.109c.828,2.6,3.669,3.79,10.54,3.08,4.2-.437,6.071-7.475,6.906-13.478q3.784,12.885,10.618,14.423c6.66,1.481,40.26,5.566,42.458-10.405,2.419-17.566-4.825-48.671-5.223-65.442a82.967,82.967,0,0,0,1.219-15.542c-.281-11.947-3.786-18.643-6.484-21.339-.762-.586-1.526-.952-4.593-1.478-1.566-.266-3.737-.576-6.813-.98a11.563,11.563,0,0,0-1.227-.1c.568,1.016,8.178,12.539,7.585,15.5-.622,3.1-27.61.309-29.471-1.4s-4.806-14.771-4.806-14.771-10.454.26-15.128,3.66c0,0-1.348,1.7-1.589,2.16-4.988,9.5-8.661,33.437-12.165,50.532a24.9,24.9,0,0,0,18.21,2.668C3205.958,1026.606,3199.135,1047.743,3198.686,1056.713Z" transform="translate(-3113.913 -883.619)" fill="#09f" opacity="0.5"/><path d="M3202.521,949.9s.014.025.042.071c.917,1.45,15.254,24.366,16.628,39.268a82.969,82.969,0,0,0,1.219-15.542c-1.844-5.63-6.32-18.138-11.076-22.817C3208.737,950.287,3202.521,949.9,3202.521,949.9Z" transform="translate(-3068.876 -884.856)" fill="#3a49cd"/><path d="M3321.184,1604.069c2.206,23.539,11.917,38.76,11.917,38.76l3.315,3.019s3.023-17.235,5.2-36.965C3339.322,1609.05,3329.19,1609.419,3321.184,1604.069Z" transform="translate(-3235.237 -1290.012)" fill="#777"/><path d="M3264.918,1610.61a204.252,204.252,0,0,0,13.031,36.55l6.817-.472a192.7,192.7,0,0,1-3.151-37.393C3279.3,1610.46,3274.528,1611.644,3264.918,1610.61Z" transform="translate(-3156.965 -1293.249)" fill="#777"/><g transform="translate(113.519 343.851)"><path d="M3216.21,1698.117h4.352c1.458-.229,2.534-.651,4.03-.847a4.032,4.032,0,0,1,3.523.847.467.467,0,0,1,.041.043h18.488c.465-.665.019-2.2-.417-3.335a2.636,2.636,0,0,0-1.732-1.582c-1.96-.567-5.825-1.073-9.366-4.278-1.991-1.8-9.616-6.616-9.616-6.616l-.041-.009c-.167,0-.965.248-4.432,3.177-1.793,1.51-4.849-2.134-4.849-2.134a4.35,4.35,0,0,0-1,1.358,4.59,4.59,0,0,0-.4,2.838c.276,1.666-.614,4.761-1.324,6.855-.431,1.268-.794,2.169-.794,2.169S3212.466,1697.649,3216.21,1698.117Z" transform="translate(-3212.672 -1682.34)" fill="#0d0d38"/><path d="M3268.7,1684.741c1.04.732,3.233,2.174,4.688,2.363,1.964.257,5.637-4.755,5.637-4.755l-.041-.009c-.167,0-.965.248-4.432,3.177-1.793,1.51-4.849-2.134-4.849-2.134A4.354,4.354,0,0,0,3268.7,1684.741Z" transform="translate(-3266.184 -1682.34)" fill="#0b0754"/><path d="M3216.21,1717.794h4.352c1.458-.229,2.534-.651,4.03-.847a4.035,4.035,0,0,1,3.523.847.484.484,0,0,1,.041.044h18.488c.465-.665.019-2.2-.417-3.335-.563-.5-.72,2.168-1.031,2.593s-15.081.155-15.934-.465a8.924,8.924,0,0,0-6.979-.853c-3.1.741-7.68-1.16-8.813-1.666-.431,1.269-.794,2.169-.794,2.169S3212.466,1717.326,3216.21,1717.794Z" transform="translate(-3212.672 -1702.018)" fill="#0b0754"/></g><g transform="translate(90.295 343.851)"><path d="M3277.222,1698.117h4.352c1.458-.229,2.535-.651,4.03-.847a4.037,4.037,0,0,1,3.524.847.378.378,0,0,1,.039.043h18.489c.465-.665.018-2.2-.418-3.335a2.628,2.628,0,0,0-1.731-1.582c-1.96-.567-5.826-1.073-9.365-4.278-1.992-1.8-9.616-6.616-9.616-6.616l-.041-.009c-.167,0-.964.248-4.433,3.177-1.793,1.51-4.848-2.134-4.848-2.134a4.349,4.349,0,0,0-1,1.358,4.6,4.6,0,0,0-.4,2.838c.276,1.666-.614,4.761-1.325,6.855-.431,1.268-.794,2.169-.794,2.169S3273.478,1697.649,3277.222,1698.117Z" transform="translate(-3273.684 -1682.34)" fill="#0d0d38"/><path d="M3329.715,1684.741c1.039.732,3.232,2.174,4.688,2.363,1.964.257,5.636-4.755,5.636-4.755l-.04-.009c-.168,0-.965.248-4.433,3.177-1.792,1.51-4.848-2.134-4.848-2.134A4.352,4.352,0,0,0,3329.715,1684.741Z" transform="translate(-3327.198 -1682.34)" fill="#0b0754"/><path d="M3277.222,1717.794h4.352c1.458-.229,2.535-.651,4.03-.847a4.04,4.04,0,0,1,3.524.847.389.389,0,0,1,.039.044h18.489c.465-.665.018-2.2-.418-3.335-.561-.5-.72,2.168-1.03,2.593s-15.082.155-15.936-.465a8.922,8.922,0,0,0-6.979-.853c-3.1.741-7.681-1.16-8.813-1.666-.431,1.269-.794,2.169-.794,2.169S3273.478,1717.326,3277.222,1717.794Z" transform="translate(-3273.684 -1702.018)" fill="#0b0754"/></g><path d="M3308.72,1122.621c4.615-1.542,10.538-5.641,17.649-14.831,18.828-24.334,1.6-52.931-.711-53.463s-6.657,18.5-6.657,18.5C3315.992,1092.514,3309.168,1113.651,3308.72,1122.621Z" transform="translate(-3223.947 -949.526)" fill="#00008b"/><path d="M3305.708,946.369s16.54,11.735,17.96,39.089-23.209,32.918-23.209,32.918l1.6-8.644s19.952-7.223,14.742-29.011a61.568,61.568,0,0,0-20.208-33.009Z" transform="translate(-3207.984 -882.671)" fill="#3a49cd"/><path d="M3310.361,1311.271l17.387,2.965s3.713,1.276,3.306,13.117c-.222,6.478-.006,15.816.236,22.948a8.4,8.4,0,0,1-9.812,8.551l-10.981-1.872a2.137,2.137,0,0,1-1.776-2.188Z" transform="translate(-3220.168 -1108.67)" fill="#00008b"/><path d="M3342.164,1311.836a61.682,61.682,0,0,1,2.892-8.95,18.233,18.233,0,0,0,.754-2.456c1.023-4.234,1.129-9.475,2.1-13.54,0,0,1.07-13.369,18.451-9.282,4,.942,8.788,1.962,13.927,2.985,4.058-2.42,13.511-7.176,22.3-5.128,7.591,1.768,12.249,7.553,14.589,11.411,4.353.589,8.1,1.01,10.859,1.191,12.292.806,13.435,10.663,11.88,16.467a29.963,29.963,0,0,0-.645,4.119c-.961,9.172,2.742,20.951-2.267,26.624-1.165,1.32-69.794-11.947-89.162-15.2A6.91,6.91,0,0,1,3342.164,1311.836Zm59.719-33.35c-5.9-1.375-12.414.923-16.778,3.047,9.362,1.79,19.426,3.513,27.9,4.755C3410.693,1283.2,3407.043,1279.687,3401.884,1278.486Z" transform="translate(-3342.002 -1086.185)" fill="#09f" opacity="0.5"/><path d="M3427.8,1245.572s-1.888,4.446-3.853,5.687-5.171,6.349-4.342,8.638c.427,1.177,3.841,4.764,7.754,4.391,2.47-.236,4.137-11.27,4.86-13.339s1.344-2.481,1.344-2.481Z" transform="translate(-3364.601 -1067.98)" fill="#777"/></g></svg>