<svg xmlns="http://www.w3.org/2000/svg" width="120.63" height="331.726" viewBox="0 0 120.63 331.726"><g opacity="0.5"><path d="M4750.026,777.123c-3.182-1.947-8.264.38-8.264.38,1.759-2.47,8.17-1.662,8.17-1.662-12.771-2.718-15.437,5.448-15.658,6.212-9.264-8.359-24.1,9.461-24.1,9.461l21.283,28.212s1.941-4.488,4.506-3.087c4,2.185,11.734-6.656,9.261-18.286a30.524,30.524,0,0,0-.945-3.46,6.891,6.891,0,0,0,2.654.657c2.328,0,5.844-5.937,6.318-7.932S4753.209,779.071,4750.026,777.123Z" transform="translate(-4665.494 -775.29)" fill="#0b0754"/><path d="M4808.476,1018.064c-.47,1.142-2.516,2.157-5.463,2.889-6.6,1.645-17.744,1.86-25.866-1.149-8.71-3.224-15.028-49.262-17.714-72.857-.937-8.23-1.434-13.732-1.434-13.732s5-7.832,24.369-5.222,21.32,9.137,23.06,20.886S4810,1014.364,4808.476,1018.064Z" transform="translate(-4696.591 -874.247)" fill="#0b0754"/><path d="M4805.677,1031.078c-6.605,1.645-17.743,1.86-25.867-1.149-8.709-3.224-15.028-49.262-17.714-72.857,2.295-8.12,4.116-13.462,4.116-13.462s24.313-2.937,29.045,4.406C4799.489,954.583,4804.635,1017.8,4805.677,1031.078Z" transform="translate(-4699.256 -884.372)" fill="#09f" opacity="0.5"/><path d="M4646.821,1019.448c-14.359.438-35.03-16.1-35.03-16.1l2.829-4.35c5.221,3.479,23.716,6.743,23.716,6.743-1.3-4.184-2.288-8.054-3.026-11.625-5.019-24.264,1.663-34.746,3.607-37.184a5.951,5.951,0,0,1,.506-.577s.058.169.166.492c.238.7.711,2.1,1.338,4.031C4645.6,975.27,4658.821,1019.086,4646.821,1019.448Z" transform="translate(-4601.512 -893.038)" fill="#777"/><path d="M4735.084,1002.571c-6.659-14.935-9.846-19.158-9.957-23.857-.089-3.716,1.745-7.725,5.3-17.557a36.39,36.39,0,0,0,1.772-7.107c2.814-18.953-8.145-39.443-14.957-40.838-1.895-.5-5.108-7.347-5.069-18.378l-.852.168-14.346,2.84s.327,4.515.336,8.767c.011,3.544-.2,6.9-1.007,7.326-1.033.093-1.642.155-1.642.155s-11.959,16.61-12.965,32.058,9.578,22.159-.079,53.03C4671.762,1030.706,4738.764,1010.823,4735.084,1002.571Z" transform="translate(-4646.279 -853.029)" fill="#777"/><path d="M4727.386,898.154s.326,4.515.337,8.767c8.026-.227,12.27-7.548,14.007-11.607Z" transform="translate(-4676.684 -853.342)" fill="#f8f8f8"/><path d="M4726.413,836.04s4.205-6.647,5.215-12.33c.722-4.057-1.344-19.1-16.459-16.931a20.525,20.525,0,0,0-8.515,3.219c-3.281,2.216-8.018,7-2.722,20.125l1.375,4.433Z" transform="translate(-4659.885 -795.63)" fill="#0d0d38"/><path d="M4707.959,855.359s18.991.314,19-11.516,2.474-19.756-9.65-20.457-14.486,3.812-15.45,7.759S4703.02,854.972,4707.959,855.359Z" transform="translate(-4659.937 -806.52)" fill="#777"/><path d="M4721.731,818.221s5.2,13.878,13.179,15.93,11.442-.086,11.442-.086a22.6,22.6,0,0,1-7.392-13.35S4725.652,811.615,4721.731,818.221Z" transform="translate(-4673.006 -801.644)" fill="#0b0754"/><path d="M4707.534,821.706s-3.883,3.1-4.829,6.111-1.374,9.214-3.18,9c0,0-3.917-9.433.485-14.769C4704.678,816.392,4707.534,821.706,4707.534,821.706Z" transform="translate(-4657.521 -804.003)" fill="#0b0754"/><path d="M4716.643,1353.592a187.661,187.661,0,0,1-11.97,33.578l-6.263-.435a177.011,177.011,0,0,0,2.895-34.351c-.124-13.8-1.83-30.111-7.284-45.685-18.739-53.518-15.71-92.467-15.71-92.467l35.239,4.123,1.642.192c.147,16.184.564,38.157.93,55.338.323,15.452.607,27.028.607,27.028C4723.5,1315.5,4721.043,1336.1,4716.643,1353.592Z" transform="translate(-4644.653 -1060.736)" fill="#00008b"/><path d="M4826.094,1051.949l-5.7,1.71s-18.807-31.205-20.518-39.325c-.558-2.643-1.926-7.933-3.521-13.86-3.3-12.274-7.564-27.292-7.564-27.292l-1.4-6.079-4.787-20.733s9.167.936,14.529,3.179c1.776.741,3.13,1.625,3.6,2.663,3.938,8.662,7.871,30.52,10.634,46.113,1.542,8.69,2.717,15.436,3.33,16.865C4816.4,1019.177,4821.629,1041.12,4826.094,1051.949Z" transform="translate(-4712.587 -886.543)" fill="#777"/><path d="M4768.811,1336.757c-2.027,21.624-10.948,35.607-10.948,35.607l-2.991,2.176s-2.832-15.235-4.836-33.36c-1.908-17.229-4.527-35.458-7.485-41.022-11.753-22.067-15.291-105.374-15.291-105.374l35.729-1.772c3.592,6.041,5.16,15.948,5.53,27.214.94,28.431-5.743,65.5-6.743,70.865a.038.038,0,0,1,0,.013,1.858,1.858,0,0,0,.235,1.2C4769.117,1306.374,4770.146,1322.473,4768.811,1336.757Z" transform="translate(-4676.601 -1046.935)" fill="#09f"/><path d="M4723.353,820.228s3.7,14.533,13.774,19.188c0,0-10.07-8.929-10.924-18.524S4723.353,820.228,4723.353,820.228Z" transform="translate(-4674.06 -802.056)" fill="#0d0d38"/><path d="M4895.976,1245.572s1.735,4.084,3.539,5.225a10.1,10.1,0,0,1,3.894,6.08c.688,4.044-2.411,6.553-4.691,6.553s-4.459-3.109-5.8-10.532c-.075-.409-2.238-4.666-2.238-4.666Z" transform="translate(-4782.875 -1081.116)" fill="#777"/><path d="M4727.423,1047.862a8.488,8.488,0,0,1-.221,2.856c-.76,2.392-3.373,3.482-9.684,2.829-3.856-.4-5.576-6.867-6.344-12.382q-3.475,11.837-9.754,13.25c-6.12,1.361-36.985,5.114-39.005-9.559-2.222-16.137,4.433-44.712,4.8-60.119a76.386,76.386,0,0,1-1.119-14.277c.258-10.975,3.48-17.127,5.956-19.6.7-.539,1.4-.875,4.22-1.358,1.438-.245,3.433-.529,6.259-.9a10.594,10.594,0,0,1,1.127-.088c-.523.933-7.513,11.519-6.969,14.241.572,2.849,25.364.284,27.074-1.282s4.416-13.57,4.416-13.57,8.779.96,13.073,4.083l-.044.055a3.628,3.628,0,0,1,1.129,1.188c4.581,8.723,9.157,30.738,12.375,46.443a22.869,22.869,0,0,1-16.728,2.451C4720.744,1020.2,4727.012,1039.622,4727.423,1047.862Z" transform="translate(-4634.138 -887.538)" fill="#f8f8f8"/><path d="M4595.558,1056.684c-.218-.545-2.937-8.6-5-9.683s-5.874-2.284-6.745-1.849-2.5,6.527,0,9.682,8.92,6.2,8.92,6.2Z" transform="translate(-4582.448 -950.723)" fill="#777"/><path d="M4690.178,949.9s-.013.023-.038.065c-.843,1.332-14.013,22.385-15.277,36.074a76.386,76.386,0,0,1-1.119-14.277c1.7-5.173,5.806-16.663,10.176-20.961C4684.467,950.256,4690.178,949.9,4690.178,949.9Z" transform="translate(-4641.789 -888.837)" fill="#0b0754"/><g transform="translate(0 88.278)"><path d="M4602.348,1045.408l-8.707,2.9a.552.552,0,0,1-.7-.349l-5.528-16.6a.551.551,0,0,1,.349-.7l8.708-2.9a.55.55,0,0,1,.7.349l5.529,16.6A.551.551,0,0,1,4602.348,1045.408Z" transform="translate(-4585.642 -1027.73)" fill="#f8f8f8"/><path d="M4596.84,1047.521l-7.9,2.63a.977.977,0,0,1-1.236-.619l-5.261-15.793a.982.982,0,0,1,.62-1.237l7.9-2.629a.978.978,0,0,1,1.237.619l5.26,15.793A.979.979,0,0,1,4596.84,1047.521Z" transform="translate(-4582.396 -1029.091)" fill="#09f" opacity="0.5"/></g><path d="M4811.164,1604.069c-2.026,21.624-10.947,35.607-10.947,35.607l-3.046,2.773s-2.778-15.833-4.781-33.958C4794.5,1608.645,4803.809,1608.984,4811.164,1604.069Z" transform="translate(-4718.956 -1314.248)" fill="#777"/><path d="M4754.358,1610.5a187.575,187.575,0,0,1-11.971,33.577l-6.262-.434a177.124,177.124,0,0,0,2.9-34.351C4741.144,1610.366,4745.531,1611.453,4754.358,1610.5Z" transform="translate(-4682.366 -1317.647)" fill="#777"/><g transform="translate(35.488 317.192)"><path d="M4712.017,1696.833h-4c-1.339-.21-2.328-.6-3.7-.778a3.709,3.709,0,0,0-3.238.778.467.467,0,0,0-.036.04h-16.985c-.427-.611-.016-2.023.386-3.064a2.412,2.412,0,0,1,1.589-1.453c1.8-.521,5.352-.986,8.6-3.93,1.829-1.652,8.833-6.078,8.833-6.078l.038-.008c.154,0,.885.228,4.072,2.918,1.646,1.387,4.455-1.96,4.455-1.96a4,4,0,0,1,.92,1.248,4.227,4.227,0,0,1,.364,2.607c-.253,1.531.564,4.374,1.217,6.3.4,1.165.731,1.992.731,1.992S4715.457,1696.4,4712.017,1696.833Z" transform="translate(-4683.878 -1682.34)" fill="#0d0d38"/><path d="M4749.391,1684.546a12.681,12.681,0,0,1-4.306,2.171c-1.8.236-5.179-4.369-5.179-4.369l.038-.008c.154,0,.886.228,4.073,2.918,1.646,1.387,4.453-1.96,4.453-1.96A3.984,3.984,0,0,1,4749.391,1684.546Z" transform="translate(-4720.314 -1682.34)" fill="#0b0754"/><path d="M4712.017,1717.495h-4c-1.339-.21-2.328-.6-3.7-.778a3.711,3.711,0,0,0-3.238.778.537.537,0,0,0-.036.04h-16.985c-.427-.61-.016-2.023.386-3.064.516-.458.661,1.992.946,2.382s13.854.142,14.638-.427a8.2,8.2,0,0,1,6.411-.784c2.854.681,7.056-1.066,8.1-1.53.4,1.165.731,1.992.731,1.992S4715.457,1717.065,4712.017,1717.495Z" transform="translate(-4683.878 -1703.002)" fill="#0b0754"/></g><g transform="translate(56.823 317.192)"><path d="M4773.03,1696.833h-4c-1.339-.21-2.328-.6-3.7-.778a3.713,3.713,0,0,0-3.238.778.378.378,0,0,0-.036.04h-16.984c-.426-.611-.018-2.023.384-3.064a2.422,2.422,0,0,1,1.592-1.453c1.8-.521,5.351-.986,8.6-3.93,1.83-1.652,8.833-6.078,8.833-6.078l.037-.008c.154,0,.886.228,4.072,2.918,1.648,1.387,4.455-1.96,4.455-1.96a3.991,3.991,0,0,1,.92,1.248,4.209,4.209,0,0,1,.365,2.607c-.254,1.531.563,4.374,1.217,6.3.4,1.165.729,1.992.729,1.992S4776.469,1696.4,4773.03,1696.833Z" transform="translate(-4744.89 -1682.34)" fill="#0d0d38"/><path d="M4810.4,1684.546a12.681,12.681,0,0,1-4.306,2.171c-1.8.236-5.177-4.369-5.177-4.369l.036-.008c.154,0,.886.228,4.071,2.918,1.648,1.387,4.454-1.96,4.454-1.96A4,4,0,0,1,4810.4,1684.546Z" transform="translate(-4781.328 -1682.34)" fill="#0b0754"/><path d="M4773.03,1717.495h-4c-1.339-.21-2.328-.6-3.7-.778a3.714,3.714,0,0,0-3.238.778.422.422,0,0,0-.036.04h-16.984c-.426-.61-.018-2.023.384-3.064.516-.458.662,1.992.947,2.382s13.855.142,14.639-.427a8.2,8.2,0,0,1,6.413-.784c2.852.681,7.055-1.066,8.1-1.53.4,1.165.729,1.992.729,1.992S4776.469,1717.065,4773.03,1717.495Z" transform="translate(-4744.89 -1703.002)" fill="#0b0754"/></g><path d="M4804.135,1117.065c-4.238-1.416-9.678-5.182-16.213-13.625-17.3-22.354-1.469-48.625.654-49.115s6.115,17,6.115,17C4797.455,1089.407,4803.725,1108.825,4804.135,1117.065Z" transform="translate(-4710.851 -956.741)" fill="#777"/><path d="M4786.563,943.29s-17.4,11.857-18.71,36.986,21.321,30.241,21.321,30.241l-1.469-7.941s-18.33-6.636-13.544-26.652,21.091-31.558,21.091-31.558Z" transform="translate(-4702.964 -884.541)" fill="#0b0754"/><path d="M4584.888,1043.312s1.631-3.372,4.622-2.012,1.687,6.473-.054,8.267a17.611,17.611,0,0,0-2.23,2.611Z" transform="translate(-4584.017 -948.067)" fill="#777"/></g></svg>