<svg xmlns="http://www.w3.org/2000/svg" width="40" height="40" viewBox="0 0 40 40"><g transform="translate(-120 -306)"><path d="M20,0h0A20,20,0,0,1,40,20v0A20,20,0,0,1,20,40H0a0,0,0,0,1,0,0V20A20,20,0,0,1,20,0Z" transform="translate(120 306)" fill="#00008b"/><path d="M16.789,16.789a5.394,5.394,0,1,0-5.394-5.394A5.393,5.393,0,0,0,16.789,16.789Zm0,2.7C13.188,19.486,6,21.293,6,24.88v2.7H27.577v-2.7C27.577,21.293,20.389,19.486,16.789,19.486Z" transform="translate(123.211 309.211)" fill="#fff"/></g></svg>