<svg xmlns="http://www.w3.org/2000/svg" width="59.835" height="199.214" viewBox="0 0 59.835 199.214"><g opacity="0.5"><path d="M2495.3,1205.776s12.546-5.71,22.038-.714,3.689,46.229-9.884,50.225h0S2478.316,1290.7,2495.3,1205.776Z" transform="translate(-2462.176 -1153.693)" fill="#0d0d38"/><path d="M2408.293,1195.631c-.618-4.823.584-13.568.584-13.568s-4.261-.22-6.647,5.4c-4.946,11.641-2.8,36.768-2.5,40.365,0,0-1.7,7.144.825,19.5a21.259,21.259,0,0,1-1.175,2.471,1.478,1.478,0,0,0-.123.159h0a1.459,1.459,0,0,0-.021,1.582l1.634,2.59a1.44,1.44,0,0,0,.618.54h0a1.45,1.45,0,0,0,.252.09l2.024.478.2-6.9c0-.005-.013-.005-.024,0C2404.639,1241.554,2408.861,1200.059,2408.293,1195.631Zm-5.227,53.211-.043-.056.086.051C2403.087,1248.845,2403.071,1248.848,2403.066,1248.842Z" transform="translate(-2397.382 -1138.772)" fill="#777"/><path d="M2518.223,1703.1l-1.612,5.82h-13.622S2498.933,1701.484,2518.223,1703.1Z" transform="translate(-2471.186 -1509.71)" fill="#0d0d38"/><path d="M2416.716,1703.1l-1.612,5.82h-13.623S2397.426,1701.484,2416.716,1703.1Z" transform="translate(-2398.888 -1509.71)" fill="#0d0d38"/><path d="M2460.641,1049.529c.89-3.858-.208-6.709-1.979-9.452-1.7-2.631-4.085-2.745-6.379-4.973a14.761,14.761,0,0,0-9.386-3.477c-10.25,0-19.126,6.275-17.1,16.916.643,3.381.1,6.045,2.841,10,3.42,4.933,7.58,8.892,14.262,8.892a12.783,12.783,0,0,0,9.386-3.4c1.489-1.407,3.624-1.581,4.935-3.113C2459.866,1057.822,2459.669,1053.744,2460.641,1049.529Z" transform="translate(-2416.253 -1031.627)" fill="#0b0754"/><path d="M2455.546,1124.439s2.249,8.693-2.3,12.39l12.776,6.53,1.682-8.451a41.626,41.626,0,0,1-1.751-15.8Z" transform="translate(-2436.012 -1093.935)" fill="#777"/><path d="M2447.147,1096.581s13.076,1.594,13.355-7.619-5.172-15.18-8.809-15.112c-7.254.135-8.451,3.067-9.292,6.12S2441.127,1095.931,2447.147,1096.581Z" transform="translate(-2427.941 -1061.699)" fill="#777"/><path d="M2410.346,1394.791l25.842,2.136s3.035,45.323-13.945,87.338l-14.479-.275Z" transform="translate(-2403.616 -1290.284)" fill="#00008b"/><path d="M2484.305,1403.84s7.951,30.887,1.5,87.258l-17.54,0-8.412-73.184c-.321-2.167-4.4-5.186-4.4-5.186l-.159-8.363Z" transform="translate(-2437.474 -1296.729)" fill="#09f" opacity="0.5"/><path d="M2440.769,1194.337l1.69-13.879c-.256-.358-.462-.666-.718-.973-2.969-3.636-14.391-5.223-16.7-5.48a2.565,2.565,0,0,1-.427.542c-2.1,1.9-4.951,3.913-8.74,3.4-3.227-.409-3.754-2.1-3.651-3.943a36,36,0,0,0-10.6,3.253c-6.887,2.581-8.271,25.463-8.271,25.463.914-.273,5.486.528,7.607.924l-.854,33.918c16.439,7.17,40.1,2.561,40.1,2.561l-.05-.2-1.588-27.144,1.485-12.395Z" transform="translate(-2393.352 -1133.033)" fill="#008"/><path d="M2458.716,1132.464s-.285,1.149-3.149.937c0,0-2.4-.177-2.316-1.442A7.744,7.744,0,0,1,2458.716,1132.464Z" transform="translate(-2436.012 -1102.892)" fill="#fff"/><path d="M2520.415,1286.934c1.118,1.4,6.627,1.892,9.936.878l-1.612-27.106,2.218-18.437-2.143-1s-9.409,7.548-8.309,13.564S2518.976,1285.135,2520.415,1286.934Z" transform="translate(-2483.535 -1180.944)" fill="#f8f8f8"/><path d="M2528.895,1195.72s-7.273,2.714-10.4,4.66a4.814,4.814,0,0,0-1.28.973l-9.936-19.769-1.9-3.739-1.742-3.534-.153-.307s.138.009.41.051a58.513,58.513,0,0,1,6.145,1.024,39.433,39.433,0,0,1,5.327,1.537h.051a12,12,0,0,1,4.764,2.868c.256.307.461.615.717.973C2524.233,1185.221,2528.895,1195.72,2528.895,1195.72Z" transform="translate(-2471.797 -1133.033)" fill="#777"/><path d="M2504.231,1235.1s-35.39-37.848-12.8-54.595a23.883,23.883,0,0,1,4.66-2.766,39.486,39.486,0,0,1,5.327,1.537,17.078,17.078,0,0,0-8.092,4.968c-5.48,6.094-8.041,19.052,10.6,46.042Z" transform="translate(-2457.838 -1135.694)" fill="#09f" opacity="0.5"/><path d="M2464.642,1072.822s11.175-.006,8.607,7.665c-1.619,4.836,3.763,5.587,3.763,5.587l2.589-7.75-1.622-6.038Z" transform="translate(-2444.127 -1060.586)" fill="#0b0754"/><path d="M2513.04,1249.717c-3.454,1.067-8.669,3.387-10.256,4.948,1.755,4.038,2.743,6.709,2.743,6.709-1.32-.586-8.147-1.141-11.687-1.394-.4-.03-3.638-1.091-3.638-1.091s-.027-5.527-6.348-5.964c0,0-2.633.016-2.093,1.813s.6,1.017,1.3,3.57,2.541,4.5,4.5,4.612c9.384,7.891,22.307,7.955,26.2,7.774a1.553,1.553,0,0,0,1.446-1.195C2516.687,1263.088,2515.674,1256.436,2513.04,1249.717Z" transform="translate(-2456.269 -1186.958)" fill="#777"/></g></svg>