<svg xmlns="http://www.w3.org/2000/svg" width="131.019" height="226.689" viewBox="0 0 131.019 226.689"><g transform="translate(0)" opacity="0.5"><path d="M2086,832.492a9.865,9.865,0,0,0,4.469-.984c16.074-7.98,1.152-62.808,1.152-62.808a6.805,6.805,0,0,0-3.682-3.794,11.343,11.343,0,0,0-6.547-.562c-8.459,1.4-10.089,4.918-10.427,6.885C2070.6,773.224,2062.953,832.379,2086,832.492Z" transform="translate(-2009.012 -735.599)" fill="#09f" opacity="0.5"/><path d="M2081.313,834.515c16.074-7.98,1.152-62.808,1.152-62.808a6.806,6.806,0,0,0-3.682-3.794c-6.211,1.63-7.5,4.581-7.841,6.323C2070.634,776.091,2064.058,826.872,2081.313,834.515Z" transform="translate(-1999.86 -738.606)" fill="#0d0d38"/><g transform="translate(45.332 101.797)"><path d="M2204.978,1634.275s-3.663,3.4-2.948,5.807,4.02,4.02,4.467,6.968,2.233,4.556,3.841,4.556H2218s1.184-2.075-1.674-2.7-3.937-4.09-3.758-7.305a57.593,57.593,0,0,0-.268-7.5l-6.074-1.429Z" transform="translate(-2201.937 -1527.167)" fill="#0d0d38"/><path d="M1943.747,1673.909s-.893,7.146.715,7.95,20.814.536,20.814.536,0-2.412-3.306-2.948-9.111-2.5-10.094-6.878S1943.747,1673.909,1943.747,1673.909Z" transform="translate(-1895.773 -1557.546)" fill="#0d0d38"/><path d="M1994.013,1148.02s-1.085,13.542-2.361,29.82c-1.734,22.112-3.819,49.273-4.025,54.418-.356,8.935-1.787,23.227-1.787,23.227s-3.393,3.4-10.184,1.964a233.826,233.826,0,0,1-7.78-41.989c-.027-.354-.054-.71-.081-1.067-1.608-21.975-4.108-68.25-4.108-68.25Z" transform="translate(-1928.665 -1140.784)" fill="#09f" opacity="0.5"/><path d="M1994.013,1148.02s-1.085,13.542-2.361,29.82l-23.776,37.621c-.027-.354-.054-.71-.081-1.067-1.608-21.975-4.108-68.25-4.108-68.25Z" transform="translate(-1928.665 -1140.784)" fill="#00008b"/><path d="M2045.119,1128.947s-19.564,49.043-32.428,72.09-16.883,29.479-16.883,29.479-7.37-2.948-8.04-4.958c0,0,4.919-44.494,13.534-55.341,4.868-6.129,10.586-24.521,10.854-30.953s1.742-19.162,1.742-19.162Z" transform="translate(-1984.728 -1120.103)" fill="#09f" opacity="0.5"/></g><path d="M1871.06,1087.783l2.649,3.156a4.59,4.59,0,0,0,1.955,1.326c1.566.577,4.148,2.192,3.03,6.426,0,0-.843,2.439-2.411,1.667s-.8-.707-3.043-1.745a5.178,5.178,0,0,1-3.1-3.478,4.566,4.566,0,0,0-2.062-2.813l-3.212-2.168Z" transform="translate(-1747.948 -992.638)" fill="#777"/><path d="M2027.138,732.849a57.437,57.437,0,0,0,.9-8.18l-9.926-8c.368,11-6.68,16.289-6.68,16.289s13.227,6.511,20.873,4.1A18.324,18.324,0,0,0,2027.138,732.849Z" transform="translate(-1931.449 -697.911)" fill="#777"/><path d="M2023.935,674.047s-12.628,2.1-13.813-5.786-3.614-12.923,4.4-14.6,10.035,1.1,11.071,3.635S2027.189,673.3,2023.935,674.047Z" transform="translate(-1925.011 -647.47)" fill="#777"/><path d="M1928.282,882.291a21.6,21.6,0,0,0,2.941-3.987s-14.347-17.826-15.514-19.674-9.88-31.5-9.88-31.5l-22.035-4.463s18.393,37.945,21.439,42.571c5.035,7.644,20.1,19.021,20.1,19.021A9.068,9.068,0,0,0,1928.282,882.291Z" transform="translate(-1804.099 -782.092)" fill="#00008b"/><path d="M1958.376,853.316c-.028.45.478.955,1.067,1.349a10.261,10.261,0,0,0,1.377.759q2.529,1.138,4.974,2.024a45.778,45.778,0,0,0,11.944,2.838,70.167,70.167,0,0,0,13.236-.365c2.136-.254,3.879-.45,4.946-.45h.141a1.227,1.227,0,0,0,.815-.309c.169-.113.309-6.8.225-15.794,0-1.265-.028-2.558-.028-3.907a10.388,10.388,0,0,0-.056-1.32V838c-.028-4.215-.169-8.683-.366-13.095v-.085c-.421-9.807-1.18-19.25-2.5-24.5-1.518-6.155-5.059-10.2-8.262-13.209l-2.642-2.333a5.319,5.319,0,0,1-.675.113,12.307,12.307,0,0,1-7.559-1.1c-3.007-1.489-6.323-3.119-6.857-2.725-.056.056-.141.112-.2.169a12.578,12.578,0,0,0-2.53,2.754c-.056.027-.056.027-.056.056h-.028a21.95,21.95,0,0,0-1.743,3.035,36.472,36.472,0,0,0-2.248,6.1,84.328,84.328,0,0,0-2.53,22.2c0,2.107.056,4.243.2,6.406.028.619.056,1.209.085,1.8.252,5.368.224,10.342.084,14.7v.14c-.14,4.413-.394,8.151-.59,10.932C1958.488,851.039,1958.4,852.388,1958.376,853.316Z" transform="translate(-1885.353 -749.003)" fill="#09f"/><path d="M2086.134,939.736a211.081,211.081,0,0,0,.419-27.561c-.123-2.165-.187-4.312-.195-6.426,2.615-6.344,4.752-10.945,4.752-10.945h6.592S2102.535,927.814,2086.134,939.736Z" transform="translate(-2012.891 -839.38)" fill="#00008b"/><path d="M1995.95,645.562s1.3-.216,1.087-2-.206-4.118,1.245-3.683,1.523,1.6,2.12.918.607-3.537,4.925-3.736,6.073,1.3,8.08.421,2.114-3.922,2.114-3.922a3.454,3.454,0,0,1-1.434,1.43s3.35-4.582-.528-7.724-7.833-1.085-10.078-.949c-4.945.3-8.14.6-9.756,3.846S1992.776,642.434,1995.95,645.562Z" transform="translate(-1910.849 -625.53)" fill="#0b0754"/><g transform="translate(0 107.157)"><path d="M2414.055,1681.2a4.643,4.643,0,0,1-2.491,6.116,4.736,4.736,0,0,1-6.186-2.464,4.643,4.643,0,0,1,2.492-6.116A4.735,4.735,0,0,1,2414.055,1681.2Z" transform="translate(-2394.588 -1568.813)" fill="#09f" opacity="0.5"/><path d="M2249.714,1681.5a4.642,4.642,0,0,1-2.491,6.116,4.736,4.736,0,0,1-6.186-2.464,4.643,4.643,0,0,1,2.492-6.116A4.736,4.736,0,0,1,2249.714,1681.5Z" transform="translate(-2196.421 -1569.052)" fill="#09f" opacity="0.5"/><path d="M2206.282,1672.424l6.7,2.395a6.137,6.137,0,0,0,2.114.357l38.048-.31,4.167-6.8Z" transform="translate(-2196.565 -1560.639)" fill="#2b276a"/><g transform="translate(29.948)"><path d="M2167.251,1182.759l10.677-26.1.013-.05c.065-.234,1.73-5.84,11.31-7.076l.044-.007,7.88-1.452c1.018-.263,3.96-.7,5.3.424a2.589,2.589,0,0,1,.735,2.386c-.2,2.191-7.308,19.115-12.034,29.957l1.506.641c1.214-2.785,11.87-27.3,12.16-30.451a4.123,4.123,0,0,0-1.311-3.774c-2.2-1.837-6.311-.87-6.748-.76l-7.771,1.43c-10.315,1.339-12.435,7.5-12.645,8.212l-10.641,26.015Z" transform="translate(-2165.731 -1146.142)" fill="#2b276a"/></g><path d="M2130.114,1286.655l20.525,4.1s5.982,2.42,4.776,12.792c-1.063,9.126-5.741,60.338-5.741,60.338s-.977,10.657-23.994,7.52Z" transform="translate(-2078.239 -1257.734)" fill="#2b276a"/><path d="M2257.134,1300.36l-5.631,57.35a12.828,12.828,0,0,1-2.348,6.237,13.143,13.143,0,0,1-10.642,5.471l-19.043.079-.471,0-11.927.05a13.285,13.285,0,0,1-3.454-.438q-.386-.1-.761-.224a13.082,13.082,0,0,1-8.465-8.779,12.773,12.773,0,0,1-.327-5.54l8.752-54.867a13.051,13.051,0,0,1,11.727-10.884l3.365-.312.8-.073h0l.674-.062,11.246-1.041,1.38-.127,10.852-1a13.243,13.243,0,0,1,4.882.453c.1.029.2.058.3.092l.627.213A12.96,12.96,0,0,1,2257.134,1300.36Z" transform="translate(-2193.902 -1257.327)" fill="#09f" opacity="0.5"/><path d="M2288.2,1638.347a13.143,13.143,0,0,1-10.643,5.471l-19.044.079-.471,0-11.926.05a13.287,13.287,0,0,1-3.455-.438q-.386-.1-.76-.224c-4.126-1.362-8.876-6.314-8.934-11.556,0,0,40.284-.443,48.7.86C2286.016,1633.264,2287.309,1636.269,2288.2,1638.347Z" transform="translate(-2232.951 -1531.726)" fill="#010117"/><g transform="translate(5.27 29.326)"><g transform="translate(0 1.718)"><path d="M2397.817,1296.97c-.084.051-8.927,5.354-10.1,10.029-1.2,4.8-9.283,60.794-9.364,61.359a12.907,12.907,0,0,0,4.3,9.5l-.6-.145q-.386-.1-.76-.224a11.575,11.575,0,0,1-3.643-9.227c.333-2.312,8.169-56.594,9.378-61.431,1.061-4.238,7.3-8.452,9.316-9.723l.8-.073h0Z" transform="translate(-2377.603 -1296.97)" fill="#2b276a"/></g><g transform="translate(18.58 0.55)"><path d="M2330.523,1291.294a17,17,0,0,0-7.177,11.209c-1.228,7.889-6.078,65.2-6.126,65.777l0,.042-.013.039a6.32,6.32,0,0,0,1.255,5.226l-.478,0-.471,0a6.078,6.078,0,0,1-1-5.41c.151-1.772,4.911-57.961,6.13-65.786a17.651,17.651,0,0,1,6.506-10.975Z" transform="translate(-2316.262 -1291.294)" fill="#2b276a"/></g><g transform="translate(36.224)"><path d="M2248.59,1288.927a14.885,14.885,0,0,0-3.458,2.813,16.106,16.106,0,0,0-3.906,8.353c-1.229,7.885-5.1,65.007-5.135,65.582l0,.045-.014.041c-.009.029-.181,3.524,1.766,5.629l-1.2,0c-1.488-1.923-1.389-5.4-1.263-5.808.123-1.826,3.919-57.777,5.138-65.6a16.2,16.2,0,0,1,7.147-11.363c.1.029.2.058.3.091Z" transform="translate(-2235.312 -1288.622)" fill="#2b276a"/></g></g></g><path d="M2207.024,1097.809l-2.456,5.783a2.9,2.9,0,0,0,0,2.185c.6,1.557,1.1,4.561-2.814,6.524,0,0-2.387.981-2.846-.705s0-1.064-.7-3.436c-.619-2.076-.21-4.093,1.044-5.123a2.223,2.223,0,0,0,.708-1.511l.387-3.683Z" transform="translate(-2144.556 -1000.601)" fill="#777"/><path d="M2062.882,856.286a21.6,21.6,0,0,0,4.947.275s7.047-21.77,7.954-23.759,20.933-25.526,20.933-25.526l-8.342-20.877s-21.66,36.18-23.859,41.264c-3.634,8.4-4.9,27.236-4.9,27.236A9.066,9.066,0,0,0,2062.882,856.286Z" transform="translate(-2005.781 -753.288)" fill="#09f"/><path d="M2033.225,849.956v.14a22.416,22.416,0,0,0,9.3-4.693c4.918-4.017,8.262-9.892,10.37-16.047,3.26-9.582,3.512-19.868,1.854-24.927a8.638,8.638,0,0,0-.758-1.685,12.408,12.408,0,0,0-2.3-2.866,16.13,16.13,0,0,0-8.852-3.99,19.5,19.5,0,0,0-2-.169c-.787-.029-1.293,0-1.433,0h-.028a21.981,21.981,0,0,0-1.743,3.035,12.66,12.66,0,0,1,1.433-.056,14.224,14.224,0,0,1,5.143.7,10.353,10.353,0,0,1,5.424,3.99c3.485,4.889,2.726,11.887,2.726,11.887a58.393,58.393,0,0,1-1.573,9.863,37.162,37.162,0,0,1-6.969,14.67c-5.03,6.238-10.522,7.592-10.522,7.592Z" transform="translate(-1959.388 -760.679)" fill="#0d0d38"/></g></svg>