<svg xmlns="http://www.w3.org/2000/svg" width="248.338" height="317.29" viewBox="0 0 248.338 317.29"><g transform="translate(-517.98 -280)"><g transform="translate(517.98 280)" opacity="0.5"><path d="M2086.13,859.708a13.791,13.791,0,0,1-6.247-1.376c-22.473-11.157-1.611-87.812-1.611-87.812a9.514,9.514,0,0,1,5.147-5.3,15.859,15.859,0,0,1,9.153-.786c11.827,1.964,14.106,6.876,14.578,9.627C2107.661,776.846,2118.348,859.551,2086.13,859.708Z" transform="translate(-2010.584 -724.242)" fill="#09f" opacity="0.5"/><path d="M2079.883,861.03c-22.473-11.157-1.611-87.812-1.611-87.812a9.514,9.514,0,0,1,5.147-5.3c8.683,2.28,10.49,6.4,10.962,8.841C2094.813,779.347,2104.008,850.344,2079.883,861.03Z" transform="translate(-2010.584 -726.94)" fill="#0d0d38"/><g transform="translate(22.628 142.322)"><path d="M2220.488,1634.915s5.121,4.747,4.122,8.119-5.62,5.621-6.245,9.742-3.122,6.37-5.37,6.37h-10.718s-1.655-2.9,2.341-3.775,5.5-5.718,5.254-10.213a80.524,80.524,0,0,1,.375-10.491l8.493-2Z" transform="translate(-2127.567 -1485.167)" fill="#0d0d38"/><path d="M1973.6,1675.1s1.249,9.991-1,11.115-29.1.75-29.1.75,0-3.372,4.621-4.122,12.739-3.5,14.113-9.616S1973.6,1675.1,1973.6,1675.1Z" transform="translate(-1943.5 -1512.412)" fill="#0d0d38"/><path d="M1963.687,1148.766s1.518,18.933,3.3,41.691c2.424,30.915,5.34,68.888,5.628,76.082.5,12.492,2.5,32.474,2.5,32.474s4.744,4.747,14.238,2.746c0,0,8.46-28.524,10.876-58.7.037-.495.075-.993.113-1.492,2.248-30.724,5.743-95.42,5.743-95.42Z" transform="translate(-1957.878 -1138.65)" fill="#09f" opacity="0.5"/><path d="M1963.687,1148.766s1.518,18.933,3.3,41.691l33.241,52.6c.037-.495.075-.993.113-1.492,2.248-30.724,5.743-95.42,5.743-95.42Z" transform="translate(-1957.878 -1138.65)" fill="#00008b"/><path d="M1987.768,1132.468s27.352,68.566,45.337,100.789,23.6,41.215,23.6,41.215,10.3-4.121,11.24-6.931c0,0-6.877-62.208-18.922-77.372-6.805-8.569-14.8-34.283-15.175-43.276s-2.435-26.79-2.435-26.79Z" transform="translate(-1975.029 -1120.103)" fill="#09f" opacity="0.5"/></g><path d="M1875.924,1087.783l-3.7,4.413a6.419,6.419,0,0,1-2.734,1.853c-2.19.807-5.8,3.065-4.236,8.985,0,0,1.179,3.41,3.371,2.331s1.112-.988,4.254-2.44a7.239,7.239,0,0,0,4.331-4.862,6.384,6.384,0,0,1,2.883-3.933l4.491-3.032Z" transform="translate(-1864.869 -954.762)" fill="#777"/><path d="M2018.648,739.29a80.283,80.283,0,0,1-1.253-11.436l13.877-11.184c-.515,15.378,9.339,22.773,9.339,22.773s-18.493,9.1-29.182,5.731A25.613,25.613,0,0,1,2018.648,739.29Z" transform="translate(-1969.254 -690.443)" fill="#777"/><path d="M2012.275,682.364s17.655,2.933,19.312-8.09,5.052-18.067-6.15-20.406-14.029,1.537-15.478,5.082S2007.725,681.316,2012.275,682.364Z" transform="translate(-1967.403 -645.206)" fill="#777"/><path d="M1887.907,906.027a30.208,30.208,0,0,1-4.112-5.574s20.059-24.922,21.689-27.506,13.813-44.038,13.813-44.038l30.806-6.24s-25.714,53.051-29.974,59.518c-7.04,10.687-28.1,26.593-28.1,26.593A12.678,12.678,0,0,1,1887.907,906.027Z" transform="translate(-1878.349 -765.938)" fill="#00008b"/><path d="M2012.552,882.1c.039.63-.668,1.336-1.492,1.886a14.347,14.347,0,0,1-1.925,1.061q-3.536,1.591-6.954,2.829a64.006,64.006,0,0,1-16.7,3.967c-6.248.629-13.2,0-18.505-.51-2.986-.355-5.423-.629-6.915-.629h-.2a1.714,1.714,0,0,1-1.14-.431c-.236-.158-.432-9.508-.314-22.082,0-1.769.039-3.576.039-5.462a14.5,14.5,0,0,1,.079-1.846v-.2c.039-5.893.237-12.14.511-18.308v-.119c.589-13.711,1.65-26.914,3.5-34.26,2.122-8.606,7.072-14.264,11.552-18.467l3.694-3.262a7.441,7.441,0,0,0,.943.157,17.208,17.208,0,0,0,10.569-1.533c4.2-2.082,8.84-4.361,9.587-3.81.078.079.2.157.275.236a17.589,17.589,0,0,1,3.537,3.85c.079.038.079.038.079.079h.038a30.688,30.688,0,0,1,2.437,4.244,51,51,0,0,1,3.143,8.525c2.4,8.6,3.576,19.448,3.536,31.039,0,2.946-.078,5.932-.275,8.957-.039.865-.079,1.69-.118,2.515-.353,7.5-.314,14.459-.117,20.548v.2c.2,6.17.551,11.4.825,15.284C2012.395,878.92,2012.512,880.806,2012.552,882.1Z" transform="translate(-1931.467 -736.264)" fill="#09f"/><path d="M2103.237,957.624a295.112,295.112,0,0,1-.586-38.533c.172-3.027.262-6.029.272-8.984-3.657-8.87-6.645-15.3-6.645-15.3h-9.217S2080.306,940.956,2103.237,957.624Z" transform="translate(-2022.46 -817.316)" fill="#00008b"/><path d="M2020.239,653.537s-1.811-.3-1.519-2.8.289-5.757-1.74-5.149-2.129,2.232-2.963,1.284-.849-4.945-6.886-5.224-8.49,1.823-11.3.589-2.956-5.483-2.956-5.483a4.829,4.829,0,0,0,2,2s-4.684-6.406.739-10.8,10.951-1.517,14.09-1.327c6.914.419,11.38.834,13.639,5.377S2024.676,649.164,2020.239,653.537Z" transform="translate(-1956.04 -625.53)" fill="#0b0754"/><g transform="translate(75.053 149.815)"><path d="M2405.528,1682.326a6.491,6.491,0,0,0,3.483,8.55,6.621,6.621,0,0,0,8.648-3.445,6.491,6.491,0,0,0-3.484-8.551A6.62,6.62,0,0,0,2405.528,1682.326Z" transform="translate(-2324.62 -1525.203)" fill="#09f" opacity="0.5"/><path d="M2241.188,1682.626a6.49,6.49,0,0,0,3.483,8.551,6.621,6.621,0,0,0,8.648-3.445,6.491,6.491,0,0,0-3.484-8.551A6.62,6.62,0,0,0,2241.188,1682.626Z" transform="translate(-2207.572 -1525.417)" fill="#09f" opacity="0.5"/><path d="M2277.626,1674.16l-9.368,3.348a8.575,8.575,0,0,1-2.955.5l-53.2-.433-5.825-9.508Z" transform="translate(-2183.087 -1517.872)" fill="#2b276a"/><g transform="translate(11.525)"><path d="M2218.334,1197.336l-14.928-36.495-.018-.07c-.091-.327-2.419-8.166-15.812-9.894l-.062-.01-11.017-2.031c-1.423-.368-5.536-.982-7.416.593a3.619,3.619,0,0,0-1.028,3.337c.282,3.063,10.217,26.725,16.824,41.883l-2.1.9c-1.7-3.894-16.6-38.168-17-42.574a5.765,5.765,0,0,1,1.833-5.276c3.072-2.568,8.824-1.216,9.435-1.063l10.864,2c14.422,1.872,17.385,10.491,17.679,11.481l14.877,36.372Z" transform="translate(-2165.73 -1146.142)" fill="#2b276a"/></g><path d="M2161.277,1286.655l-28.7,5.731s-8.364,3.383-6.677,17.884c1.486,12.759,8.027,84.358,8.027,84.358s1.366,14.9,33.546,10.514Z" transform="translate(-2125.679 -1246.22)" fill="#2b276a"/><path d="M2193.99,1306.02l7.873,80.182a17.937,17.937,0,0,0,3.283,8.72,18.374,18.374,0,0,0,14.879,7.649l26.624.111.659,0,16.674.069a18.581,18.581,0,0,0,4.829-.612q.54-.141,1.063-.314a18.29,18.29,0,0,0,11.835-12.274,17.853,17.853,0,0,0,.457-7.745l-12.236-76.709a18.247,18.247,0,0,0-16.4-15.217l-4.7-.435-1.122-.1h0l-.942-.086-15.723-1.456-1.929-.177-15.172-1.4a18.513,18.513,0,0,0-6.826.633c-.141.041-.281.081-.42.128l-.876.3A18.118,18.118,0,0,0,2193.99,1306.02Z" transform="translate(-2174.27 -1245.855)" fill="#09f" opacity="0.5"/><path d="M2232.972,1641.01a18.375,18.375,0,0,0,14.879,7.649l26.625.111.658,0,16.674.069a18.573,18.573,0,0,0,4.83-.612q.539-.141,1.063-.314c5.768-1.9,12.409-8.827,12.49-16.157,0,0-56.321-.619-68.089,1.2C2236.031,1633.9,2234.223,1638.1,2232.972,1641.01Z" transform="translate(-2202.096 -1491.943)" fill="#010117"/><g transform="translate(31.549 41.001)"><g transform="translate(40.947 2.402)"><path d="M2377.6,1296.97c.117.071,12.48,7.486,14.115,14.021,1.681,6.714,12.978,85,13.091,85.786a18.045,18.045,0,0,1-6.006,13.28l.845-.2q.54-.141,1.063-.314a16.182,16.182,0,0,0,5.093-12.9c-.465-3.232-11.421-79.124-13.111-85.887-1.483-5.925-10.2-11.816-13.024-13.594l-1.121-.1h0Z" transform="translate(-2377.603 -1296.97)" fill="#2b276a"/></g><g transform="translate(23.295 0.769)"><path d="M2316.262,1291.294a23.765,23.765,0,0,1,10.034,15.671c1.717,11.03,8.5,91.157,8.565,91.963l.005.058.018.054c.013.04.967,4.364-1.755,7.307l.668,0,.658,0a8.5,8.5,0,0,0,1.4-7.564c-.211-2.477-6.866-81.035-8.571-91.975a24.679,24.679,0,0,0-9.1-15.344Z" transform="translate(-2316.262 -1291.294)" fill="#2b276a"/></g><path d="M2235.312,1289.049a20.823,20.823,0,0,1,4.835,3.933,22.522,22.522,0,0,1,5.462,11.678c1.717,11.025,7.124,90.886,7.179,91.69l0,.063.019.057c.013.04.253,4.927-2.468,7.87l1.677.007c2.08-2.689,1.942-7.545,1.766-8.12-.173-2.553-5.479-80.777-7.183-91.719a22.649,22.649,0,0,0-9.993-15.886c-.14.041-.281.081-.421.128Z" transform="translate(-2235.312 -1288.622)" fill="#2b276a"/></g></g><path d="M2197.922,1097.809l3.434,8.086a4.049,4.049,0,0,1,0,3.055c-.844,2.177-1.538,6.377,3.935,9.121,0,0,3.337,1.372,3.979-.986s-.005-1.488.985-4.8c.866-2.9.293-5.722-1.46-7.163a3.109,3.109,0,0,1-.989-2.113l-.541-5.15Z" transform="translate(-2102.08 -961.902)" fill="#777"/><path d="M2106.922,884.108a30.189,30.189,0,0,1-6.917.385s-9.853-30.436-11.121-33.217-29.265-35.688-29.265-35.688l11.663-29.189s30.283,50.583,33.358,57.691c5.081,11.745,6.844,38.078,6.844,38.078A12.676,12.676,0,0,1,2106.922,884.108Z" transform="translate(-2003.576 -740.106)" fill="#09f"/><path d="M2064.724,871.553v.2a31.34,31.34,0,0,1-13.005-6.561c-6.875-5.617-11.551-13.83-14.5-22.435-4.558-13.4-4.91-27.777-2.593-34.851a12.085,12.085,0,0,1,1.06-2.356,17.337,17.337,0,0,1,3.222-4.008,22.552,22.552,0,0,1,12.376-5.579,27.27,27.27,0,0,1,2.79-.236c1.1-.041,1.808,0,2,0h.039a30.712,30.712,0,0,1,2.437,4.244,17.7,17.7,0,0,0-2-.079,19.888,19.888,0,0,0-7.191.982,14.473,14.473,0,0,0-7.583,5.579c-4.872,6.835-3.811,16.62-3.811,16.62a81.651,81.651,0,0,0,2.2,13.79c2.318,9.274,5.972,15.873,9.744,20.51,7.032,8.721,14.711,10.615,14.711,10.615Z" transform="translate(-1984.778 -746.734)" fill="#0d0d38"/></g><g transform="translate(706.483 398.076)" opacity="0.5"><path d="M2495.3,1205.776s12.546-5.71,22.038-.714,3.689,46.229-9.884,50.225h0S2478.316,1290.7,2495.3,1205.776Z" transform="translate(-2462.176 -1153.693)" fill="#0d0d38"/><path d="M2408.293,1195.631c-.618-4.823.584-13.568.584-13.568s-4.261-.22-6.647,5.4c-4.946,11.641-2.8,36.768-2.5,40.365,0,0-1.7,7.144.825,19.5a21.259,21.259,0,0,1-1.175,2.471,1.478,1.478,0,0,0-.123.159h0a1.459,1.459,0,0,0-.021,1.582l1.634,2.59a1.44,1.44,0,0,0,.618.54h0a1.45,1.45,0,0,0,.252.09l2.024.478.2-6.9c0-.005-.013-.005-.024,0C2404.639,1241.554,2408.861,1200.059,2408.293,1195.631Zm-5.227,53.211-.043-.056.086.051C2403.087,1248.845,2403.071,1248.848,2403.066,1248.842Z" transform="translate(-2397.382 -1138.772)" fill="#777"/><path d="M2518.223,1703.1l-1.612,5.82h-13.622S2498.933,1701.484,2518.223,1703.1Z" transform="translate(-2471.186 -1509.71)" fill="#0d0d38"/><path d="M2416.716,1703.1l-1.612,5.82h-13.623S2397.426,1701.484,2416.716,1703.1Z" transform="translate(-2398.888 -1509.71)" fill="#0d0d38"/><path d="M2460.641,1049.529c.89-3.858-.208-6.709-1.979-9.452-1.7-2.631-4.085-2.745-6.379-4.973a14.761,14.761,0,0,0-9.386-3.477c-10.25,0-19.126,6.275-17.1,16.916.643,3.381.1,6.045,2.841,10,3.42,4.933,7.58,8.892,14.262,8.892a12.783,12.783,0,0,0,9.386-3.4c1.489-1.407,3.624-1.581,4.935-3.113C2459.866,1057.822,2459.669,1053.744,2460.641,1049.529Z" transform="translate(-2416.253 -1031.627)" fill="#0b0754"/><path d="M2455.546,1124.439s2.249,8.693-2.3,12.39l12.776,6.53,1.682-8.451a41.626,41.626,0,0,1-1.751-15.8Z" transform="translate(-2436.012 -1093.935)" fill="#777"/><path d="M2447.147,1096.581s13.076,1.594,13.355-7.619-5.172-15.18-8.809-15.112c-7.254.135-8.451,3.067-9.292,6.12S2441.127,1095.931,2447.147,1096.581Z" transform="translate(-2427.941 -1061.699)" fill="#777"/><path d="M2410.346,1394.791l25.842,2.136s3.035,45.323-13.945,87.338l-14.479-.275Z" transform="translate(-2403.616 -1290.284)" fill="#00008b"/><path d="M2484.305,1403.84s7.951,30.887,1.5,87.258l-17.54,0-8.412-73.184c-.321-2.167-4.4-5.186-4.4-5.186l-.159-8.363Z" transform="translate(-2437.474 -1296.729)" fill="#09f" opacity="0.5"/><path d="M2440.769,1194.337l1.69-13.879c-.256-.358-.462-.666-.718-.973-2.969-3.636-14.391-5.223-16.7-5.48a2.565,2.565,0,0,1-.427.542c-2.1,1.9-4.951,3.913-8.74,3.4-3.227-.409-3.754-2.1-3.651-3.943a36,36,0,0,0-10.6,3.253c-6.887,2.581-8.271,25.463-8.271,25.463.914-.273,5.486.528,7.607.924l-.854,33.918c16.439,7.17,40.1,2.561,40.1,2.561l-.05-.2-1.588-27.144,1.485-12.395Z" transform="translate(-2393.352 -1133.033)" fill="#008"/><path d="M2458.716,1132.464s-.285,1.149-3.149.937c0,0-2.4-.177-2.316-1.442A7.744,7.744,0,0,1,2458.716,1132.464Z" transform="translate(-2436.012 -1102.892)" fill="#fff"/><path d="M2520.415,1286.934c1.118,1.4,6.627,1.892,9.936.878l-1.612-27.106,2.218-18.437-2.143-1s-9.409,7.548-8.309,13.564S2518.976,1285.135,2520.415,1286.934Z" transform="translate(-2483.535 -1180.944)" fill="#f8f8f8"/><path d="M2528.895,1195.72s-7.273,2.714-10.4,4.66a4.814,4.814,0,0,0-1.28.973l-9.936-19.769-1.9-3.739-1.742-3.534-.153-.307s.138.009.41.051a58.513,58.513,0,0,1,6.145,1.024,39.433,39.433,0,0,1,5.327,1.537h.051a12,12,0,0,1,4.764,2.868c.256.307.461.615.717.973C2524.233,1185.221,2528.895,1195.72,2528.895,1195.72Z" transform="translate(-2471.797 -1133.033)" fill="#777"/><path d="M2504.231,1235.1s-35.39-37.848-12.8-54.595a23.883,23.883,0,0,1,4.66-2.766,39.486,39.486,0,0,1,5.327,1.537,17.078,17.078,0,0,0-8.092,4.968c-5.48,6.094-8.041,19.052,10.6,46.042Z" transform="translate(-2457.838 -1135.694)" fill="#09f" opacity="0.5"/><path d="M2464.642,1072.822s11.175-.006,8.607,7.665c-1.619,4.836,3.763,5.587,3.763,5.587l2.589-7.75-1.622-6.038Z" transform="translate(-2444.127 -1060.586)" fill="#0b0754"/><path d="M2513.04,1249.717c-3.454,1.067-8.669,3.387-10.256,4.948,1.755,4.038,2.743,6.709,2.743,6.709-1.32-.586-8.147-1.141-11.687-1.394-.4-.03-3.638-1.091-3.638-1.091s-.027-5.527-6.348-5.964c0,0-2.633.016-2.093,1.813s.6,1.017,1.3,3.57,2.541,4.5,4.5,4.612c9.384,7.891,22.307,7.955,26.2,7.774a1.553,1.553,0,0,0,1.446-1.195C2516.687,1263.088,2515.674,1256.436,2513.04,1249.717Z" transform="translate(-2456.269 -1186.958)" fill="#777"/></g></g></svg>