<svg xmlns="http://www.w3.org/2000/svg" width="25" height="22.278" viewBox="0 0 25 22.278"><g transform="translate(-5.583 -6.381)"><g transform="translate(5.583 6.381)"><g transform="translate(0 0)"><g transform="translate(0 0)"><path d="M22.408,22.8H20.839V21.551a.651.651,0,0,0-1.3,0V22.8H13.154V21.551a.651.651,0,0,0-1.3,0V22.8H5.405V21.551a.651.651,0,0,0-1.3,0V22.8H2.6A2.635,2.635,0,0,0,0,25.432V40.573a2.6,2.6,0,0,0,2.6,2.6H22.4a2.6,2.6,0,0,0,2.6-2.6V25.432A2.625,2.625,0,0,0,22.408,22.8Zm1.3,17.778a1.3,1.3,0,0,1-1.289,1.3H2.6a1.3,1.3,0,0,1-1.3-1.3V25.432A1.325,1.325,0,0,1,2.6,24.1H4.1v.944a.651.651,0,1,0,1.3,0V24.1h6.447v.944a.651.651,0,1,0,1.3,0V24.1h6.382v.944a.651.651,0,1,0,1.3,0V24.1h1.569a1.325,1.325,0,0,1,1.3,1.335Z" transform="translate(0 -20.9)" fill="#09f"/></g></g><g transform="translate(9.39 7.615)"><path d="M139.273,135h-.683a.39.39,0,0,0,0,.78h.683a.39.39,0,1,0,0-.78Z" transform="translate(-138.2 -135)" fill="#09f"/></g><g transform="translate(14.12 7.615)"><path d="M208.873,135h-.683a.39.39,0,1,0,0,.78h.683a.39.39,0,1,0,0-.78Z" transform="translate(-207.8 -135)" fill="#09f"/></g><g transform="translate(18.889 7.615)"><path d="M279.073,135h-.683a.39.39,0,0,0,0,.78h.683a.39.39,0,1,0,0-.78Z" transform="translate(-278 -135)" fill="#09f"/></g><g transform="translate(9.39 12.221)"><path d="M139.273,204h-.683a.39.39,0,0,0,0,.78h.683a.39.39,0,1,0,0-.78Z" transform="translate(-138.2 -204)" fill="#09f"/></g><g transform="translate(4.62 12.221)"><path d="M69.077,204H68.39a.39.39,0,1,0,0,.78h.683a.39.39,0,0,0,0-.78Z" transform="translate(-68 -204)" fill="#09f"/></g><g transform="translate(14.12 12.221)"><path d="M208.873,204h-.683a.39.39,0,1,0,0,.78h.683a.39.39,0,1,0,0-.78Z" transform="translate(-207.8 -204)" fill="#09f"/></g><g transform="translate(18.889 12.221)"><path d="M279.073,204h-.683a.39.39,0,0,0,0,.78h.683a.39.39,0,1,0,0-.78Z" transform="translate(-278 -204)" fill="#09f"/></g><g transform="translate(9.39 16.759)"><g transform="translate(0 0)"><path d="M139.273,272h-.683a.39.39,0,0,0,0,.78h.683a.39.39,0,0,0,0-.78Z" transform="translate(-138.2 -272)" fill="#09f"/></g></g><g transform="translate(4.62 16.759)"><g transform="translate(0 0)"><path d="M69.077,272H68.39a.39.39,0,1,0,0,.78h.683a.39.39,0,0,0,0-.78Z" transform="translate(-68 -272)" fill="#09f"/></g></g><g transform="translate(14.12 16.759)"><g transform="translate(0 0)"><path d="M208.873,272h-.683a.39.39,0,1,0,0,.78h.683a.39.39,0,1,0,0-.78Z" transform="translate(-207.8 -272)" fill="#09f"/></g></g></g></g></svg>