<svg xmlns="http://www.w3.org/2000/svg" width="25" height="17.578" viewBox="0 0 25 17.578"><g transform="translate(0 -76)"><g transform="translate(0 76)"><path d="M22.07,80.395H10.254a2.923,2.923,0,0,0-2.2.995,2.922,2.922,0,0,0-3.662-.6V76H0V93.578H4.395v-2.93H20.605v2.93H25V83.324A2.933,2.933,0,0,0,22.07,80.395ZM2.93,92.113H1.465V77.465H2.93Zm1.465-8.789a1.465,1.465,0,0,1,2.93,0v1.465H4.395Zm19.141,8.789H22.07V90.648h1.465Zm0-2.93H4.395v-2.93H23.535Zm0-4.395H8.789V83.324a1.467,1.467,0,0,1,1.465-1.465H22.07a1.467,1.467,0,0,1,1.465,1.465Z" transform="translate(0 -76)" fill="#09f"/></g></g></svg>