<svg xmlns="http://www.w3.org/2000/svg" width="18.287" height="16.252" viewBox="0 0 18.287 16.252"><path d="M12.782,2.645l2.864,2.864a.31.31,0,0,1,0,.438L8.712,12.881l-2.946.327a.617.617,0,0,1-.683-.683L5.41,9.579l6.934-6.934A.31.31,0,0,1,12.782,2.645Zm5.143-.727L16.375.369a1.242,1.242,0,0,0-1.752,0L13.5,1.493a.31.31,0,0,0,0,.438l2.864,2.864a.31.31,0,0,0,.438,0l1.124-1.124a1.242,1.242,0,0,0,0-1.752Zm-5.734,9.077v3.232H2.032V4.068h7.3a.39.39,0,0,0,.27-.111l1.27-1.27a.381.381,0,0,0-.27-.651H1.524A1.524,1.524,0,0,0,0,3.56V14.735a1.524,1.524,0,0,0,1.524,1.524H12.7a1.524,1.524,0,0,0,1.524-1.524V9.725a.382.382,0,0,0-.651-.27l-1.27,1.27A.39.39,0,0,0,12.191,10.995Z" transform="translate(0 -0.007)" fill="#fff"/></svg>