<svg id="filter" xmlns="http://www.w3.org/2000/svg" width="31" height="31" viewBox="0 0 31 31">
  <path id="Trazado_11" data-name="Trazado 11" d="M25.454,0H5.546A5.552,5.552,0,0,0,0,5.546V25.454A5.552,5.552,0,0,0,5.546,31H25.454A5.552,5.552,0,0,0,31,25.454V5.546A5.552,5.552,0,0,0,25.454,0Zm3.729,25.454a3.734,3.734,0,0,1-3.729,3.729H5.546a3.734,3.734,0,0,1-3.729-3.729V5.546A3.734,3.734,0,0,1,5.546,1.816H25.454a3.734,3.734,0,0,1,3.729,3.729Z" transform="translate(0 0)" fill="#00008b"/>
  <path id="Trazado_12" data-name="Trazado 12" d="M85.081,82.669H72.176a2.531,2.531,0,0,0-5.047,0H65.114a1.125,1.125,0,0,0,0,2.18h2.014a2.531,2.531,0,0,0,5.047,0H85.081a1.125,1.125,0,0,0,0-2.18Z" transform="translate(-59.598 -75.69)" fill="#00008b"/>
  <path id="Trazado_13" data-name="Trazado 13" d="M85.081,211.2H83.066a2.531,2.531,0,0,0-5.047,0H65.114a1.125,1.125,0,0,0,0,2.18H78.02a2.531,2.531,0,0,0,5.047,0h2.014a1.125,1.125,0,0,0,0-2.18Z" transform="translate(-59.598 -196.792)" fill="#00008b"/>
  <path id="Trazado_14" data-name="Trazado 14" d="M85.081,339.735H75.806a2.531,2.531,0,0,0-5.047,0H65.114a1.125,1.125,0,0,0,0,2.18h5.645a2.531,2.531,0,0,0,5.047,0h9.275a1.125,1.125,0,0,0,0-2.18Z" transform="translate(-59.598 -317.893)" fill="#00008b"/>
</svg>
