<svg id="Icon_awesome-edit" data-name="Icon awesome-edit" xmlns="http://www.w3.org/2000/svg" width="19.598" height="17.417" viewBox="0 0 19.598 17.417">
  <path id="Icon_awesome-edit-2" data-name="Icon awesome-edit" d="M13.7,2.834,16.767,5.9a.333.333,0,0,1,0,.47L9.336,13.8l-3.157.35a.662.662,0,0,1-.732-.732l.35-3.157,7.431-7.431A.333.333,0,0,1,13.7,2.834Zm5.512-.779L17.55.395a1.331,1.331,0,0,0-1.878,0l-1.2,1.2a.333.333,0,0,0,0,.47l3.069,3.069a.333.333,0,0,0,.47,0l1.2-1.2A1.331,1.331,0,0,0,19.21,2.055Zm-6.145,9.728v3.464H2.178V4.359H10a.418.418,0,0,0,.289-.119l1.361-1.361a.408.408,0,0,0-.289-.7H1.633A1.634,1.634,0,0,0,0,3.814V15.791a1.634,1.634,0,0,0,1.633,1.633H13.61a1.634,1.634,0,0,0,1.633-1.633V10.422a.409.409,0,0,0-.7-.289l-1.361,1.361A.418.418,0,0,0,13.066,11.783Z" transform="translate(0 -0.007)" fill="rgba(0,0,0,0.49)"/>
</svg>
