<svg xmlns="http://www.w3.org/2000/svg" width="40" height="40" viewBox="0 0 40 40"><g transform="translate(-45 -453)"><path d="M20,0h0A20,20,0,0,1,40,20v0A20,20,0,0,1,20,40H0a0,0,0,0,1,0,0V20A20,20,0,0,1,20,0Z" transform="translate(45 453)" fill="#00008b"/><path d="M13.063.563a12.5,12.5,0,1,0,12.5,12.5A12.5,12.5,0,0,0,13.063.563Zm0,5.544a2.117,2.117,0,1,1-2.117,2.117A2.117,2.117,0,0,1,13.063,6.107Zm2.823,12.8a.6.6,0,0,1-.6.6H10.845a.6.6,0,0,1-.6-.6V17.7a.6.6,0,0,1,.6-.6h.6V13.869h-.6a.6.6,0,0,1-.6-.6v-1.21a.6.6,0,0,1,.6-.6h3.226a.6.6,0,0,1,.6.6v5.04h.6a.6.6,0,0,1,.6.6Z" transform="translate(52.438 459.438)" fill="#fff"/></g></svg>