<svg xmlns="http://www.w3.org/2000/svg" width="51" height="51" viewBox="0 0 51 51"><g transform="translate(-413 -976)"><g transform="translate(677.794 -1482.206)"><circle cx="25.5" cy="25.5" r="25.5" transform="translate(-264.794 2458.206)" fill="#09f"/></g><path d="M24.951,5.789a10.417,10.417,0,0,1-2.943.807A5.164,5.164,0,0,0,24.261,3.76,10.586,10.586,0,0,1,21,4.993a5.123,5.123,0,0,0-8.865,3.5,5.244,5.244,0,0,0,.132,1.171A14.515,14.515,0,0,1,1.708,4.322,5.023,5.023,0,0,0,1.015,6.9a5.126,5.126,0,0,0,2.279,4.266,5.108,5.108,0,0,1-2.321-.642v.064a5.128,5.128,0,0,0,4.11,5.028,5.172,5.172,0,0,1-2.3.089,5.142,5.142,0,0,0,4.8,3.559,10.279,10.279,0,0,1-6.356,2.193A10.878,10.878,0,0,1,0,21.387a14.578,14.578,0,0,0,7.872,2.3A14.476,14.476,0,0,0,22.453,9.12c0-.218,0-.437-.016-.656A10.349,10.349,0,0,0,25,5.81l-.049-.021Z" transform="translate(426 987.972)" fill="#fff"/></g></svg>